<?xml version="1.0" encoding="utf-8"?>
<svg viewBox="0 0 500 500" xmlns="http://www.w3.org/2000/svg">
  <path d="M 466.171 439.501 L 467.026 417.456 C 475.935 411.992 485.872 409.106 495.975 409.049 C 482.072 422.09 483.809 447.227 474.382 464.763 C 468.353 475.79 458.28 483.071 447.006 484.553 L 435.371 492.724 C 432.139 472.063 436.959 450.812 448.556 434.573 C 451.81 430.108 455.541 426.131 459.661 422.736 C 462.448 431.164 466.171 439.501 466.171 439.501 Z" fill="#f2f2f2" style=""/>
  <path d="M 289.73 498.213 C 283.804 497.729 282.258 499.07 273.292 498.213 L 256.854 498.213 L 258.992 453.087 L 284.87 464.982 L 413.472 468.604 L 413.397 468.854 C 413.337 469.046 407.627 488.206 412.091 495.46 L 412.277 495.76 L 411.915 495.764 L 293.944 497.005 C 292.655 497.019 291.009 498.316 289.73 498.213 Z" fill="#f2f2f2" style=""/>
  <path d="M 296.4 498.803 C 284.952 497.868 273.099 502.973 263.205 497.211 L 255.295 497.759 L 255.273 497.683 C 255.212 497.474 251.477 463.753 259.029 450.679 L 259.36 450.103 L 259.621 453.2 L 257.132 495.206 L 262.649 493.093 C 276.053 500.33 291.992 495.551 307.332 495.483 L 411.723 495.042 C 413.91 495.033 415.733 496.748 415.79 498.864 L 415.796 499.07 L 302.706 499.06 C 300.597 499.06 298.494 498.973 296.4 498.803 Z" fill="#ccc" style=""/>
  <polygon points="406.22 477.704 288.744 475.026 288.624 474.974 260.868 463.042 261.392 461.437 289.029 473.319 406.25 475.989 406.22 477.704" fill="#e6e6e6" style=""/>
  <polygon points="405.594 484.92 288.117 482.241 287.997 482.19 260.241 470.256 260.765 468.652 288.403 480.534 405.624 483.206 405.594 484.92" fill="#e6e6e6" style=""/>
  <polygon points="404.967 492.138 287.49 489.458 287.369 489.406 259.614 477.473 260.138 475.867 287.776 487.751 404.997 490.423 404.967 492.138" fill="#e6e6e6" style=""/>
  <path d="M 297.212 469.07 C 286.319 468.226 275.7 464.787 266.03 458.976 L 257.888 454.022 L 258.099 451.572 C 258.223 450.828 258.815 450.31 259.474 450.372 L 260.192 450.38 L 369.75 452.23 C 376.921 452.332 384.025 453.812 390.771 456.607 L 414.642 466.55 L 414.629 466.694 C 414.429 469.002 412.4 470.784 410.011 470.753 L 302.093 469.301 C 300.46 469.279 298.834 469.202 297.212 469.07 Z" fill="#e6e6e6" style=""/>
  <polygon points="414.413 467.079 414.388 467.077 283.008 463.624 282.917 463.576 259.229 450.993 259.469 450.572 260.189 450.581 283.227 462.827 413.389 466.244 414.433 466.274 414.413 467.079" fill="#ccc" style=""/>
  <path d="M 312.275 451.463 L 310.608 451.436 L 272.954 450.797 L 271.172 450.769 C 279.775 461.275 298.797 463.904 326.68 459.834 L 312.275 451.463 Z" fill="#ccc" style=""/>
  <polygon points="418.136 200.165 420.433 206.295 416.678 228.061 378.382 221.953 378.687 195.409 379.456 189.598 418.136 200.165" fill="#ffb6b6" style=""/>
  <polygon points="437.922 482.271 429.472 482.271 425.452 444.885 437.922 444.885 437.922 482.271" fill="#ffb6b6" style=""/>
  <path d="M 412.789 494.923 C 412.792 497.21 414.406 499.062 416.4 499.064 L 432.474 499.064 L 435.244 492.503 L 436.32 499.064 L 442.379 499.064 L 440.675 475.629 L 437.922 475.443 L 428.669 474.811 L 427.177 474.705 L 427.177 481.344 L 414.348 491.512 C 413.372 492.286 412.788 493.561 412.789 494.923 Z" style="fill: rgb(2, 226, 242);"/>
  <polygon points="359.827 439.414 351.379 439.414 346.408 384.374 362.284 383.288 359.827 439.414" fill="#ffb6b6" style=""/>
  <path d="M 334.695 452.068 C 334.697 454.353 336.312 456.206 338.305 456.208 L 354.379 456.208 L 357.149 449.645 L 358.225 456.208 L 364.284 456.208 L 362.58 432.772 L 360.123 432.607 L 350.71 431.955 L 349.082 431.848 L 349.082 438.487 L 336.253 448.655 C 335.277 449.43 334.694 450.705 334.695 452.068 Z" style="fill: rgb(2, 226, 242);"/>
  <path d="M 441.507 450.032 L 441.475 450.032 L 439.851 389.245 C 441.986 384.52 441.917 378.881 439.668 374.225 L 439.436 373.741 L 440.04 370.534 C 440.814 366.413 440.458 362.118 439.02 358.238 L 437.505 301.536 C 442.921 261.274 417.112 235.015 417.112 235.015 L 419.484 213.912 L 377.738 215 L 378.448 235.015 L 370.147 267.73 C 365.779 316.552 336.379 347.239 340.849 393.925 C 340.858 394.06 340.839 394.195 340.797 394.321 C 339.88 397.518 340.185 401.013 341.636 403.939 C 341.822 404.308 341.95 404.713 342.014 405.133 C 342.934 413.317 343.054 402.963 344.275 411.077 L 344.038 411.214 C 343.183 411.552 342.815 412.911 343.219 414.247 C 343.621 415.585 344.64 416.395 345.495 416.056 L 367.81 416.33 C 368.665 415.992 369.033 414.634 368.629 413.296 C 368.228 411.958 367.207 411.15 366.354 411.487 L 364.965 412.294 L 367.288 403.575 L 368.102 402.703 C 369.771 400.918 369.55 397.814 367.653 396.36 L 369.966 382.194 L 369.637 371.479 L 370.315 359.326 L 399.596 310.652 L 411.443 377.883 L 423.542 450.708 C 422.969 451.302 422.706 452.197 422.849 453.068 C 423.078 454.303 424.039 455.177 425.14 455.155 L 441.567 455.155 C 443.044 455.154 444.114 453.54 443.721 451.905 C 443.437 450.78 442.53 450.01 441.507 450.032 Z" style="fill: rgb(91, 57, 125);"/>
  <path d="M 426.899 96.732 C 426.906 114.983 409.686 126.397 395.904 117.278 C 384.265 109.576 382.026 91.384 391.35 80.287 L 391.45 80.173 C 391.614 79.973 391.78 79.775 391.954 79.585 C 391.959 79.585 391.962 79.58 391.962 79.576 C 392.199 79.377 392.418 79.152 392.615 78.902 C 395.406 74.43 398.569 70.679 406.232 73.021 C 417.262 76.395 426.899 83.634 426.899 96.732 Z" style="fill: rgb(242, 242, 242);"/>
  <path d="M 313.364 86.582 C 313.165 91.984 317.271 96.28 321.942 95.556 L 375.244 145.737 L 383.384 129.323 L 328.43 85.156 C 327.264 78.57 320.319 75.9 315.929 80.353 C 314.366 81.938 313.44 84.189 313.364 86.582 Z" fill="#ffb6b6" style=""/>
  <path d="M 397.75 160.537 C 397.75 160.537 397.734 158.73 389.26 158.8 C 378.742 158.886 349.775 141.564 352.309 125.249 C 349.835 126.531 346.916 125.729 345.218 123.298 L 359.32 107.724 C 363.746 108.066 363.791 111.463 363.412 113.414 L 374.745 118.58 L 404.264 138.034 L 399.053 157.575 L 397.75 160.537 Z" style="fill: rgb(2, 226, 242);"/>
  <circle cx="417.933" cy="47.54" r="23.195" fill="#ffb7b7" style="" transform="matrix(0.747184, 0, 0, 0.857128, 88.86557, 61.467098)"/>
  <path d="M 377.319 201.105 C 375.346 204.126 375.487 208.319 377.658 211.157 C 377.666 211.74 377.743 212.303 378.464 214.394 C 378.558 214.596 378.668 214.788 378.794 214.967 C 378.817 215.011 378.842 215.053 378.869 215.093 C 379.628 216.219 380.683 217.034 381.879 217.416 L 413.603 227.574 L 417.797 228.916 L 418.534 229.149 L 418.941 222.576 C 420.89 220.725 421.369 217.517 420.068 215.026 L 419.484 213.918 L 422.89 203.409 L 423.22 202.369 L 431.906 175.55 L 431.913 173.762 L 431.931 171.915 L 432.015 159.026 C 432.024 150.791 428.668 143.028 422.949 138.049 C 420.379 135.798 417.417 134.206 414.264 133.383 L 414.195 133.375 L 410.765 128.076 L 396.842 129.671 L 395.689 132.383 L 394.291 135.648 L 384.2 142.54 L 380.751 151.735 L 378.42 157.957 C 374.811 160.93 372.658 164.751 372.039 169.301 C 370.717 178.962 376.615 188.635 377.319 189.743 L 377.498 200.833 L 377.319 201.105 Z" style="fill: rgb(2, 226, 242);"/>
  <path d="M 419.278 107.429 C 419.119 107.401 418.963 107.363 418.805 107.334 C 416.102 106.785 413.399 106.245 410.704 105.685 L 410.456 98.676 L 407.19 104.954 C 399.741 107.79 392.772 106.187 386.215 102.65 C 384.054 101.473 381.955 100.144 379.932 98.676 C 379.268 86.823 383.444 79.234 391.218 80.03 C 391.501 80.059 391.706 79.727 391.954 79.585 C 391.959 79.585 391.962 79.58 391.962 79.576 C 392.383 79.348 392.814 79.13 393.244 78.931 C 400.113 75.852 407.915 77.586 413.284 83.387 C 418.573 89.182 420.956 98.752 419.278 107.429 Z" style="fill: rgb(242, 242, 242);"/>
  <path d="M 418.805 107.334 C 418.805 107.334 413.672 85.351 391.664 80.277 C 391.64 80.268 391.557 80.231 391.45 80.173 C 391.383 80.126 391.3 80.079 391.218 80.03 C 391.465 79.868 391.706 79.727 391.954 79.585 C 391.959 79.585 391.962 79.58 391.962 79.576 C 392.176 79.348 392.392 79.12 392.615 78.902 L 393.244 78.931 C 393.244 78.931 415.325 74.919 418.805 107.334 Z" fill="#fd6584" style=""/>
  <path d="M 427.272 245.913 C 426.441 246.728 425.284 246.942 424.272 246.47 C 423.284 245.989 422.406 245.252 421.707 244.318 C 418.858 240.889 416.819 236.677 415.791 232.087 L 416.742 230.147 C 415.972 225.217 418.301 220.339 422.335 218.426 C 423.449 217.883 424.684 217.759 425.863 218.073 C 427.053 218.412 427.987 219.473 428.294 220.836 C 428.66 222.911 427.154 224.785 425.628 225.977 C 422.969 228.047 419.894 229.308 416.694 229.644 C 420.609 232.176 423.992 235.658 426.61 239.851 C 427.214 240.725 427.66 241.729 427.92 242.804 C 428.174 243.901 427.932 245.069 427.272 245.913 Z" style="fill: rgb(2, 226, 242);"/>
  <path id="be339808-9edc-488a-82d9-9b8c80f783b0-108" data-name="f02c4e45-f306-4b42-b3ad-5ddd3016d7d2" d="M 208.203 499.77 L 499.067 499.77 C 499.785 499.77 500.233 498.879 499.873 498.166 C 499.707 497.835 499.4 497.632 499.067 497.632 L 208.203 497.632 C 207.485 497.632 207.037 498.522 207.395 499.235 C 207.561 499.567 207.869 499.77 208.203 499.77 Z" fill="#ccc" style=""/>
  <path d="M 285.448 224.983 L 285.448 225.542 C 284.402 224.134 283.333 222.737 282.275 221.341 C 281.83 220.758 281.385 220.176 280.94 219.592 C 279.056 217.14 277.163 214.696 275.258 212.26 C 273.343 209.832 271.426 207.403 269.49 204.988 C 269.024 204.405 268.558 203.821 268.082 203.239 C 267.7 202.751 267.287 202.296 266.845 201.88 C 266.397 201.453 265.883 201.128 265.33 200.921 C 264.695 200.719 264.024 200.709 263.383 200.897 C 262.654 201.09 261.954 201.394 261.246 201.65 C 260.515 201.929 259.795 202.195 259.065 202.463 C 257.604 203.008 256.155 203.555 254.693 204.101 C 254.62 204.136 254.537 204.095 254.506 204.01 L 254.504 204.005 C 254.468 203.906 254.519 203.795 254.61 203.774 C 254.97 203.64 255.34 203.506 255.711 203.372 C 257.182 202.814 258.641 202.268 260.113 201.722 C 260.844 201.442 261.574 201.175 262.305 200.909 C 262.981 200.613 263.696 200.449 264.42 200.422 C 265.603 200.519 266.711 201.117 267.533 202.098 C 267.987 202.584 268.4 203.093 268.812 203.616 C 269.3 204.223 269.786 204.83 270.273 205.437 C 272.23 207.889 274.175 210.35 276.104 212.819 C 278.04 215.294 279.96 217.775 281.862 220.26 C 281.999 220.443 282.137 220.625 282.275 220.807 C 283.344 222.19 284.392 223.586 285.448 224.983 Z" fill="#fff" style=""/>
  <path d="M 266.68 204.117 C 266.279 203.526 265.748 203.072 265.138 202.802 L 264.536 202.827 C 269.26 211.259 275.449 218.482 282.716 224.047 C 277.37 217.405 272.025 210.76 266.68 204.117 Z" fill="#fff" style=""/>
  <path d="M 365.256 291.741 L 341.281 144.477 C 340.436 139.478 336.687 135.815 332.251 135.651 C 332.057 135.645 331.863 135.645 331.668 135.651 L 315.336 136.323 L 313.578 136.398 L 305.428 136.734 L 303.669 136.803 L 298.425 137.019 L 192.702 141.375 C 192.542 141.383 192.377 141.383 192.219 141.38 L 168.528 140.812 L 159.761 140.604 L 159.48 140.599 L 153.01 140.44 L 96.622 139.096 L 81.673 138.736 L 74.302 138.563 L 72.535 138.518 L 64.129 138.32 L 62.368 138.275 L 53.769 138.072 L 52.005 138.027 L 42.557 137.8 L 41.076 137.766 L 32.649 137.563 L 31.317 137.534 L 31.123 137.534 C 26.504 137.557 22.571 141.392 21.809 146.619 L 0.126 299.432 C -0.811 306.015 3.62 311.993 9.437 311.993 L 133.962 311.993 C 135.795 312 137.578 312.675 139.055 313.922 L 141.415 315.929 C 143.043 317.301 145.009 318.046 147.028 318.054 C 171.08 310.772 196.365 310.772 220.416 318.054 C 222.921 318.06 225.323 316.918 227.09 314.88 C 228.585 313.166 230.58 312.147 232.69 312.019 L 356.476 304.537 C 362.173 304.195 366.305 298.175 365.256 291.741 Z" fill="#ccc" style=""/>
  <path d="M 331.333 268.776 C 331.003 279.168 323.393 287.287 314.334 286.914 C 307.147 286.622 298.569 286.476 289.259 286.7 C 258.856 287.445 220.66 292.245 197.685 309.508 C 194.797 311.681 191.385 312.756 187.933 312.576 C 187.68 312.559 187.433 312.543 187.178 312.516 C 183.6 312.141 180.23 310.427 177.584 307.638 C 164.927 294.353 135.899 278.265 69.452 277.134 C 69.176 277.134 68.908 277.116 68.638 277.099 C 59.587 276.447 52.713 267.493 53.291 257.111 L 59.821 138.218 L 60.8 120.399 L 62.519 89.225 C 62.879 82.71 67.588 77.634 73.278 77.629 L 73.345 77.629 L 112.932 77.894 C 129.608 78.76 143.421 81.197 154.37 85.206 C 158.11 86.536 161.747 88.216 165.249 90.228 C 170.031 92.887 174.327 96.567 177.906 101.071 C 180.136 103.948 183.179 105.833 186.498 106.394 C 187.014 106.482 187.532 106.536 188.053 106.556 C 191.116 106.702 194.137 105.709 196.668 103.728 C 222.529 83.852 275.227 82.343 304.33 83.2 C 312.764 83.426 319.668 90.957 320.29 100.608 L 321.47 118.343 L 322.643 136.025 L 329.413 238.22 L 331.295 266.652 C 331.341 267.358 331.354 268.068 331.333 268.776 Z" fill="#f2f2f2" style=""/>
  <path d="M 79.3 119.465 C 103.157 110.734 129.77 113.046 152.369 125.345 C 158.817 128.837 164.908 133.14 170.528 138.174 C 172.117 139.605 174.38 137.046 172.773 135.599 C 152.015 117.13 125.933 108.357 99.77 111.041 C 92.53 111.784 85.383 113.43 78.456 115.953 C 76.517 116.662 77.347 120.18 79.3 119.465 Z" style="fill: rgb(91, 57, 125);"/>
  <path d="M 210.569 139.587 C 232.749 126.214 259.308 123.298 283.422 130.888 C 290.298 133.048 296.941 136.079 303.232 139.924 C 305.034 141.028 306.639 137.885 304.834 136.781 C 281.851 122.712 254.262 119.473 229.164 127.314 C 222.162 129.506 215.39 132.566 208.967 136.442 C 207.157 137.533 208.76 140.679 210.569 139.587 Z" style="fill: rgb(91, 57, 125);"/>
  <path d="M 210.569 163.868 C 232.749 150.495 259.308 147.579 283.422 155.171 C 290.298 157.33 296.941 160.36 303.232 164.206 C 305.034 165.309 306.639 162.165 304.834 161.061 C 281.851 146.991 254.262 143.753 229.164 151.597 C 222.162 153.788 215.39 156.847 208.967 160.724 C 207.157 161.814 208.76 164.959 210.569 163.868 Z" style="fill: rgb(91, 57, 125);"/>
  <path d="M 305.61 186.846 C 305.645 186.207 305.335 185.608 304.829 185.337 C 286.416 174.277 265.541 169.792 244.889 172.459 C 244.759 172.469 244.64 172.493 244.5 172.505 L 244.494 172.505 C 244.368 172.518 244.241 172.54 244.117 172.57 C 231.832 174.192 219.916 178.405 208.968 184.999 C 208.483 185.331 208.184 185.931 208.185 186.578 L 208.185 231.874 C 208.202 233.068 209.189 233.927 210.195 233.623 C 210.682 233.462 211.17 233.307 211.667 233.159 C 222.735 229.722 234.097 227.683 245.552 227.078 C 245.795 227.067 246.038 227.054 246.292 227.043 C 255.621 226.583 264.969 226.97 274.245 228.195 C 274.439 228.208 274.632 228.232 274.825 228.268 C 275.302 228.326 275.787 228.392 276.265 228.463 C 276.457 228.487 276.639 228.511 276.814 228.547 C 278.669 228.814 280.509 229.116 282.353 229.444 C 285.016 229.931 287.68 230.474 290.342 231.073 C 290.508 231.108 290.679 231.156 290.849 231.192 C 295.124 232.167 299.379 233.295 303.611 234.543 C 304.62 234.842 305.606 233.978 305.622 232.784 L 305.622 186.918 C 305.624 186.894 305.619 186.869 305.61 186.846 Z" style="fill: rgb(91, 57, 125);"/>
  <path d="M 247.376 174.928 C 246.213 174.273 244.881 174.14 243.636 174.55 C 242.527 175.028 241.628 175.996 241.145 177.239 C 240.712 178.418 240.437 179.664 240.324 180.937 C 240.259 181.436 240.254 182.068 240.693 182.301 C 241.017 182.436 241.381 182.354 241.635 182.087 C 241.862 181.832 242.048 181.533 242.187 181.205 C 243.734 178.443 246.404 176.779 249.266 176.79 L 250.437 177.325 C 249.517 176.374 248.486 175.567 247.376 174.928 Z" fill="#ff6582" style=""/>
  <path d="M 260.064 185.367 C 259.153 183.831 258.075 182.191 256.388 181.689 C 254.432 181.108 252.425 182.262 250.721 183.401 C 245.656 186.785 240.752 190.475 236.027 194.456 L 236.031 194.517 L 246.997 193.745 C 249.638 193.558 252.369 193.346 254.704 192.071 C 255.542 191.468 256.479 191.069 257.455 190.895 C 258.68 190.972 259.828 191.605 260.644 192.657 C 265.697 198.153 267.16 206.554 272.83 211.382 C 269.222 202.312 264.951 193.61 260.064 185.367 Z" fill="#fff" style=""/>
  <path d="M 246.294 227.042 C 246.04 227.054 245.797 227.067 245.554 227.078 C 243.787 226.35 241.977 225.706 240.145 225.147 C 238.96 224.783 237.753 224.456 236.547 224.177 C 235.182 223.837 233.806 223.57 232.431 223.339 C 229.811 222.903 227.171 222.648 224.525 222.575 C 224.414 222.588 224.332 222.46 224.377 222.343 C 224.403 222.279 224.463 222.24 224.525 222.248 C 224.863 222.248 225.202 222.258 225.53 222.284 C 228.182 222.395 230.825 222.692 233.447 223.169 C 234.811 223.424 236.177 223.728 237.531 224.067 C 238.76 224.384 239.987 224.735 241.192 225.124 C 242.918 225.682 244.619 226.321 246.294 227.042 Z" fill="#fff" style=""/>
  <path d="M 276.816 228.548 C 276.637 228.511 276.456 228.487 276.266 228.462 C 275.535 227.77 274.795 227.116 274.023 226.472 C 273.059 225.67 272.065 224.917 271.047 224.213 C 268.798 222.647 266.449 221.275 264.021 220.109 C 260.182 218.276 256.208 216.838 252.146 215.813 C 247.513 214.648 242.824 213.804 238.103 213.287 C 233.382 212.728 228.641 212.388 223.899 212.048 C 223.699 212.036 223.689 211.697 223.899 211.709 C 224.493 211.758 225.085 211.793 225.689 211.842 C 230.483 212.182 235.278 212.57 240.038 213.189 C 244.762 213.771 249.445 214.704 254.062 215.982 C 258.003 217.097 261.849 218.612 265.555 220.51 C 267.687 221.609 269.752 222.87 271.736 224.286 C 272.995 225.197 274.212 226.167 275.377 227.201 C 275.863 227.636 276.351 228.074 276.816 228.548 Z" fill="#fff" style=""/>
  <path d="M 274.826 228.269 C 274.633 228.232 274.44 228.208 274.245 228.195 C 274.023 227.99 273.789 227.795 273.556 227.6 C 271.928 226.262 270.227 225.043 268.465 223.947 C 266.866 222.948 265.224 222.046 263.544 221.238 C 259.707 219.399 255.733 217.962 251.671 216.941 C 247.037 215.777 242.348 214.934 237.626 214.416 C 232.906 213.858 228.166 213.517 223.425 213.177 C 223.223 213.153 223.223 212.825 223.425 212.838 C 224.027 212.886 224.619 212.923 225.212 212.971 C 230.007 213.311 234.801 213.7 239.564 214.319 C 244.285 214.899 248.97 215.831 253.586 217.111 C 257.528 218.223 261.374 219.739 265.079 221.641 C 266.475 222.368 267.842 223.157 269.174 224.02 C 271.151 225.264 273.042 226.685 274.826 228.269 Z" fill="#fff" style=""/>
  <path d="M 290.849 231.195 C 290.681 231.158 290.511 231.11 290.341 231.073 C 290.151 230.842 289.972 230.599 289.791 230.356 C 288.882 229.154 287.982 227.941 287.092 226.714 C 283.589 221.93 280.266 217.002 277.134 211.976 C 274.446 207.678 271.895 203.294 269.483 198.827 C 268.328 196.716 267.217 194.577 266.127 192.417 C 265.281 190.742 264.455 189.063 263.651 187.379 C 263.417 186.894 263.195 186.407 262.974 185.922 C 262.454 184.781 261.936 183.628 261.386 182.498 C 260.788 181.116 259.909 179.917 258.825 179.001 C 258.282 178.585 257.654 178.339 257.004 178.286 C 256.087 178.29 255.185 178.557 254.379 179.063 C 248.458 182.226 242.872 186.156 237.733 190.779 C 232.712 195.259 228.17 200.405 224.208 206.112 C 224.08 206.282 223.804 206.124 223.921 205.941 C 224.398 205.262 224.884 204.583 225.371 203.914 C 229.18 198.744 233.471 194.067 238.165 189.965 C 238.176 189.952 238.198 189.94 238.209 189.929 C 238.621 189.553 239.033 189.189 239.456 188.836 C 242.078 186.621 244.807 184.579 247.628 182.717 C 249.067 181.757 250.538 180.848 252.041 179.985 C 252.411 179.768 252.792 179.549 253.173 179.343 C 253.554 179.124 253.935 178.917 254.317 178.71 C 255.07 178.269 255.895 178.01 256.739 177.946 C 259.682 177.897 261.194 181.296 262.243 183.59 C 262.571 184.308 262.91 185.024 263.238 185.741 C 264.507 188.447 265.83 191.143 267.207 193.802 C 268.042 195.452 268.911 197.092 269.788 198.719 C 271.047 201.037 272.339 203.332 273.683 205.613 C 273.683 205.621 273.687 205.626 273.693 205.626 C 275.249 208.322 276.869 210.968 278.542 213.603 C 281.409 218.107 284.415 222.51 287.558 226.811 C 288.638 228.292 289.736 229.753 290.849 231.195 Z" fill="#fff" style=""/>
  <path d="M 253.092 177.575 L 252.799 177.723 C 251.438 175.084 249.015 173.403 246.346 173.241 C 242.013 172.887 238.207 176.2 237.861 180.624 C 237.721 182.447 238.18 184.262 239.15 185.714 L 238.878 185.899 C 237.869 184.387 237.39 182.494 237.536 180.597 C 237.896 175.991 241.86 172.542 246.372 172.91 C 249.151 173.078 251.674 174.829 253.092 177.575 Z" fill="#ff6582" style=""/>
  <path d="M 231.681 186.527 C 229.375 185.377 226.727 185.57 224.565 187.046 C 228.455 187.731 232.309 188.65 236.112 189.798 C 234.539 188.855 233.306 187.379 231.681 186.527 Z" fill="#fff" style=""/>
  <path d="M 224.543 187.042 L 224.115 187.398 C 224.26 187.273 224.41 187.157 224.565 187.046 L 224.543 187.042 Z" fill="#fff" style=""/>
  <path d="M 237.439 189.102 C 237.268 188.91 237.098 188.716 236.928 188.52 C 235.609 186.877 234.023 185.544 232.258 184.602 C 231.359 184.167 230.395 183.939 229.42 183.93 C 228.413 183.956 227.417 184.18 226.475 184.587 C 226.029 184.767 225.596 184.972 225.169 185.191 C 224.681 185.441 224.201 185.709 223.724 185.979 C 222.828 186.485 221.944 187.015 221.07 187.565 C 219.335 188.661 217.653 189.84 216.025 191.103 C 215.181 191.759 214.354 192.435 213.546 193.132 C 212.793 193.781 212.057 194.446 211.335 195.13 C 211.179 195.275 210.948 195.04 211.104 194.895 C 211.294 194.712 211.487 194.534 211.679 194.356 C 212.223 193.854 212.775 193.363 213.335 192.88 C 214.359 191.998 215.408 191.15 216.484 190.337 C 218.158 189.072 219.889 187.892 221.677 186.798 C 222.572 186.251 223.477 185.728 224.396 185.227 C 224.674 185.076 224.954 184.929 225.237 184.789 C 225.886 184.456 226.554 184.179 227.239 183.957 C 228.218 183.634 229.245 183.532 230.26 183.655 C 231.231 183.797 232.174 184.13 233.047 184.64 C 234.778 185.751 236.34 187.179 237.669 188.868 C 237.808 189.027 237.579 189.264 237.439 189.102 Z" fill="#fff" style=""/>
  <path d="M 79.3 143.746 C 103.157 135.015 129.77 137.326 152.369 149.627 C 158.817 153.118 164.908 157.421 170.528 162.455 C 172.117 163.887 174.38 161.326 172.773 159.88 C 152.015 141.412 125.933 132.638 99.77 135.322 C 92.53 136.065 85.383 137.712 78.456 140.233 C 76.517 140.943 77.347 144.461 79.3 143.746 Z" style="fill: rgb(91, 57, 125);"/>
  <path d="M 79.3 168.026 C 103.157 159.295 129.77 161.608 152.369 173.907 C 158.817 177.398 164.908 181.701 170.528 186.737 C 172.117 188.168 174.38 185.608 172.773 184.161 C 152.015 165.692 125.933 156.919 99.77 159.602 C 92.53 160.346 85.383 161.993 78.456 164.515 C 76.517 165.225 77.347 168.741 79.3 168.026 Z" style="fill: rgb(91, 57, 125);"/>
  <path d="M 79.3 192.307 C 103.157 183.577 129.77 185.888 152.369 198.188 C 158.817 201.679 164.908 205.981 170.528 211.018 C 172.117 212.448 174.38 209.888 172.773 208.442 C 152.015 189.973 125.933 181.198 99.77 183.883 C 92.53 184.627 85.383 186.273 78.456 188.796 C 76.517 189.506 77.347 193.023 79.3 192.307 Z" style="fill: rgb(91, 57, 125);"/>
  <path d="M 79.3 216.59 C 103.157 207.858 129.77 210.168 152.369 222.469 C 158.817 225.961 164.908 230.264 170.528 235.299 C 172.117 236.73 174.38 234.169 172.773 232.722 C 152.015 214.254 125.933 205.481 99.77 208.166 C 92.53 208.907 85.383 210.555 78.456 213.076 C 76.517 213.786 77.347 217.304 79.3 216.589 L 79.3 216.59 Z" style="fill: rgb(91, 57, 125);"/>
  <path d="M 79.3 240.869 C 103.157 232.138 129.77 234.45 152.369 246.751 C 158.817 250.242 164.908 254.545 170.528 259.579 C 172.117 261.01 174.38 258.45 172.773 257.005 C 152.015 238.534 125.933 229.761 99.77 232.446 C 92.53 233.189 85.383 234.836 78.456 237.357 C 76.517 238.066 77.347 241.584 79.3 240.869 Z" style="fill: rgb(91, 57, 125);"/>
  <path d="M 165.249 90.228 L 165.249 148.454 C 165.249 149.61 163.485 150.579 161.11 150.845 C 161.09 150.843 161.068 150.846 161.051 150.853 C 160.654 150.887 160.235 150.913 159.808 150.913 C 158.5 150.942 157.197 150.696 155.961 150.193 C 155.849 150.141 155.738 150.082 155.625 150.03 C 155.521 149.962 155.409 149.901 155.304 149.834 C 154.714 149.43 154.37 148.959 154.37 148.454 L 154.37 85.206 C 158.11 86.536 161.747 88.216 165.249 90.228 Z" style="fill: rgb(2, 226, 242);"/>
  <rect x="186.497" y="103.733" width="1.553" height="207.626" fill="#e6e6e6" style=""/>
  <path d="M 357.081 245.868 C 361.775 245.374 364.941 240.135 363.693 234.921 L 395.954 217.645 L 415.378 181.603 L 400.111 174.533 L 387.008 203.576 L 353.844 228.926 C 348.308 231.13 346.927 239.383 351.359 243.781 C 352.937 245.347 355.004 246.101 357.081 245.868 Z" fill="#ffb6b6" style=""/>
  <path d="M 427.359 147.077 C 427.359 147.077 431.16 148.501 426.987 156.961 C 423.646 163.732 407.371 202.747 400.73 210.407 C 402.167 213.05 401.862 216.473 399.987 218.727 L 384.654 204.768 C 384.361 199.691 387.289 199.187 389.025 199.359 L 392.553 185.015 L 404.856 149.635 L 424.626 145.991 L 427.359 147.077 Z" style="fill: rgb(2, 226, 242);"/>
  <path d="M 427.69 80.761 C 428.414 77.399 433.674 74.916 424.664 70.221 C 422.477 69.082 422.568 65.157 420.718 63.402 C 418.869 61.645 416.159 60.83 414.011 62.058 C 412.091 63.154 411.01 65.637 410.778 68.083 C 410.668 70.543 410.915 73.009 411.511 75.377 L 411.337 75.671 C 414.905 78.804 418.475 81.936 422.043 85.069 C 423.356 86.22 425.07 87.426 426.539 86.562 C 428.204 85.584 427.241 82.844 427.69 80.761 Z" style="fill: rgb(242, 242, 242);"/>
</svg>