<?xml version="1.0" encoding="utf-8"?>
<svg viewBox="0 0 300 300" xmlns="http://www.w3.org/2000/svg" xmlns:bx="https://boxy-svg.com">
  <defs>
    <bx:grid x="0" y="0" width="71.427" height="67.315"/>
  </defs>
  <path d="M 333.255 336.339 L 333.255 246.682 C 333.255 246.501 333.457 246.388 333.62 246.478 C 333.694 246.52 333.742 246.598 333.742 246.682 L 333.742 336.339 C 333.742 336.521 333.538 336.634 333.377 336.542 C 333.299 336.501 333.255 336.424 333.255 336.339 Z" fill="#f0f0f0" style=""/>
  <circle cx="778.47998" cy="480" r="16" fill="#f0f0f0" transform="matrix(0.253937, 0, 0, 0.245689, 132.832489, 214.713196)" style=""/>
  <path d="M -878.127 796.747 C -878.126 796.922 -878.271 797.063 -878.45 797.063 L -1001.62 797.063 C -1001.869 797.063 -1002.025 796.8 -1001.9 796.59 C -1001.843 796.492 -1001.736 796.432 -1001.62 796.432 L -878.45 796.432 C -878.271 796.432 -878.126 796.573 -878.127 796.747 Z" fill="#cacaca" style=""/>
  <path d="M 70.812 155.283 C 58.017 142.425 52.614 129.014 55.597 117.517 C 59.423 102.763 76.422 92.56 102.235 89.529 L 102.332 90.374 C 76.877 93.364 60.136 103.337 56.403 117.735 C 53.501 128.923 58.826 142.044 71.397 154.675 L 70.812 155.283 Z" fill="#f0f0f0" style=""/>
  <path d="M 194.251 200.917 C 178.284 200.917 160.932 198.495 143.697 193.838 C 122.383 188.078 102.841 179.384 87.183 168.696 L 87.647 167.99 C 103.229 178.625 122.685 187.279 143.911 193.013 C 163.092 198.198 182.416 200.6 199.789 199.965 L 199.818 200.818 C 197.984 200.884 196.128 200.917 194.251 200.917 Z" fill="#f0f0f0" style=""/>
  <path d="M 230.883 195.561 L 230.615 194.754 C 244.896 189.826 253.828 181.887 256.447 171.793 C 259.773 158.963 252.545 144.074 236.091 129.87 C 219.553 115.593 195.705 103.747 168.938 96.513 L 169.152 95.691 C 196.035 102.954 220 114.863 236.629 129.22 C 253.343 143.648 260.668 158.845 257.253 172.011 C 254.56 182.393 245.441 190.537 230.883 195.561 Z" fill="#f0f0f0" style=""/>
  <path d="M 99.752 201.274 C 68.377 187.07 44.199 168.641 31.674 149.383 L 32.369 148.912 C 44.808 168.037 68.858 186.355 100.09 200.494 L 99.752 201.274 Z" fill="#f0f0f0" style=""/>
  <path d="M 210.065 225.881 C 206.829 225.881 203.537 225.808 200.19 225.66 L 200.227 224.809 C 225.202 225.911 247.238 222.861 263.958 215.985 L 264.27 216.774 C 249.685 222.773 231.096 225.881 210.065 225.881 Z" fill="#f0f0f0" style=""/>
  <path d="M 191.861 90.293 C 186.675 88.569 181.341 86.964 176.007 85.522 C 145.311 77.228 115.137 74.283 88.745 77.007 L 88.661 76.16 C 115.151 73.427 145.428 76.379 176.22 84.7 C 181.57 86.145 186.918 87.753 192.119 89.482 L 191.861 90.293 Z" fill="#f0f0f0" style=""/>
  <path d="M 51.203 156.559 C 38.409 143.703 33.005 130.292 35.987 118.793 C 39.814 104.04 56.814 93.838 82.627 90.806 L 82.723 91.652 C 57.268 94.642 40.528 104.615 36.795 119.013 C 33.893 130.202 39.218 143.32 51.789 155.953 L 51.203 156.559 Z" fill="#f0f0f0" style=""/>
  <path d="M 174.642 202.194 C 158.675 202.194 141.324 199.773 124.088 195.115 C 102.774 189.355 83.233 180.662 67.574 169.974 L 68.038 169.267 C 83.621 179.902 103.076 188.556 124.302 194.292 C 143.483 199.475 162.807 201.877 180.18 201.243 L 180.21 202.094 C 178.375 202.161 176.52 202.195 174.642 202.194 Z" fill="#f0f0f0" style=""/>
  <path d="M 211.274 196.838 L 211.007 196.032 C 225.288 191.104 234.22 183.164 236.838 173.071 C 240.165 160.239 232.936 145.352 216.482 131.147 C 199.944 116.871 176.096 105.024 149.33 97.791 L 149.544 96.968 C 176.426 104.232 200.391 116.14 217.021 130.497 C 233.735 144.926 241.058 160.123 237.645 173.289 C 234.952 183.672 225.833 191.813 211.274 196.838 Z" style="" fill="#f0f0f0"/>
  <path d="M 80.143 202.551 C 48.767 188.348 24.591 169.919 12.066 150.66 L 12.761 150.191 C 25.199 169.314 49.25 187.633 80.481 201.772 L 80.143 202.551 Z" fill="#f0f0f0" style=""/>
  <path d="M 190.457 227.159 C 187.22 227.159 183.929 227.085 180.582 226.938 L 180.617 226.087 C 205.593 227.189 227.63 224.14 244.349 217.261 L 244.661 218.051 C 230.077 224.05 211.487 227.159 190.457 227.159 Z" fill="#f0f0f0" style=""/>
  <path d="M 172.252 91.569 C 167.065 89.847 161.732 88.241 156.398 86.8 C 125.702 78.505 95.529 75.561 69.136 78.285 L 69.052 77.437 C 95.543 74.704 125.82 77.656 156.611 85.976 C 161.96 87.422 167.31 89.031 172.51 90.761 L 172.252 91.569 Z" fill="#f0f0f0" style=""/>
  <path d="M 26.288 133.747 C 32.284 126.883 41.849 122.701 50.518 125.205 C 42.521 130.982 36.784 139.459 34.321 149.139 C 33.384 152.874 32.724 157.129 29.679 159.413 C 27.786 160.834 25.277 161.174 22.946 160.85 C 20.617 160.527 18.414 159.601 16.242 158.686 L 15.657 158.737 C 17.338 149.703 20.292 140.61 26.288 133.747 Z" fill="#f2f2f2" style=""/>
  <path d="M 50.491 125.396 C 43.244 127.187 36.734 131.264 31.886 137.046 C 30.82 138.272 29.951 139.661 29.309 141.164 C 28.731 142.649 28.553 144.264 28.793 145.842 C 28.987 147.318 29.354 148.804 29.194 150.304 C 29.004 151.853 28.178 153.247 26.919 154.133 C 25.397 155.27 23.566 155.777 21.759 156.211 C 19.752 156.694 17.661 157.161 16.025 158.523 C 15.827 158.687 15.588 158.363 15.786 158.2 C 18.632 155.831 22.586 156.135 25.736 154.414 C 27.204 153.612 28.446 152.353 28.747 150.625 C 29.011 149.113 28.635 147.58 28.425 146.086 C 28.169 144.549 28.285 142.973 28.764 141.493 C 29.328 139.962 30.143 138.541 31.175 137.29 C 33.454 134.433 36.159 131.963 39.188 129.964 C 42.635 127.665 46.442 125.982 50.444 124.994 C 50.692 124.932 50.737 125.335 50.491 125.396 Z" fill="#fff" style=""/>
  <path d="M 33.34 135.091 C 31.604 133.103 31.535 130.126 33.175 128.058 C 33.337 127.855 33.652 128.102 33.491 128.305 C 31.959 130.229 32.029 133.005 33.656 134.847 C 33.827 135.04 33.509 135.283 33.34 135.091 Z" fill="#fff" style=""/>
  <path d="M 28.597 145.107 C 31.172 145.282 33.717 144.458 35.724 142.802 C 35.924 142.639 36.163 142.961 35.964 143.126 C 33.872 144.846 31.222 145.696 28.542 145.508 C 28.287 145.49 28.343 145.088 28.597 145.107 Z" fill="#fff" style=""/>
  <path d="M 42.724 128.194 C 43.231 129.09 44.144 129.667 45.155 129.728 C 45.412 129.743 45.355 130.146 45.102 130.131 C 43.984 130.057 42.974 129.422 42.407 128.439 C 42.345 128.347 42.362 128.224 42.446 128.154 C 42.534 128.087 42.657 128.106 42.724 128.194 Z" fill="#fff" style=""/>
  <path d="M 62.822 153.694 C 62.662 153.689 62.502 153.684 62.34 153.682 C 60.192 153.633 58.043 153.76 55.915 154.065 C 55.75 154.086 55.583 154.109 55.419 154.135 C 50.3 154.926 45.369 156.68 40.877 159.308 C 39.09 160.356 37.384 161.54 35.774 162.85 C 33.55 164.663 31.279 166.808 28.676 167.735 C 28.405 167.836 28.129 167.919 27.849 167.984 L 15.764 159.462 C 15.746 159.428 15.727 159.398 15.709 159.363 L 15.211 159.046 C 15.289 158.972 15.372 158.898 15.45 158.825 C 15.496 158.782 15.544 158.74 15.589 158.698 C 15.621 158.669 15.651 158.643 15.677 158.614 C 15.688 158.605 15.699 158.596 15.708 158.588 C 15.734 158.564 15.761 158.541 15.786 158.516 C 16.248 158.098 16.713 157.683 17.183 157.269 C 17.186 157.267 17.186 157.267 17.19 157.265 C 20.776 154.128 24.65 151.268 28.827 149.1 C 28.953 149.035 29.079 148.966 29.21 148.905 C 31.098 147.939 33.06 147.132 35.077 146.491 C 36.182 146.144 37.304 145.854 38.438 145.623 C 41.369 145.031 44.374 144.912 47.341 145.274 C 53.256 145.996 58.878 148.639 62.545 153.332 C 62.638 153.453 62.729 153.571 62.822 153.694 Z" fill="#f2f2f2" style=""/>
  <path d="M 62.689 153.831 C 55.846 150.806 48.244 150.06 40.962 151.7 C 39.388 152.023 37.874 152.599 36.476 153.404 C 35.139 154.233 34.044 155.413 33.304 156.82 C 32.589 158.119 32.005 159.531 30.993 160.63 C 29.928 161.75 28.445 162.355 26.918 162.29 C 25.033 162.261 23.271 161.542 21.572 160.777 C 19.685 159.929 17.74 159.018 15.631 159.099 C 15.375 159.108 15.375 158.704 15.63 158.693 C 19.299 158.551 22.278 161.225 25.806 161.788 C 27.453 162.048 29.188 161.806 30.448 160.611 C 31.55 159.566 32.153 158.11 32.867 156.789 C 33.567 155.405 34.591 154.219 35.847 153.331 C 37.199 152.455 38.689 151.821 40.251 151.456 C 43.754 150.577 47.372 150.265 50.97 150.532 C 55.079 150.814 59.109 151.811 62.889 153.48 C 63.123 153.584 62.921 153.934 62.689 153.831 Z" fill="#fff" style=""/>
  <path d="M 43.276 151.031 C 43.063 148.378 44.763 145.958 47.294 145.315 C 47.542 145.253 47.647 145.643 47.399 145.704 C 45.042 146.3 43.46 148.56 43.672 151.03 C 43.696 151.29 43.298 151.289 43.276 151.031 Z" fill="#fff" style=""/>
  <path d="M 33.582 156.114 C 35.535 157.835 38.052 158.743 40.632 158.654 C 40.887 158.646 40.887 159.05 40.632 159.06 C 37.947 159.146 35.33 158.197 33.301 156.4 C 33.108 156.228 33.389 155.942 33.582 156.114 Z" fill="#fff" style=""/>
  <path d="M 54.838 151.291 C 54.712 152.318 55.101 153.34 55.873 154.012 C 56.069 154.18 55.787 154.467 55.593 154.299 C 54.745 153.554 54.312 152.426 54.44 151.292 C 54.444 151.181 54.53 151.093 54.638 151.09 C 54.748 151.091 54.837 151.18 54.838 151.291 Z" fill="#fff" style=""/>
  <path d="M 261.242 190.001 C 257.854 181.481 250.222 174.261 241.234 173.645 C 246.863 181.83 249.475 191.782 248.608 201.741 C 248.26 205.582 247.481 209.816 249.595 213.012 C 250.911 215 253.163 216.181 255.463 216.676 C 257.765 217.17 260.143 217.055 262.491 216.937 L 263.025 217.186 C 264.415 208.101 264.629 198.522 261.242 190.001 Z" fill="#f2f2f2" style=""/>
  <path d="M 241.196 173.835 C 247.432 178.008 252.221 184.08 254.883 191.191 C 255.482 192.709 255.843 194.316 255.953 195.951 C 256.009 197.548 255.646 199.13 254.9 200.535 C 254.23 201.858 253.396 203.132 253.053 204.599 C 252.72 206.125 253.04 207.72 253.934 208.988 C 254.993 210.578 256.551 211.686 258.11 212.715 C 259.841 213.856 261.657 215.014 262.749 216.858 C 262.882 217.081 263.213 216.858 263.081 216.634 C 261.181 213.428 257.356 212.358 254.957 209.659 C 253.837 208.397 253.083 206.785 253.367 205.054 C 253.617 203.54 254.477 202.225 255.166 200.891 C 255.913 199.532 256.322 198.006 256.359 196.448 C 256.331 194.813 256.031 193.195 255.472 191.662 C 254.267 188.192 252.533 184.935 250.336 182.013 C 247.848 178.665 244.816 175.776 241.372 173.471 C 241.16 173.328 240.984 173.693 241.196 173.835 Z" fill="#fff" style=""/>
  <path d="M 254.158 188.848 C 256.446 187.573 257.491 184.792 256.628 182.282 C 256.543 182.036 256.164 182.159 256.249 182.406 C 257.059 184.743 256.079 187.335 253.94 188.51 C 253.715 188.635 253.935 188.972 254.158 188.848 Z" fill="#fff" style=""/>
  <path d="M 255.325 199.909 C 252.843 199.19 250.717 197.542 249.371 195.295 C 249.239 195.072 248.907 195.295 249.04 195.516 C 250.444 197.854 252.66 199.565 255.245 200.306 C 255.492 200.377 255.571 199.98 255.325 199.909 Z" fill="#fff" style=""/>
  <path d="M 247.59 179.133 C 246.818 179.804 245.767 180.035 244.794 179.746 C 244.548 179.671 244.47 180.068 244.713 180.141 C 245.79 180.456 246.949 180.204 247.808 179.472 C 247.896 179.408 247.921 179.286 247.864 179.192 C 247.803 179.099 247.681 179.073 247.59 179.133 Z" fill="#fff" style=""/>
  <path d="M 220.265 196.254 C 220.417 196.305 220.569 196.355 220.722 196.409 C 222.762 197.1 224.744 197.957 226.648 198.973 C 226.795 199.05 226.945 199.129 227.091 199.21 C 231.652 201.712 235.719 205.054 239.084 209.07 C 240.422 210.67 241.639 212.371 242.724 214.159 C 244.222 216.627 245.655 219.428 247.801 221.195 C 248.023 221.382 248.256 221.556 248.499 221.712 L 262.685 217.832 C 262.714 217.807 262.742 217.784 262.77 217.758 L 263.344 217.63 C 263.294 217.535 263.24 217.436 263.191 217.34 C 263.162 217.283 263.131 217.227 263.103 217.172 C 263.081 217.136 263.062 217.099 263.046 217.064 C 263.04 217.052 263.033 217.039 263.027 217.03 C 263.01 216.996 262.991 216.965 262.977 216.934 C 262.679 216.382 262.377 215.83 262.07 215.28 C 262.07 215.276 262.07 215.276 262.066 215.275 C 259.723 211.088 257.015 207.066 253.795 203.592 C 253.699 203.487 253.6 203.38 253.498 203.276 C 252.038 201.718 250.456 200.284 248.768 198.989 C 247.841 198.283 246.88 197.625 245.888 197.019 C 243.322 195.455 240.531 194.315 237.618 193.637 C 231.809 192.286 225.643 192.846 220.645 196.009 C 220.517 196.09 220.392 196.17 220.265 196.254 Z" fill="#f2f2f2" style=""/>
  <path d="M 220.345 196.429 C 227.786 195.929 235.192 197.836 241.51 201.876 C 242.886 202.721 244.121 203.781 245.174 205.021 C 246.161 206.261 246.804 207.747 247.037 209.327 C 247.282 210.795 247.368 212.326 247.958 213.707 C 248.593 215.128 249.789 216.206 251.25 216.67 C 253.034 217.288 254.93 217.216 256.782 217.078 C 258.838 216.926 260.971 216.735 262.931 217.536 C 263.168 217.633 263.302 217.25 263.064 217.155 C 259.656 215.761 255.971 217.258 252.462 216.576 C 250.825 216.258 249.271 215.433 248.478 213.877 C 247.784 212.514 247.695 210.938 247.458 209.447 C 247.252 207.904 246.681 206.435 245.791 205.168 C 244.804 203.88 243.61 202.771 242.26 201.891 C 239.249 199.862 235.945 198.326 232.468 197.343 C 228.506 196.2 224.382 195.755 220.272 196.031 C 220.018 196.048 220.093 196.447 220.345 196.429 Z" fill="#fff" style=""/>
  <path d="M 239.55 200.454 C 240.625 198.028 239.82 195.164 237.649 193.691 C 237.435 193.546 237.207 193.879 237.42 194.022 C 239.446 195.39 240.19 198.062 239.176 200.316 C 239.07 200.553 239.445 200.688 239.55 200.454 Z" fill="#fff" style=""/>
  <path d="M 247.007 208.565 C 244.601 209.516 241.931 209.508 239.531 208.54 C 239.293 208.444 239.159 208.826 239.397 208.921 C 241.897 209.924 244.675 209.927 247.177 208.931 C 247.416 208.837 247.244 208.471 247.007 208.565 Z" fill="#fff" style=""/>
  <path d="M 228.575 196.732 C 228.355 197.742 227.651 198.571 226.704 198.938 C 226.464 199.03 226.636 199.395 226.873 199.305 C 227.919 198.894 228.696 197.981 228.95 196.869 C 228.982 196.763 228.931 196.651 228.829 196.609 C 228.726 196.573 228.613 196.627 228.575 196.732 Z" fill="#fff" style=""/>
  <circle cx="524.6825" cy="583.33993" r="9.54602" fill="#fd6584" transform="matrix(0.349639, 0, 0, 0.356898, 12.065978, 7.416022)" style=""/>
  <circle cx="558.49624" cy="420.74992" r="9.54602" transform="matrix(0.349639, 0, 0, 0.356898, 12.065978, 7.416022)" style="fill: rgb(253, 101, 132);"/>
  <circle cx="380.86745" cy="155.96167" r="9.54602" transform="matrix(0.349639, 0, 0, 0.356898, 12.065978, 7.416022)" style="fill: rgb(253, 101, 132);"/>
  <path d="M 75.29 193.769 C 75.29 194.634 75.318 195.503 75.377 196.363 C 75.44 197.391 75.548 198.412 75.695 199.425 C 76.188 202.838 77.131 206.166 78.499 209.322 C 78.57 209.479 78.638 209.636 78.709 209.793 L 78.814 210.029 C 78.848 210.107 78.887 210.186 78.922 210.261 C 78.971 210.363 79.016 210.464 79.066 210.564 C 79.126 210.689 79.184 210.814 79.247 210.938 C 79.254 210.954 79.261 210.97 79.273 210.989 C 79.324 211.096 79.374 211.198 79.43 211.306 C 79.44 211.329 79.452 211.352 79.464 211.375 C 79.524 211.495 79.587 211.62 79.649 211.742 C 79.719 211.871 79.786 212.002 79.856 212.132 C 80.023 212.448 80.198 212.762 80.377 213.077 C 80.429 213.169 80.481 213.261 80.538 213.355 C 80.586 213.441 80.636 213.526 80.688 213.612 C 80.723 213.669 80.757 213.729 80.793 213.786 C 80.849 213.883 80.904 213.977 80.964 214.073 C 81.094 214.282 81.226 214.494 81.356 214.704 L 81.359 214.704 C 81.419 214.801 81.482 214.896 81.545 214.989 L 81.545 214.993 C 81.73 215.277 81.922 215.565 82.114 215.846 C 82.117 215.846 82.118 215.848 82.118 215.849 C 82.272 216.078 82.433 216.299 82.59 216.521 L 82.59 216.524 C 82.694 216.664 82.796 216.805 82.901 216.944 C 82.985 217.061 83.072 217.178 83.16 217.291 C 83.177 217.316 83.199 217.338 83.216 217.363 L 83.216 217.366 C 83.24 217.399 83.264 217.427 83.29 217.459 C 83.661 217.945 84.042 218.419 84.435 218.883 L 84.499 218.957 C 84.519 218.983 84.545 219.009 84.565 219.036 C 84.601 219.076 84.632 219.115 84.666 219.155 C 84.699 219.194 84.733 219.234 84.768 219.272 C 86.822 221.634 89.15 223.729 91.701 225.514 C 92.04 225.753 92.387 225.985 92.732 226.209 C 92.82 226.268 92.907 226.325 92.996 226.378 C 93.02 226.396 93.047 226.414 93.073 226.431 C 93.121 226.46 93.167 226.488 93.215 226.52 C 93.261 226.549 93.307 226.578 93.355 226.606 C 93.541 226.724 93.729 226.838 93.918 226.952 C 93.964 226.981 94.013 227.009 94.061 227.039 C 94.107 227.063 94.156 227.092 94.205 227.12 C 94.205 227.124 94.205 227.124 94.208 227.124 L 94.212 227.124 L 94.212 227.126 L 94.215 227.126 C 94.449 227.266 94.687 227.402 94.928 227.535 C 95.058 227.606 95.192 227.68 95.323 227.749 C 95.625 227.916 95.929 228.077 96.233 228.231 C 96.341 228.284 96.454 228.337 96.561 228.395 C 96.652 228.438 96.743 228.484 96.834 228.526 C 96.862 228.54 96.887 228.552 96.912 228.566 C 96.989 228.601 97.061 228.637 97.138 228.673 C 97.223 228.713 97.307 228.752 97.387 228.791 C 97.481 228.832 97.572 228.876 97.666 228.915 C 98.016 229.076 98.369 229.23 98.723 229.376 C 99.988 229.906 101.281 230.364 102.596 230.746 C 102.656 230.763 102.719 230.781 102.781 230.801 C 103.345 230.96 103.911 231.107 104.481 231.239 C 105.478 231.474 106.483 231.668 107.499 231.816 L 107.506 231.816 C 107.628 231.835 107.747 231.853 107.868 231.871 C 107.879 231.871 107.89 231.875 107.904 231.875 C 107.904 231.878 107.904 231.878 107.907 231.875 C 108.041 231.892 108.176 231.91 108.31 231.928 C 108.319 231.931 108.328 231.932 108.337 231.932 C 108.463 231.949 108.593 231.963 108.718 231.977 C 108.855 231.993 108.992 232.007 109.127 232.02 C 109.232 232.032 109.337 232.041 109.442 232.053 C 109.452 232.056 109.461 232.057 109.471 232.056 C 109.564 232.064 109.659 232.074 109.753 232.08 L 109.768 232.08 C 109.848 232.089 109.932 232.096 110.013 232.104 C 110.987 232.181 111.967 232.216 112.959 232.216 C 114.033 232.216 115.1 232.175 116.152 232.08 L 116.162 232.08 C 116.39 232.059 116.614 232.038 116.837 232.017 C 116.896 232.01 116.952 232.007 117.012 231.999 C 117.022 231.999 117.036 231.994 117.047 231.994 C 117.065 231.993 117.082 231.993 117.103 231.988 C 117.112 231.989 117.122 231.987 117.131 231.985 C 117.207 231.977 117.284 231.967 117.364 231.959 L 117.628 231.928 C 117.715 231.917 117.802 231.902 117.889 231.892 C 117.91 231.888 117.928 231.888 117.949 231.885 C 118.012 231.878 118.075 231.867 118.137 231.856 C 118.17 231.853 118.201 231.85 118.228 231.846 C 118.292 231.835 118.351 231.827 118.414 231.816 L 118.418 231.816 C 120.336 231.535 122.23 231.099 124.082 230.515 C 124.179 230.483 124.278 230.453 124.376 230.421 C 124.379 230.421 124.382 230.418 124.386 230.418 C 124.413 230.406 124.445 230.4 124.473 230.389 C 124.736 230.304 124.995 230.215 125.252 230.122 C 125.61 230.002 125.962 229.867 126.316 229.733 C 126.41 229.694 126.505 229.658 126.598 229.619 C 126.792 229.544 126.98 229.465 127.17 229.386 C 127.491 229.254 127.813 229.115 128.13 228.972 C 128.428 228.837 128.721 228.701 129.015 228.559 C 129.022 228.555 129.032 228.555 129.039 228.548 C 129.105 228.515 129.172 228.484 129.235 228.451 L 129.239 228.451 C 130.848 227.663 132.401 226.758 133.885 225.743 C 134.36 225.418 134.83 225.082 135.291 224.736 C 135.662 224.455 136.026 224.169 136.388 223.877 C 138.183 222.42 139.843 220.8 141.35 219.036 L 141.35 219.032 C 141.459 218.911 141.56 218.787 141.664 218.662 C 141.683 218.643 141.697 218.627 141.71 218.612 C 141.777 218.53 141.84 218.452 141.907 218.373 L 141.907 218.37 C 141.994 218.266 142.081 218.159 142.165 218.051 C 142.186 218.027 142.203 218.005 142.222 217.983 L 142.222 217.98 C 142.29 217.895 142.357 217.81 142.427 217.719 C 142.463 217.677 142.493 217.634 142.528 217.591 L 142.528 217.588 C 142.735 217.323 142.934 217.061 143.133 216.788 C 143.186 216.717 143.239 216.642 143.294 216.566 C 143.546 216.221 143.791 215.869 144.029 215.513 L 144.029 215.511 C 144.12 215.378 144.207 215.243 144.297 215.111 C 144.385 214.975 144.472 214.839 144.56 214.704 C 144.647 214.56 144.739 214.422 144.826 214.28 L 144.836 214.257 C 144.924 214.122 145.011 213.98 145.095 213.841 C 145.161 213.726 145.228 213.616 145.294 213.504 C 145.336 213.43 145.382 213.355 145.423 213.276 C 145.44 213.253 145.455 213.227 145.469 213.201 C 145.567 213.026 145.664 212.851 145.763 212.676 C 145.878 212.473 145.99 212.266 146.102 212.059 C 146.144 211.974 146.189 211.889 146.235 211.803 C 146.252 211.773 146.266 211.745 146.28 211.717 C 146.333 211.616 146.385 211.514 146.434 211.41 C 146.487 211.31 146.539 211.207 146.591 211.102 C 146.64 211.002 146.693 210.899 146.741 210.796 C 146.78 210.717 146.815 210.638 146.854 210.561 C 146.857 210.554 146.86 210.549 146.864 210.542 C 146.881 210.503 146.899 210.468 146.913 210.432 C 146.917 210.425 146.921 210.42 146.924 210.414 C 146.962 210.336 146.997 210.253 147.035 210.175 C 147.085 210.071 147.129 209.965 147.179 209.862 C 147.21 209.789 147.246 209.715 147.276 209.64 C 147.322 209.536 147.371 209.433 147.413 209.327 C 147.461 209.217 147.507 209.111 147.553 209 C 147.567 208.974 147.578 208.947 147.588 208.918 C 147.612 208.868 147.63 208.819 147.651 208.769 C 147.707 208.636 147.763 208.5 147.815 208.369 C 147.878 208.22 147.937 208.065 147.994 207.916 C 148.049 207.777 148.102 207.635 148.154 207.492 L 148.176 207.44 C 148.99 205.252 149.608 202.99 150.022 200.685 L 150.022 200.682 C 150.255 199.366 150.421 198.038 150.521 196.706 C 150.524 196.63 150.532 196.559 150.536 196.488 C 150.598 195.585 150.627 194.678 150.627 193.769 C 150.627 193.364 150.62 192.965 150.609 192.566 C 150.364 184.206 147.444 176.158 142.294 169.652 C 142.182 169.51 142.071 169.366 141.955 169.224 C 141.84 169.082 141.721 168.942 141.605 168.804 C 125.123 149.1 94.658 151.335 81.104 173.241 C 80.933 173.519 80.762 173.799 80.597 174.081 C 80.429 174.367 80.268 174.652 80.107 174.942 C 76.94 180.689 75.281 187.174 75.29 193.769 Z" fill="#f2f2f2" style=""/>
  <path d="M 111.462 168.619 C 117.656 170.242 124.004 171.176 130.395 171.409 C 131.361 171.462 132.329 171.455 133.296 171.388 C 135.417 171.206 137.235 170.525 139.26 170.154 C 140.232 169.975 141.316 169.845 142.296 169.652 C 142.07 169.364 141.839 169.082 141.605 168.802 C 139.493 168.985 137.346 169.58 135.209 169.858 C 131.575 170.329 127.502 169.802 124.747 168.505 C 123.411 167.874 122.387 167.089 121.056 166.457 C 120.873 166.361 120.678 166.3 120.475 166.276 C 120.091 166.262 119.712 166.362 119.382 166.564 C 117.147 167.715 113.903 168.652 110.892 168.137 C 110.667 168.315 111.093 168.521 111.462 168.619 Z" fill="#fff" style=""/>
  <path d="M 98.136 172.672 C 98.108 172.666 98.08 172.663 98.054 172.658 C 98.169 172.584 98.278 172.501 98.379 172.407 L 98.136 172.672 Z" fill="#fff" style=""/>
  <path d="M 80.108 174.943 C 81.366 175.046 82.63 175.122 83.902 175.173 C 84.868 175.227 85.836 175.219 86.802 175.152 C 88.924 174.97 90.742 174.289 92.766 173.917 C 94.62 173.577 96.875 173.413 98.054 172.658 C 95.009 172.12 91.855 173.215 88.716 173.622 C 86.176 173.94 83.602 173.811 81.106 173.239 C 80.758 173.797 80.426 174.365 80.108 174.943 Z" fill="#fff" style=""/>
  <path d="M 95.323 227.749 C 95.625 227.916 95.929 228.077 96.233 228.231 C 96.341 228.284 96.454 228.337 96.561 228.395 C 96.652 228.438 96.743 228.484 96.834 228.526 C 96.862 228.54 96.887 228.552 96.912 228.566 C 96.989 228.601 97.061 228.637 97.138 228.673 C 97.223 228.713 97.307 228.752 97.387 228.791 C 97.481 228.832 97.572 228.876 97.666 228.915 C 98.016 229.076 98.369 229.23 98.723 229.376 C 99.988 229.906 101.281 230.364 102.596 230.746 C 102.656 230.763 102.719 230.781 102.781 230.801 C 103.345 230.96 103.911 231.107 104.481 231.239 C 105.478 231.474 106.483 231.668 107.499 231.816 L 107.506 231.816 C 107.628 231.835 107.747 231.853 107.868 231.871 C 107.879 231.871 107.89 231.875 107.904 231.875 C 107.904 231.878 107.904 231.878 107.907 231.875 C 108.041 231.892 108.176 231.91 108.31 231.928 C 108.319 231.931 108.328 231.932 108.337 231.932 C 108.463 231.949 108.593 231.963 108.718 231.977 C 108.855 231.993 108.992 232.007 109.127 232.02 C 109.232 232.032 109.337 232.041 109.442 232.053 C 109.452 232.056 109.461 232.057 109.471 232.056 C 109.564 232.064 109.659 232.074 109.753 232.08 L 109.768 232.08 C 109.848 232.089 109.932 232.096 110.013 232.104 C 110.987 232.181 111.967 232.216 112.959 232.216 C 114.033 232.216 115.1 232.175 116.152 232.08 L 116.162 232.08 C 116.39 232.059 116.614 232.038 116.837 232.017 C 116.896 232.01 116.952 232.007 117.012 231.999 C 117.022 231.999 117.036 231.994 117.047 231.994 C 117.065 231.993 117.082 231.993 117.103 231.988 C 117.112 231.989 117.122 231.987 117.131 231.985 C 117.207 231.977 117.284 231.967 117.364 231.959 L 117.628 231.928 C 117.715 231.917 117.802 231.902 117.889 231.892 C 117.91 231.888 117.928 231.888 117.949 231.885 C 118.012 231.878 118.075 231.867 118.137 231.856 C 118.17 231.853 118.201 231.85 118.228 231.846 C 118.292 231.835 118.351 231.827 118.414 231.816 L 118.418 231.816 C 120.336 231.535 122.23 231.099 124.082 230.516 C 124.179 230.483 124.278 230.453 124.376 230.421 C 123.46 226.067 120.614 222.391 116.673 220.479 C 117.154 220.01 117.486 219.407 117.628 218.744 C 117.81 217.881 117.649 216.98 117.179 216.239 C 116.726 215.528 116.014 215.03 115.201 214.854 L 110.019 213.747 C 108.284 213.403 106.598 214.548 106.244 216.318 C 106.19 216.578 106.167 216.844 106.173 217.109 C 101.184 220.5 97.593 224.016 95.323 227.749 Z" style="fill: rgb(2, 226, 242);"/>
  <circle cx="281.88445" cy="541.39662" r="30.87556" fill="#ffb8b8" transform="matrix(0.349639, 0, 0, 0.356898, 12.065978, 7.416022)" style=""/>
  <path d="M 103.895 210.14 C 102.744 209.336 101.568 207.795 100.783 206.639 C 98.68 203.565 97.952 199.725 98.781 196.074 C 98.912 195.351 99.233 194.68 99.711 194.13 C 100.22 193.617 101.049 193.373 101.67 193.737 C 101.328 192.801 101.38 191.763 101.814 190.867 C 102.251 189.983 102.882 189.214 103.66 188.623 C 106.69 186.241 110.757 185.749 114.248 187.343 C 114.922 187.662 113.815 185.199 114.52 185.435 C 115.222 185.714 116.001 185.699 116.693 185.397 C 117.356 185.056 119.557 187.083 119.302 186.37 C 121.495 187.386 121.902 190.388 120.062 191.975 C 119.505 192.455 118.809 192.731 118.199 193.138 C 115.987 194.727 115.285 197.752 116.563 200.184 C 115.921 199.764 115.217 199.45 114.478 199.26 C 113.724 199.071 112.93 199.267 112.342 199.783 C 111.855 200.353 111.619 201.105 111.69 201.859 C 111.714 202.607 111.889 203.343 111.909 204.091 C 111.966 206.286 113.117 210.458 111.45 211.625 C 110.135 212.545 105.467 211.236 103.895 210.14 Z" fill="#2f2e41" style=""/>
  <path d="M 118.046 145.484 C 117.819 145.484 117.594 145.437 117.384 145.346 C 116.744 145.085 116.327 144.447 116.333 143.743 L 116.333 141.998 C 116.332 141.237 115.729 140.62 114.982 140.618 C 114.043 140.617 113.281 139.84 113.28 138.882 L 113.28 114.985 C 113.281 114.027 114.042 113.251 114.982 113.249 L 192.541 113.249 C 193.48 113.251 194.242 114.027 194.243 114.985 L 194.243 138.882 C 194.242 139.84 193.48 140.617 192.541 140.618 L 124.062 140.618 C 123.703 140.617 123.359 140.764 123.107 141.022 L 119.238 144.97 C 118.924 145.298 118.495 145.483 118.046 145.484 Z" fill="#fff" style=""/>
  <path d="M 118.046 145.841 C 117.773 145.841 117.502 145.784 117.25 145.677 C 116.478 145.36 115.976 144.592 115.984 143.743 L 115.984 141.998 C 115.984 141.435 115.535 140.976 114.982 140.975 C 113.85 140.974 112.932 140.037 112.931 138.882 L 112.931 114.985 C 112.932 113.83 113.85 112.892 114.982 112.892 L 192.541 112.892 C 193.674 112.892 194.591 113.83 194.593 114.985 L 194.593 138.882 C 194.591 140.037 193.674 140.974 192.541 140.975 L 124.062 140.975 C 123.797 140.975 123.541 141.082 123.353 141.275 L 119.486 145.223 C 119.106 145.617 118.588 145.84 118.046 145.841 Z M 114.982 113.606 C 114.236 113.607 113.631 114.225 113.63 114.985 L 113.63 138.882 C 113.631 139.643 114.236 140.26 114.982 140.261 C 115.921 140.262 116.683 141.04 116.684 141.998 L 116.684 143.743 C 116.684 144.806 117.81 145.469 118.712 144.937 C 118.814 144.878 118.908 144.804 118.991 144.718 L 122.86 140.772 C 123.178 140.444 123.61 140.259 124.062 140.261 L 192.541 140.261 C 193.288 140.26 193.893 139.643 193.893 138.882 L 193.893 114.985 C 193.893 114.225 193.288 113.607 192.541 113.606 L 114.982 113.606 Z" fill="#3f3d56" style=""/>
  <path d="M 185.876 124.068 L 122.984 124.068 C 122.286 124.068 121.851 123.296 122.199 122.681 C 122.361 122.394 122.66 122.218 122.984 122.218 L 185.876 122.218 C 186.574 122.218 187.01 122.988 186.66 123.605 C 186.499 123.891 186.2 124.068 185.876 124.068 Z" style="fill: rgb(2, 226, 242);"/>
  <path d="M 185.76 127.995 L 122.984 127.995 C 122.286 127.995 121.851 127.225 122.199 126.609 C 122.361 126.323 122.66 126.146 122.984 126.146 L 185.76 126.146 C 186.458 126.146 186.893 126.916 186.545 127.533 C 186.383 127.819 186.084 127.995 185.76 127.995 Z" style="fill: rgb(91, 57, 125);"/>
  <path d="M 185.698 131.924 L 122.984 131.924 C 122.286 131.924 121.851 131.152 122.199 130.536 C 122.361 130.25 122.66 130.075 122.984 130.075 L 185.698 130.075 C 186.395 130.075 186.831 130.845 186.483 131.461 C 186.321 131.747 186.022 131.924 185.698 131.924 Z" style="fill: rgb(91, 57, 125);"/>
  <path d="M 284.919 109.541 C 284.919 110.408 284.891 111.275 284.832 112.136 C 284.769 113.163 284.66 114.184 284.513 115.199 C 284.019 118.61 283.077 121.939 281.71 125.094 C 281.639 125.251 281.569 125.408 281.499 125.565 L 281.395 125.8 C 281.361 125.88 281.321 125.959 281.287 126.033 C 281.238 126.136 281.192 126.237 281.143 126.337 C 281.084 126.461 281.024 126.586 280.961 126.712 C 280.954 126.725 280.947 126.742 280.936 126.76 C 280.884 126.868 280.835 126.971 280.78 127.078 C 280.769 127.101 280.757 127.125 280.744 127.147 C 280.685 127.268 280.622 127.392 280.558 127.514 C 280.489 127.642 280.423 127.774 280.353 127.903 C 280.185 128.22 280.01 128.535 279.832 128.848 C 279.779 128.941 279.727 129.034 279.671 129.127 C 279.622 129.213 279.573 129.299 279.521 129.384 C 279.486 129.441 279.451 129.501 279.416 129.559 C 279.359 129.656 279.304 129.748 279.245 129.844 C 279.115 130.055 278.982 130.265 278.853 130.475 L 278.85 130.475 C 278.79 130.572 278.727 130.669 278.664 130.762 L 278.664 130.765 C 278.479 131.051 278.286 131.337 278.094 131.618 C 278.092 131.618 278.091 131.62 278.091 131.622 C 277.937 131.85 277.776 132.071 277.619 132.293 L 277.619 132.296 C 277.513 132.436 277.412 132.578 277.307 132.718 C 277.224 132.832 277.137 132.95 277.049 133.063 C 277.031 133.088 277.01 133.109 276.993 133.135 L 276.993 133.139 C 276.969 133.17 276.944 133.199 276.919 133.231 C 276.548 133.717 276.166 134.191 275.773 134.655 L 275.709 134.729 C 275.689 134.755 275.664 134.781 275.644 134.808 C 275.608 134.847 275.577 134.886 275.542 134.926 C 275.51 134.966 275.475 135.006 275.441 135.045 C 273.387 137.407 271.059 139.502 268.508 141.287 C 268.168 141.526 267.822 141.757 267.475 141.982 C 267.388 142.04 267.301 142.097 267.213 142.15 C 267.189 142.167 267.161 142.186 267.137 142.203 C 267.087 142.232 267.042 142.261 266.993 142.292 C 266.948 142.322 266.902 142.35 266.853 142.378 C 266.668 142.496 266.48 142.611 266.29 142.725 C 266.245 142.753 266.196 142.782 266.147 142.811 C 266.102 142.836 266.052 142.864 266.004 142.892 C 266.004 142.897 266.004 142.897 266.001 142.897 L 265.997 142.897 L 265.997 142.899 L 265.994 142.899 C 265.759 143.039 265.521 143.175 265.28 143.307 C 265.151 143.378 265.017 143.453 264.885 143.521 C 264.584 143.689 264.28 143.849 263.976 144.002 C 263.867 144.056 263.755 144.11 263.647 144.167 C 263.556 144.21 263.465 144.256 263.374 144.298 C 263.347 144.312 263.321 144.324 263.297 144.338 C 263.22 144.373 263.147 144.41 263.07 144.446 C 262.986 144.485 262.902 144.523 262.822 144.563 C 262.728 144.605 262.637 144.649 262.542 144.688 C 262.193 144.848 261.84 145.002 261.486 145.148 C 260.221 145.678 258.927 146.136 257.613 146.518 C 257.553 146.538 257.49 146.554 257.427 146.572 C 256.864 146.733 256.298 146.879 255.728 147.012 C 254.731 147.246 253.725 147.439 252.71 147.589 L 252.703 147.589 C 252.581 147.607 252.462 147.625 252.34 147.644 C 252.329 147.644 252.319 147.647 252.304 147.647 C 252.304 147.651 252.304 147.651 252.302 147.647 C 252.168 147.664 252.032 147.682 251.899 147.7 C 251.89 147.702 251.88 147.704 251.871 147.704 C 251.745 147.722 251.616 147.736 251.49 147.75 C 251.354 147.765 251.217 147.778 251.081 147.792 C 250.976 147.804 250.872 147.813 250.766 147.825 C 250.757 147.828 250.748 147.829 250.738 147.828 C 250.645 147.836 250.549 147.846 250.455 147.853 L 250.441 147.853 C 250.36 147.861 250.276 147.868 250.196 147.876 C 249.221 147.954 248.242 147.989 247.249 147.989 C 246.176 147.989 245.109 147.947 244.057 147.853 L 244.046 147.853 C 243.819 147.831 243.595 147.811 243.372 147.79 C 243.312 147.782 243.256 147.778 243.197 147.771 C 243.187 147.771 243.172 147.768 243.161 147.768 C 243.144 147.765 243.127 147.765 243.106 147.76 C 243.096 147.76 243.086 147.76 243.077 147.757 C 243.001 147.75 242.924 147.739 242.843 147.732 L 242.581 147.7 C 242.494 147.69 242.407 147.674 242.32 147.664 C 242.298 147.661 242.281 147.661 242.26 147.657 C 242.197 147.651 242.134 147.639 242.071 147.629 C 242.039 147.625 242.009 147.621 241.98 147.618 C 241.916 147.607 241.858 147.599 241.795 147.589 L 241.791 147.589 C 239.872 147.307 237.979 146.872 236.126 146.287 C 236.029 146.255 235.931 146.226 235.833 146.194 C 235.83 146.194 235.826 146.19 235.823 146.19 C 235.795 146.179 235.763 146.172 235.736 146.162 C 235.473 146.077 235.214 145.987 234.956 145.894 C 234.599 145.774 234.247 145.642 233.893 145.505 C 233.798 145.466 233.704 145.43 233.609 145.391 C 233.417 145.316 233.229 145.237 233.039 145.158 C 232.718 145.027 232.396 144.888 232.078 144.746 C 231.781 144.609 231.487 144.473 231.194 144.331 C 231.186 144.328 231.176 144.328 231.169 144.32 C 231.103 144.289 231.037 144.256 230.974 144.224 L 230.97 144.224 C 229.359 143.436 227.806 142.529 226.323 141.515 C 225.847 141.19 225.378 140.855 224.918 140.508 C 224.547 140.227 224.183 139.941 223.82 139.649 C 222.026 138.191 220.364 136.572 218.858 134.808 L 218.858 134.806 C 218.75 134.684 218.649 134.559 218.543 134.433 C 218.526 134.416 218.512 134.398 218.499 134.385 C 218.432 134.302 218.369 134.223 218.302 134.144 L 218.302 134.142 C 218.215 134.038 218.128 133.931 218.044 133.825 C 218.023 133.799 218.005 133.777 217.987 133.755 L 217.987 133.752 C 217.918 133.668 217.851 133.582 217.781 133.492 C 217.746 133.45 217.715 133.406 217.68 133.364 L 217.68 133.36 C 217.474 133.096 217.275 132.832 217.074 132.56 C 217.023 132.489 216.97 132.414 216.914 132.339 C 216.662 131.994 216.418 131.64 216.18 131.286 L 216.18 131.283 C 216.089 131.15 216.002 131.015 215.911 130.883 C 215.823 130.748 215.736 130.611 215.648 130.475 C 215.561 130.333 215.47 130.194 215.383 130.052 L 215.373 130.03 C 215.285 129.894 215.198 129.752 215.113 129.613 C 215.047 129.498 214.981 129.388 214.915 129.277 C 214.872 129.201 214.827 129.127 214.785 129.048 C 214.768 129.025 214.754 129 214.74 128.973 C 214.641 128.8 214.544 128.623 214.446 128.448 C 214.33 128.245 214.218 128.038 214.107 127.832 C 214.065 127.746 214.019 127.66 213.974 127.574 C 213.957 127.546 213.943 127.517 213.928 127.489 C 213.876 127.39 213.823 127.286 213.774 127.182 C 213.722 127.082 213.67 126.978 213.616 126.875 C 213.569 126.774 213.515 126.672 213.467 126.568 C 213.428 126.49 213.393 126.411 213.355 126.333 C 213.352 126.326 213.349 126.32 213.345 126.315 C 213.327 126.275 213.309 126.239 213.295 126.204 C 213.291 126.197 213.288 126.193 213.285 126.187 C 213.247 126.108 213.211 126.026 213.174 125.947 C 213.124 125.843 213.078 125.738 213.03 125.633 C 212.998 125.561 212.963 125.486 212.932 125.412 C 212.887 125.308 212.837 125.205 212.796 125.098 C 212.746 124.99 212.702 124.884 212.656 124.773 C 212.642 124.746 212.631 124.719 212.621 124.691 C 212.596 124.64 212.579 124.591 212.558 124.541 C 212.501 124.408 212.445 124.273 212.394 124.141 C 212.331 123.992 212.271 123.837 212.215 123.689 C 212.16 123.55 212.106 123.407 212.054 123.263 L 212.033 123.214 C 211.219 121.024 210.601 118.761 210.187 116.457 L 210.187 116.454 C 209.954 115.137 209.787 113.811 209.687 112.478 C 209.683 112.402 209.677 112.331 209.673 112.26 C 209.61 111.358 209.582 110.45 209.582 109.541 C 209.582 109.138 209.589 108.738 209.6 108.338 C 209.844 99.977 212.764 91.93 217.914 85.425 C 218.026 85.283 218.138 85.139 218.253 84.996 C 218.369 84.854 218.487 84.715 218.603 84.576 C 235.085 64.873 265.551 67.107 279.105 89.012 C 279.276 89.29 279.447 89.572 279.611 89.853 C 279.779 90.14 279.939 90.426 280.101 90.714 C 283.269 96.461 284.928 102.945 284.919 109.541 Z" fill="#f2f2f2" style=""/>
  <path d="M 248.746 84.391 C 242.552 86.014 236.204 86.948 229.814 87.181 C 228.848 87.233 227.878 87.228 226.913 87.16 C 224.792 86.978 222.974 86.297 220.949 85.926 C 219.976 85.746 218.893 85.617 217.912 85.424 C 218.139 85.137 218.37 84.854 218.604 84.575 C 220.716 84.757 222.862 85.354 225 85.63 C 228.634 86.102 232.706 85.576 235.461 84.277 C 236.798 83.648 237.821 82.862 239.154 82.228 C 239.334 82.134 239.531 82.071 239.733 82.047 C 240.117 82.036 240.496 82.136 240.826 82.336 C 243.062 83.489 246.305 84.424 249.317 83.909 C 249.542 84.088 249.115 84.292 248.746 84.391 Z" fill="#fff" style=""/>
  <path d="M 262.072 88.443 C 262.1 88.439 262.127 88.434 262.155 88.43 C 262.04 88.356 261.931 88.274 261.829 88.18 L 262.072 88.443 Z" fill="#fff" style=""/>
  <path d="M 280.1 90.715 C 278.842 90.818 277.578 90.894 276.307 90.945 C 275.341 90.999 274.372 90.991 273.407 90.925 C 271.285 90.742 269.468 90.062 267.443 89.69 C 265.588 89.35 263.333 89.185 262.156 88.43 C 265.199 87.893 268.354 88.987 271.493 89.395 C 274.032 89.712 276.607 89.584 279.103 89.011 C 279.45 89.569 279.782 90.138 280.1 90.715 Z" fill="#fff" style=""/>
  <ellipse cx="243.002" cy="114.559" rx="11.314" ry="11.806" fill="#ffb6b6" style=""/>
  <path d="M 264.885 143.521 C 264.584 143.689 264.28 143.849 263.976 144.002 C 263.867 144.056 263.755 144.11 263.647 144.167 C 263.556 144.21 263.465 144.256 263.374 144.298 C 263.347 144.312 263.321 144.324 263.297 144.338 C 263.22 144.373 263.147 144.41 263.07 144.446 C 262.986 144.485 262.902 144.524 262.822 144.563 C 262.728 144.605 262.637 144.649 262.542 144.688 C 262.193 144.848 261.84 145.002 261.486 145.148 C 260.221 145.678 258.927 146.136 257.613 146.518 C 257.553 146.538 257.49 146.554 257.427 146.572 C 256.864 146.733 256.298 146.88 255.728 147.012 C 254.731 147.246 253.725 147.439 252.71 147.589 L 252.703 147.589 C 252.581 147.607 252.462 147.625 252.34 147.644 C 252.329 147.644 252.319 147.647 252.304 147.647 C 252.304 147.651 252.304 147.651 252.302 147.647 C 252.168 147.664 252.032 147.682 251.899 147.7 C 251.89 147.703 251.88 147.704 251.871 147.704 C 251.745 147.722 251.616 147.736 251.49 147.75 C 251.354 147.765 251.217 147.778 251.081 147.792 C 250.976 147.804 250.872 147.814 250.766 147.825 C 250.758 147.828 250.748 147.829 250.738 147.828 C 250.645 147.836 250.549 147.846 250.455 147.853 L 250.441 147.853 C 250.36 147.861 250.276 147.868 250.196 147.876 C 249.221 147.954 248.242 147.989 247.249 147.989 C 246.176 147.989 245.109 147.947 244.057 147.853 L 244.046 147.853 C 243.819 147.831 243.595 147.811 243.372 147.79 C 243.312 147.782 243.256 147.778 243.197 147.771 C 243.187 147.771 243.172 147.768 243.161 147.768 C 243.144 147.765 243.127 147.765 243.106 147.76 C 243.096 147.76 243.086 147.76 243.077 147.757 C 243.001 147.75 242.924 147.739 242.843 147.732 L 242.581 147.7 C 242.494 147.69 242.407 147.674 242.32 147.664 C 242.298 147.661 242.281 147.661 242.26 147.657 C 242.197 147.651 242.134 147.639 242.071 147.629 C 242.039 147.625 242.009 147.621 241.98 147.618 C 241.916 147.607 241.858 147.599 241.795 147.589 L 241.791 147.589 C 239.872 147.307 237.979 146.872 236.126 146.287 C 236.029 146.255 235.931 146.226 235.833 146.194 C 236.748 141.838 239.595 138.164 243.536 136.251 C 243.055 135.782 242.723 135.179 242.581 134.516 C 242.397 133.654 242.56 132.752 243.029 132.011 C 243.482 131.3 244.194 130.802 245.008 130.626 L 250.19 129.519 C 251.925 129.175 253.611 130.32 253.965 132.09 C 254.019 132.35 254.042 132.617 254.036 132.881 C 259.025 136.272 262.615 139.788 264.885 143.521 Z" style="fill: rgb(91, 57, 125);"/>
  <path d="M 273.277 109.439 C 271.354 107.149 270.439 104.113 268.903 101.513 C 267.365 98.914 264.69 96.587 261.863 97.192 C 259.915 97.608 258.41 99.364 257.646 101.32 C 256.884 103.276 256.741 105.434 256.609 107.548 C 256.655 103.205 253.852 98.994 249.989 97.607 C 246.128 96.221 241.506 97.767 239.079 101.257 C 236.887 99.183 233.522 99.112 231.246 101.089 C 229.076 103.07 228.595 106.839 230.192 109.365 C 231.788 111.891 235.246 112.831 237.783 111.43 L 238.68 112.274 C 238.175 114.076 239.153 116.204 240.799 116.882 C 242.134 117.434 244.018 117.341 244.518 118.771 C 244.866 119.77 244.214 120.836 243.52 121.604 C 242.826 122.372 242.002 123.163 241.919 124.227 C 241.794 125.828 243.415 126.951 244.89 127.289 C 248.447 128.105 252.393 126.423 254.443 123.219 C 254.482 123.158 254.525 123.096 254.572 123.036 C 256.895 120 257.895 116.124 257.334 112.315 C 257.219 111.575 257.335 111.024 257.835 110.849 C 259.997 110.092 266.053 111.683 267.886 113.119 C 269.719 114.558 271.187 116.46 272.952 117.99 C 274.718 119.521 276.968 120.702 279.21 120.286 C 281.005 119.951 282.532 118.62 283.56 117.015 C 284.587 115.411 285.178 113.54 285.708 111.682 C 281.737 114.021 276.304 113.041 273.277 109.439 Z" fill="#2f2e41" style=""/>
  <path d="M 41.025 85.628 C 41.025 86.495 41.053 87.364 41.112 88.222 C 41.175 89.251 41.284 90.272 41.431 91.284 C 41.924 94.698 42.867 98.027 44.235 101.183 C 44.304 101.34 44.374 101.496 44.444 101.653 L 44.549 101.889 C 44.584 101.966 44.623 102.045 44.658 102.12 C 44.707 102.224 44.752 102.324 44.801 102.423 C 44.861 102.549 44.919 102.674 44.982 102.798 C 44.99 102.813 44.997 102.831 45.007 102.85 C 45.06 102.955 45.109 103.059 45.164 103.166 C 45.175 103.19 45.187 103.213 45.2 103.234 C 45.259 103.355 45.322 103.481 45.385 103.602 C 45.454 103.73 45.521 103.862 45.591 103.99 C 45.759 104.308 45.933 104.623 46.113 104.937 C 46.164 105.03 46.217 105.122 46.273 105.215 C 46.322 105.301 46.371 105.386 46.423 105.473 C 46.458 105.529 46.493 105.59 46.529 105.646 C 46.585 105.742 46.64 105.837 46.699 105.932 C 46.829 106.143 46.962 106.354 47.091 106.564 L 47.094 106.564 C 47.154 106.66 47.217 106.756 47.279 106.849 L 47.279 106.853 C 47.465 107.138 47.657 107.424 47.85 107.707 C 47.852 107.707 47.854 107.708 47.854 107.709 C 48.007 107.938 48.168 108.16 48.326 108.381 L 48.326 108.384 C 48.43 108.522 48.531 108.666 48.637 108.805 C 48.721 108.92 48.808 109.037 48.895 109.152 C 48.912 109.177 48.934 109.198 48.952 109.222 L 48.952 109.225 C 48.975 109.258 49 109.287 49.025 109.319 C 49.395 109.805 49.777 110.279 50.171 110.743 L 50.234 110.818 C 50.255 110.844 50.28 110.867 50.3 110.897 C 50.336 110.937 50.367 110.975 50.402 111.014 C 50.434 111.053 50.468 111.092 50.504 111.132 C 52.557 113.492 54.885 115.589 57.437 117.373 C 57.776 117.613 58.122 117.846 58.468 118.07 C 58.556 118.126 58.642 118.185 58.73 118.238 C 58.755 118.257 58.783 118.273 58.807 118.291 C 58.856 118.321 58.902 118.348 58.95 118.382 C 58.996 118.409 59.041 118.438 59.091 118.466 C 59.276 118.584 59.465 118.699 59.653 118.812 C 59.699 118.841 59.748 118.869 59.797 118.898 C 59.842 118.923 59.891 118.952 59.941 118.98 C 59.941 118.983 59.941 118.983 59.944 118.983 L 59.947 118.983 L 59.947 118.988 L 59.951 118.988 C 60.185 119.126 60.422 119.262 60.664 119.394 C 60.793 119.465 60.926 119.54 61.059 119.608 C 61.36 119.776 61.664 119.936 61.969 120.09 C 62.076 120.144 62.189 120.198 62.297 120.254 C 62.387 120.297 62.478 120.344 62.569 120.386 C 62.597 120.401 62.622 120.412 62.646 120.426 C 62.723 120.461 62.797 120.497 62.874 120.532 C 62.957 120.572 63.041 120.611 63.123 120.651 C 63.216 120.693 63.307 120.737 63.401 120.776 C 63.752 120.936 64.104 121.089 64.458 121.235 C 65.723 121.765 67.016 122.223 68.331 122.607 C 68.391 122.624 68.454 122.642 68.516 122.66 C 69.08 122.821 69.647 122.967 70.216 123.099 C 71.213 123.335 72.219 123.527 73.233 123.676 L 73.241 123.676 C 73.363 123.695 73.482 123.712 73.604 123.731 C 73.614 123.731 73.625 123.734 73.64 123.734 C 73.64 123.737 73.64 123.737 73.643 123.734 C 73.775 123.752 73.912 123.771 74.045 123.788 C 74.054 123.791 74.063 123.792 74.073 123.792 C 74.199 123.809 74.328 123.823 74.454 123.837 C 74.59 123.852 74.727 123.867 74.863 123.881 C 74.969 123.891 75.073 123.902 75.177 123.913 C 75.186 123.915 75.196 123.917 75.206 123.916 C 75.3 123.923 75.394 123.934 75.488 123.942 L 75.503 123.942 C 75.583 123.949 75.668 123.954 75.748 123.962 C 76.723 124.04 77.703 124.077 78.695 124.077 C 79.769 124.077 80.834 124.033 81.887 123.942 L 81.898 123.942 C 82.125 123.92 82.349 123.898 82.573 123.877 C 82.631 123.87 82.688 123.867 82.748 123.859 C 82.757 123.859 82.772 123.856 82.782 123.856 C 82.8 123.852 82.817 123.852 82.838 123.849 C 82.847 123.85 82.857 123.848 82.866 123.845 C 82.942 123.837 83.02 123.827 83.1 123.82 L 83.363 123.788 C 83.45 123.777 83.538 123.763 83.625 123.752 C 83.645 123.748 83.664 123.748 83.685 123.745 C 83.748 123.737 83.81 123.728 83.873 123.716 C 83.905 123.712 83.936 123.71 83.964 123.706 C 84.027 123.695 84.086 123.688 84.15 123.676 L 84.153 123.676 C 86.071 123.395 87.965 122.959 89.817 122.375 C 89.915 122.341 90.013 122.314 90.111 122.281 C 90.114 122.281 90.118 122.279 90.121 122.279 C 90.149 122.267 90.181 122.261 90.208 122.249 C 90.471 122.163 90.73 122.075 90.989 121.982 C 91.345 121.86 91.698 121.728 92.051 121.593 C 92.146 121.554 92.24 121.518 92.335 121.479 C 92.527 121.405 92.715 121.326 92.904 121.247 C 93.227 121.114 93.548 120.975 93.866 120.832 C 94.162 120.697 94.456 120.562 94.75 120.419 C 94.758 120.415 94.768 120.415 94.775 120.409 C 94.841 120.375 94.907 120.344 94.971 120.312 L 94.974 120.312 C 96.584 119.522 98.137 118.619 99.621 117.603 C 100.097 117.278 100.565 116.943 101.027 116.597 C 101.397 116.315 101.76 116.028 102.125 115.736 C 103.918 114.28 105.579 112.659 107.085 110.897 L 107.085 110.892 C 107.195 110.772 107.296 110.648 107.4 110.522 C 107.418 110.504 107.432 110.487 107.446 110.472 C 107.512 110.391 107.575 110.311 107.641 110.233 L 107.641 110.23 C 107.73 110.126 107.817 110.018 107.901 109.912 C 107.922 109.887 107.939 109.866 107.956 109.844 L 107.956 109.84 C 108.026 109.754 108.092 109.668 108.162 109.58 C 108.198 109.536 108.229 109.495 108.263 109.451 L 108.263 109.447 C 108.47 109.184 108.67 108.92 108.869 108.648 C 108.921 108.577 108.973 108.502 109.029 108.427 C 109.281 108.081 109.526 107.726 109.765 107.374 L 109.765 107.369 C 109.855 107.238 109.942 107.103 110.033 106.971 C 110.12 106.834 110.208 106.699 110.295 106.564 C 110.383 106.421 110.474 106.282 110.561 106.139 L 110.572 106.118 C 110.659 105.982 110.746 105.839 110.83 105.701 C 110.897 105.585 110.964 105.476 111.03 105.365 C 111.071 105.29 111.117 105.215 111.158 105.136 C 111.176 105.112 111.191 105.087 111.204 105.062 C 111.302 104.886 111.4 104.712 111.499 104.537 C 111.613 104.334 111.726 104.128 111.837 103.919 C 111.878 103.834 111.924 103.749 111.97 103.663 C 111.988 103.633 112.002 103.606 112.015 103.577 C 112.068 103.476 112.121 103.373 112.169 103.27 C 112.222 103.17 112.274 103.067 112.327 102.962 C 112.376 102.863 112.429 102.759 112.477 102.656 C 112.516 102.577 112.55 102.499 112.589 102.42 C 112.592 102.415 112.596 102.408 112.6 102.403 C 112.617 102.363 112.634 102.329 112.648 102.292 C 112.652 102.286 112.656 102.281 112.659 102.274 C 112.698 102.196 112.732 102.113 112.771 102.036 C 112.819 101.932 112.865 101.823 112.914 101.721 C 112.946 101.65 112.981 101.575 113.012 101.5 C 113.058 101.396 113.106 101.292 113.149 101.185 C 113.197 101.079 113.243 100.971 113.287 100.861 C 113.302 100.834 113.313 100.807 113.324 100.778 C 113.347 100.728 113.365 100.678 113.387 100.629 C 113.442 100.496 113.498 100.361 113.551 100.23 C 113.614 100.079 113.673 99.927 113.729 99.776 C 113.785 99.636 113.837 99.494 113.889 99.351 L 113.91 99.301 C 114.726 97.11 115.343 94.85 115.757 92.544 L 115.757 92.541 C 115.99 91.226 116.156 89.899 116.256 88.566 C 116.26 88.491 116.267 88.42 116.271 88.348 C 116.333 87.445 116.362 86.538 116.362 85.628 C 116.362 85.224 116.355 84.825 116.344 84.425 C 116.099 76.067 113.18 68.018 108.029 61.513 C 107.918 61.37 107.806 61.228 107.691 61.084 C 107.575 60.942 107.456 60.803 107.342 60.664 C 90.859 40.96 60.394 43.194 46.84 65.099 C 46.669 65.378 46.496 65.661 46.332 65.941 C 46.164 66.228 46.004 66.512 45.843 66.803 C 42.676 72.55 41.015 79.035 41.025 85.628 Z" fill="#f2f2f2" style=""/>
  <path d="M 77.198 60.479 C 83.391 62.1 89.739 63.036 96.131 63.268 C 97.097 63.323 98.065 63.315 99.031 63.248 C 101.153 63.067 102.971 62.386 104.995 62.014 C 105.968 61.836 107.052 61.704 108.031 61.512 C 107.806 61.225 107.575 60.942 107.341 60.663 C 105.228 60.844 103.082 61.44 100.944 61.719 C 97.31 62.19 93.238 61.663 90.484 60.366 C 89.146 59.735 88.122 58.949 86.79 58.316 C 86.609 58.22 86.413 58.159 86.211 58.135 C 85.826 58.123 85.447 58.223 85.117 58.425 C 82.883 59.576 79.638 60.511 76.627 59.998 C 76.402 60.176 76.828 60.38 77.198 60.479 Z" fill="#fff" style=""/>
  <path d="M 63.871 64.532 C 63.844 64.526 63.816 64.523 63.789 64.517 C 63.904 64.445 64.014 64.36 64.114 64.267 L 63.871 64.532 Z" fill="#fff" style=""/>
  <path d="M 45.843 66.805 C 47.101 66.907 48.365 66.983 49.636 67.033 C 50.603 67.086 51.571 67.079 52.537 67.013 C 54.66 66.829 56.477 66.15 58.502 65.777 C 60.356 65.437 62.611 65.274 63.789 64.517 C 60.744 63.979 57.59 65.076 54.451 65.481 C 51.911 65.801 49.337 65.672 46.841 65.099 C 46.493 65.656 46.161 66.225 45.843 66.805 Z" fill="#fff" style=""/>
  <path d="M 61.059 119.608 C 61.36 119.776 61.664 119.936 61.969 120.09 C 62.076 120.144 62.189 120.198 62.297 120.254 C 62.387 120.297 62.478 120.344 62.569 120.386 C 62.597 120.401 62.622 120.412 62.646 120.426 C 62.723 120.461 62.797 120.497 62.874 120.532 C 62.957 120.572 63.041 120.611 63.123 120.651 C 63.216 120.693 63.307 120.737 63.401 120.776 C 63.752 120.936 64.104 121.089 64.458 121.235 C 65.723 121.765 67.016 122.223 68.331 122.607 C 68.391 122.624 68.454 122.642 68.516 122.66 C 69.08 122.821 69.647 122.967 70.216 123.099 C 71.213 123.335 72.219 123.527 73.233 123.676 L 73.241 123.676 C 73.363 123.695 73.482 123.712 73.604 123.731 C 73.614 123.731 73.625 123.734 73.64 123.734 C 73.64 123.737 73.64 123.737 73.643 123.734 C 73.775 123.752 73.912 123.771 74.045 123.788 C 74.054 123.791 74.063 123.792 74.073 123.792 C 74.199 123.81 74.328 123.823 74.454 123.837 C 74.591 123.852 74.727 123.867 74.863 123.881 C 74.969 123.891 75.073 123.902 75.177 123.913 C 75.186 123.915 75.196 123.917 75.206 123.916 C 75.3 123.923 75.394 123.934 75.488 123.942 L 75.503 123.942 C 75.583 123.949 75.668 123.954 75.748 123.962 C 76.723 124.04 77.703 124.077 78.695 124.077 C 79.769 124.077 80.834 124.033 81.887 123.942 L 81.898 123.942 C 82.125 123.92 82.349 123.898 82.573 123.877 C 82.631 123.871 82.688 123.867 82.748 123.859 C 82.757 123.859 82.772 123.856 82.782 123.856 C 82.8 123.852 82.817 123.852 82.838 123.849 C 82.847 123.85 82.857 123.848 82.866 123.845 C 82.942 123.837 83.02 123.827 83.1 123.82 L 83.363 123.788 C 83.45 123.777 83.538 123.763 83.625 123.752 C 83.645 123.748 83.664 123.748 83.685 123.745 C 83.748 123.737 83.81 123.728 83.873 123.716 C 83.905 123.712 83.936 123.71 83.964 123.706 C 84.027 123.695 84.086 123.689 84.15 123.676 L 84.153 123.676 C 86.071 123.395 87.965 122.959 89.817 122.375 C 89.915 122.341 90.013 122.314 90.111 122.281 C 89.196 117.926 86.35 114.251 82.408 112.339 C 82.889 111.872 83.221 111.266 83.363 110.604 C 83.546 109.742 83.385 108.84 82.915 108.098 C 82.461 107.388 81.749 106.89 80.936 106.713 L 75.755 105.608 C 74.019 105.261 72.333 106.409 71.978 108.177 C 71.926 108.437 71.903 108.703 71.909 108.97 C 66.919 112.36 63.328 115.876 61.059 119.608 Z" style="fill: rgb(91, 57, 125);"/>
  <circle cx="198.75404" cy="229.04877" r="36.07316" fill="#9e616a" transform="matrix(0.349639, 0, 0, 0.356898, 12.065978, 7.416022)" style=""/>
  <path d="M 79.766 101.349 C 76.608 102.219 73.127 101.063 70.663 98.867 C 68.199 96.671 66.658 93.561 65.769 90.348 C 65.118 87.995 64.81 85.382 65.836 83.173 C 66.863 80.964 69.626 79.473 71.757 80.589 C 70.443 79.026 71.099 76.439 72.635 75.103 C 74.17 73.765 76.278 73.381 78.287 73.17 C 81.202 72.868 84.213 72.833 86.986 73.796 C 89.759 74.76 92.279 76.868 93.148 79.724 C 94.97 80.59 97.137 80.091 98.419 78.508 C 98.749 80.326 97.844 82.143 96.213 82.941 L 100.462 81.535 C 101.192 83.114 99.912 85.067 98.275 85.573 C 96.637 86.078 94.87 85.525 93.316 84.796 C 91.761 84.066 90.256 83.141 88.568 82.856 C 86.88 82.573 84.897 83.126 84.116 84.68 C 83.707 85.494 83.686 86.447 83.448 87.328 C 83.212 88.21 82.61 89.124 81.717 89.197 C 81.152 89.243 80.599 88.937 80.036 88.999 C 79.331 89.14 78.774 89.696 78.619 90.412 C 78.479 91.117 78.476 91.842 78.614 92.546 L 79.694 100.969 L 79.766 101.349 Z" fill="#2f2e41" style=""/>
</svg>