<?xml version="1.0" encoding="utf-8"?>
<svg viewBox="0 0 500 500" xmlns="http://www.w3.org/2000/svg">
  <path d="M 466.17 411.474 L 467.025 389.429 C 475.934 383.965 485.871 381.079 495.974 381.022 C 482.071 394.063 483.808 419.2 474.381 436.736 C 468.352 447.763 458.279 455.044 447.005 456.526 L 435.37 464.697 C 432.138 444.036 436.958 422.785 448.555 406.546 C 451.809 402.081 455.54 398.104 459.66 394.709 C 462.447 403.137 466.17 411.474 466.17 411.474 Z" fill="#f2f2f2" style=""/>
  <path d="M 289.729 470.186 C 283.803 469.702 282.257 471.043 273.291 470.186 L 256.853 470.186 L 258.991 425.06 L 284.869 436.955 L 413.471 440.577 L 413.396 440.827 C 413.336 441.019 407.626 460.179 412.09 467.433 L 412.276 467.733 L 411.914 467.737 L 293.943 468.978 C 292.654 468.992 291.008 470.289 289.729 470.186 Z" fill="#f2f2f2" style=""/>
  <path d="M 296.399 470.776 C 284.951 469.841 273.098 474.946 263.204 469.184 L 255.294 469.732 L 255.272 469.656 C 255.211 469.447 251.476 435.726 259.028 422.652 L 259.359 422.076 L 259.62 425.173 L 257.131 467.179 L 262.648 465.066 C 276.052 472.303 291.991 467.524 307.331 467.456 L 411.722 467.015 C 413.909 467.006 415.732 468.721 415.789 470.837 L 415.795 471.043 L 302.705 471.033 C 300.596 471.033 298.493 470.946 296.399 470.776 Z" fill="#ccc" style=""/>
  <polygon points="406.219 449.677 288.743 446.999 288.623 446.947 260.867 435.015 261.391 433.41 289.028 445.292 406.249 447.962 406.219 449.677" fill="#e6e6e6" style=""/>
  <polygon points="405.593 456.893 288.116 454.214 287.996 454.163 260.24 442.229 260.764 440.625 288.402 452.507 405.623 455.179 405.593 456.893" fill="#e6e6e6" style=""/>
  <polygon points="404.966 464.111 287.489 461.431 287.368 461.379 259.613 449.446 260.137 447.84 287.775 459.724 404.996 462.396 404.966 464.111" fill="#e6e6e6" style=""/>
  <path d="M 297.211 441.043 C 286.318 440.199 275.699 436.76 266.029 430.949 L 257.887 425.995 L 258.098 423.545 C 258.222 422.801 258.814 422.283 259.473 422.345 L 260.191 422.353 L 369.749 424.203 C 376.92 424.305 384.024 425.785 390.77 428.58 L 414.641 438.523 L 414.628 438.667 C 414.428 440.975 412.399 442.757 410.01 442.726 L 302.092 441.274 C 300.459 441.252 298.833 441.175 297.211 441.043 Z" fill="#e6e6e6" style=""/>
  <polygon points="414.412 439.052 414.387 439.05 283.007 435.597 282.916 435.549 259.228 422.966 259.468 422.545 260.188 422.554 283.226 434.8 413.388 438.217 414.432 438.247 414.412 439.052" fill="#ccc" style=""/>
  <path d="M 312.274 423.436 L 310.607 423.409 L 272.953 422.77 L 271.171 422.742 C 279.774 433.248 298.796 435.877 326.679 431.807 L 312.274 423.436 Z" fill="#ccc" style=""/>
  <polygon points="418.135 172.138 420.432 178.268 416.677 200.034 378.381 193.926 378.686 167.382 379.455 161.571 418.135 172.138" fill="#ffb6b6" style=""/>
  <polygon points="437.921 454.244 429.471 454.244 425.451 416.858 437.921 416.858 437.921 454.244" fill="#ffb6b6" style=""/>
  <path d="M 412.788 466.896 C 412.791 469.183 414.405 471.035 416.399 471.037 L 432.473 471.037 L 435.243 464.476 L 436.319 471.037 L 442.378 471.037 L 440.674 447.602 L 437.921 447.416 L 428.668 446.784 L 427.176 446.678 L 427.176 453.317 L 414.347 463.485 C 413.371 464.259 412.787 465.534 412.788 466.896 Z" style="fill: rgb(2, 226, 242);"/>
  <polygon points="359.826 411.387 351.378 411.387 346.407 356.347 362.283 355.261 359.826 411.387" fill="#ffb6b6" style=""/>
  <path d="M 334.694 424.041 C 334.696 426.326 336.311 428.179 338.304 428.181 L 354.378 428.181 L 357.148 421.618 L 358.224 428.181 L 364.283 428.181 L 362.579 404.745 L 360.122 404.58 L 350.709 403.928 L 349.081 403.821 L 349.081 410.46 L 336.252 420.628 C 335.276 421.403 334.693 422.678 334.694 424.041 Z" style="fill: rgb(2, 226, 242);"/>
  <path d="M 441.506 422.005 L 441.474 422.005 L 439.85 361.218 C 441.985 356.493 441.916 350.854 439.667 346.198 L 439.435 345.714 L 440.039 342.507 C 440.813 338.386 440.457 334.091 439.019 330.211 L 437.504 273.509 C 442.92 233.247 417.111 206.988 417.111 206.988 L 419.483 185.885 L 377.737 186.973 L 378.447 206.988 L 370.146 239.703 C 365.778 288.525 336.378 319.212 340.848 365.898 C 340.857 366.033 340.838 366.168 340.796 366.294 C 339.879 369.491 340.184 372.986 341.635 375.912 C 341.821 376.281 341.949 376.686 342.013 377.106 C 342.933 385.29 343.053 374.936 344.274 383.05 L 344.037 383.187 C 343.182 383.525 342.814 384.884 343.218 386.22 C 343.62 387.558 344.639 388.368 345.494 388.029 L 367.809 388.303 C 368.664 387.965 369.032 386.607 368.628 385.269 C 368.227 383.931 367.206 383.123 366.353 383.46 L 364.964 384.267 L 367.287 375.548 L 368.101 374.676 C 369.77 372.891 369.549 369.787 367.652 368.333 L 369.965 354.167 L 369.636 343.452 L 370.314 331.299 L 399.595 282.625 L 411.442 349.856 L 423.541 422.681 C 422.968 423.275 422.705 424.17 422.848 425.041 C 423.077 426.276 424.038 427.15 425.139 427.128 L 441.566 427.128 C 443.043 427.127 444.113 425.513 443.72 423.878 C 443.436 422.753 442.529 421.983 441.506 422.005 Z" style="fill: rgb(91, 57, 125);"/>
  <path d="M 426.898 68.705 C 426.905 86.956 409.685 98.37 395.903 89.251 C 384.264 81.549 382.025 63.357 391.349 52.26 L 391.449 52.146 C 391.613 51.946 391.779 51.748 391.953 51.558 C 391.958 51.558 391.961 51.553 391.961 51.549 C 392.198 51.35 392.417 51.125 392.614 50.875 C 395.405 46.403 398.568 42.652 406.231 44.994 C 417.261 48.368 426.898 55.607 426.898 68.705 Z" style="fill: rgb(242, 242, 242);"/>
  <path d="M 313.363 58.555 C 313.164 63.957 317.27 68.253 321.941 67.529 L 375.243 117.71 L 383.383 101.296 L 328.429 57.129 C 327.263 50.543 320.318 47.873 315.928 52.326 C 314.365 53.911 313.439 56.162 313.363 58.555 Z" fill="#ffb6b6" style=""/>
  <path d="M 397.749 132.51 C 397.749 132.51 397.733 130.703 389.259 130.773 C 378.741 130.859 349.774 113.537 352.308 97.222 C 349.834 98.504 346.915 97.702 345.217 95.271 L 359.319 79.697 C 363.745 80.039 363.79 83.436 363.411 85.387 L 374.744 90.553 L 404.263 110.007 L 399.052 129.548 L 397.749 132.51 Z" style="fill: rgb(2, 226, 242);"/>
  <circle cx="417.933" cy="47.54" r="23.195" fill="#ffb7b7" style="" transform="matrix(0.747184, 0, 0, 0.857128, 88.865021, 33.439823)"/>
  <path d="M 377.318 173.078 C 375.345 176.099 375.486 180.292 377.657 183.13 C 377.665 183.713 377.742 184.276 378.463 186.367 C 378.557 186.569 378.667 186.761 378.793 186.94 C 378.816 186.984 378.841 187.026 378.868 187.066 C 379.627 188.192 380.682 189.007 381.878 189.389 L 413.602 199.547 L 417.796 200.889 L 418.533 201.122 L 418.94 194.549 C 420.889 192.698 421.368 189.49 420.067 186.999 L 419.483 185.891 L 422.889 175.382 L 423.219 174.342 L 431.905 147.523 L 431.912 145.735 L 431.93 143.888 L 432.014 130.999 C 432.023 122.764 428.667 115.001 422.948 110.022 C 420.378 107.771 417.416 106.179 414.263 105.356 L 414.194 105.348 L 410.764 100.049 L 396.841 101.644 L 395.688 104.356 L 394.29 107.621 L 384.199 114.513 L 380.75 123.708 L 378.419 129.93 C 374.81 132.903 372.657 136.724 372.038 141.274 C 370.716 150.935 376.614 160.608 377.318 161.716 L 377.497 172.806 L 377.318 173.078 Z" style="fill: rgb(2, 226, 242);"/>
  <path d="M 419.277 79.402 C 419.118 79.374 418.962 79.336 418.804 79.307 C 416.101 78.758 413.398 78.218 410.703 77.658 L 410.455 70.649 L 407.189 76.927 C 399.74 79.763 392.771 78.16 386.214 74.623 C 384.053 73.446 381.954 72.117 379.931 70.649 C 379.267 58.796 383.443 51.207 391.217 52.003 C 391.5 52.032 391.705 51.7 391.953 51.558 C 391.958 51.558 391.961 51.553 391.961 51.549 C 392.382 51.321 392.813 51.103 393.243 50.904 C 400.112 47.825 407.914 49.559 413.283 55.36 C 418.572 61.155 420.955 70.725 419.277 79.402 Z" style="fill: rgb(242, 242, 242);"/>
  <path d="M 418.804 79.307 C 418.804 79.307 413.671 57.324 391.663 52.25 C 391.639 52.241 391.556 52.204 391.449 52.146 C 391.382 52.099 391.299 52.052 391.217 52.003 C 391.464 51.841 391.705 51.7 391.953 51.558 C 391.958 51.558 391.961 51.553 391.961 51.549 C 392.175 51.321 392.391 51.093 392.614 50.875 L 393.243 50.904 C 393.243 50.904 415.324 46.892 418.804 79.307 Z" style="fill: rgb(253, 101, 132);"/>
  <path d="M 427.271 217.886 C 426.44 218.701 425.283 218.915 424.271 218.443 C 423.283 217.962 422.405 217.225 421.706 216.291 C 418.857 212.862 416.818 208.65 415.79 204.06 L 416.741 202.12 C 415.971 197.19 418.3 192.312 422.334 190.399 C 423.448 189.856 424.683 189.732 425.862 190.046 C 427.052 190.385 427.986 191.446 428.293 192.809 C 428.659 194.884 427.153 196.758 425.627 197.95 C 422.968 200.02 419.893 201.281 416.693 201.617 C 420.608 204.149 423.991 207.631 426.609 211.824 C 427.213 212.698 427.659 213.702 427.919 214.777 C 428.173 215.874 427.931 217.042 427.271 217.886 Z" style="fill: rgb(2, 226, 242);"/>
  <path id="be339808-9edc-488a-82d9-9b8c80f783b0-108" data-name="f02c4e45-f306-4b42-b3ad-5ddd3016d7d2" d="M 208.202 471.743 L 499.066 471.743 C 499.784 471.743 500.232 470.852 499.872 470.139 C 499.706 469.808 499.399 469.605 499.066 469.605 L 208.202 469.605 C 207.484 469.605 207.036 470.495 207.394 471.208 C 207.56 471.54 207.868 471.743 208.202 471.743 Z" fill="#ccc" style=""/>
  <path d="M 285.447 196.956 L 285.447 197.515 C 284.401 196.107 283.332 194.71 282.274 193.314 C 281.829 192.731 281.384 192.149 280.939 191.565 C 279.055 189.113 277.162 186.669 275.257 184.233 C 273.342 181.805 271.425 179.376 269.489 176.961 C 269.023 176.378 268.557 175.794 268.081 175.212 C 267.699 174.724 267.286 174.269 266.844 173.853 C 266.396 173.426 265.882 173.101 265.329 172.894 C 264.694 172.692 264.023 172.682 263.382 172.87 C 262.653 173.063 261.953 173.367 261.245 173.623 C 260.514 173.902 259.794 174.168 259.064 174.436 C 257.603 174.981 256.154 175.528 254.692 176.074 C 254.619 176.109 254.536 176.068 254.505 175.983 L 254.503 175.978 C 254.467 175.879 254.518 175.768 254.609 175.747 C 254.969 175.613 255.339 175.479 255.71 175.345 C 257.181 174.787 258.64 174.241 260.112 173.695 C 260.843 173.415 261.573 173.148 262.304 172.882 C 262.98 172.586 263.695 172.422 264.419 172.395 C 265.602 172.492 266.71 173.09 267.532 174.071 C 267.986 174.557 268.399 175.066 268.811 175.589 C 269.299 176.196 269.785 176.803 270.272 177.41 C 272.229 179.862 274.174 182.323 276.103 184.792 C 278.039 187.267 279.959 189.748 281.861 192.233 C 281.998 192.416 282.136 192.598 282.274 192.78 C 283.343 194.163 284.391 195.559 285.447 196.956 Z" fill="#fff" style=""/>
  <path d="M 266.679 176.09 C 266.278 175.499 265.747 175.045 265.137 174.775 L 264.535 174.8 C 269.259 183.232 275.448 190.455 282.715 196.02 C 277.369 189.378 272.024 182.733 266.679 176.09 Z" fill="#fff" style=""/>
  <path d="M 365.255 263.714 L 341.28 116.45 C 340.435 111.451 336.686 107.788 332.25 107.624 C 332.056 107.618 331.862 107.618 331.667 107.624 L 315.335 108.296 L 313.577 108.371 L 305.427 108.707 L 303.668 108.776 L 298.424 108.992 L 192.701 113.348 C 192.541 113.356 192.376 113.356 192.218 113.353 L 168.527 112.785 L 159.76 112.577 L 159.479 112.572 L 153.009 112.413 L 96.621 111.069 L 81.672 110.709 L 74.301 110.536 L 72.534 110.491 L 64.128 110.293 L 62.367 110.248 L 53.768 110.045 L 52.004 110 L 42.556 109.773 L 41.075 109.739 L 32.648 109.536 L 31.316 109.507 L 31.122 109.507 C 26.503 109.53 22.57 113.365 21.808 118.592 L 0.125 271.405 C -0.812 277.988 3.619 283.966 9.436 283.966 L 133.961 283.966 C 135.794 283.973 137.577 284.648 139.054 285.895 L 141.414 287.902 C 143.042 289.274 145.008 290.019 147.027 290.027 C 171.079 282.745 196.364 282.745 220.415 290.027 C 222.92 290.033 225.322 288.891 227.089 286.853 C 228.584 285.139 230.579 284.12 232.689 283.992 L 356.475 276.51 C 362.172 276.168 366.304 270.148 365.255 263.714 Z" fill="#ccc" style=""/>
  <path d="M 331.332 240.749 C 331.002 251.141 323.392 259.26 314.333 258.887 C 307.146 258.595 298.568 258.449 289.258 258.673 C 258.855 259.418 220.659 264.218 197.684 281.481 C 194.796 283.654 191.384 284.729 187.932 284.549 C 187.679 284.532 187.432 284.516 187.177 284.489 C 183.599 284.114 180.229 282.4 177.583 279.611 C 164.926 266.326 135.898 250.238 69.451 249.107 C 69.175 249.107 68.907 249.089 68.637 249.072 C 59.586 248.42 52.712 239.466 53.29 229.084 L 59.82 110.191 L 60.799 92.372 L 62.518 61.198 C 62.878 54.683 67.587 49.607 73.277 49.602 L 73.344 49.602 L 112.931 49.867 C 129.607 50.733 143.42 53.17 154.369 57.179 C 158.109 58.509 161.746 60.189 165.248 62.201 C 170.03 64.86 174.326 68.54 177.905 73.044 C 180.135 75.921 183.178 77.806 186.497 78.367 C 187.013 78.455 187.531 78.509 188.052 78.529 C 191.115 78.675 194.136 77.682 196.667 75.701 C 222.528 55.825 275.226 54.316 304.329 55.173 C 312.763 55.399 319.667 62.93 320.289 72.581 L 321.469 90.316 L 322.642 107.998 L 329.412 210.193 L 331.294 238.625 C 331.34 239.331 331.353 240.041 331.332 240.749 Z" style="paint-order: stroke;" fill="#f2f2f2"/>
  <path d="M 79.299 91.438 C 103.156 82.707 129.769 85.019 152.368 97.318 C 158.816 100.81 164.907 105.113 170.527 110.147 C 172.116 111.578 174.379 109.019 172.772 107.572 C 152.014 89.103 125.932 80.33 99.769 83.014 C 92.529 83.757 85.382 85.403 78.455 87.926 C 76.516 88.635 77.346 92.153 79.299 91.438 Z" style="fill: rgb(91, 57, 125);"/>
  <path d="M 210.568 111.56 C 232.748 98.187 259.307 95.271 283.421 102.861 C 290.297 105.021 296.94 108.052 303.231 111.897 C 305.033 113.001 306.638 109.858 304.833 108.754 C 281.85 94.685 254.261 91.446 229.163 99.287 C 222.161 101.479 215.389 104.539 208.966 108.415 C 207.156 109.506 208.759 112.652 210.568 111.56 Z" style="fill: rgb(91, 57, 125);"/>
  <path d="M 210.568 135.841 C 232.748 122.468 259.307 119.552 283.421 127.144 C 290.297 129.303 296.94 132.333 303.231 136.179 C 305.033 137.282 306.638 134.138 304.833 133.034 C 281.85 118.964 254.261 115.726 229.163 123.57 C 222.161 125.761 215.389 128.82 208.966 132.697 C 207.156 133.787 208.759 136.932 210.568 135.841 Z" style="fill: rgb(91, 57, 125);"/>
  <path d="M 305.609 158.819 C 305.644 158.18 305.334 157.581 304.828 157.31 C 286.415 146.25 265.54 141.765 244.888 144.432 C 244.758 144.442 244.639 144.466 244.499 144.478 L 244.493 144.478 C 244.367 144.491 244.24 144.513 244.116 144.543 C 231.831 146.165 219.915 150.378 208.967 156.972 C 208.482 157.304 208.183 157.904 208.184 158.551 L 208.184 203.847 C 208.201 205.041 209.188 205.9 210.194 205.596 C 210.681 205.435 211.169 205.28 211.666 205.132 C 222.734 201.695 234.096 199.656 245.551 199.051 C 245.794 199.04 246.037 199.027 246.291 199.016 C 255.62 198.556 264.968 198.943 274.244 200.168 C 274.438 200.181 274.631 200.205 274.824 200.241 C 275.301 200.299 275.786 200.365 276.264 200.436 C 276.456 200.46 276.638 200.484 276.813 200.52 C 278.668 200.787 280.508 201.089 282.352 201.417 C 285.015 201.904 287.679 202.447 290.341 203.046 C 290.507 203.081 290.678 203.129 290.848 203.165 C 295.123 204.14 299.378 205.268 303.61 206.516 C 304.619 206.815 305.605 205.951 305.621 204.757 L 305.621 158.891 C 305.623 158.867 305.618 158.842 305.609 158.819 Z" style="fill: rgb(91, 57, 125);"/>
  <path d="M 247.375 146.901 C 246.212 146.246 244.88 146.113 243.635 146.523 C 242.526 147.001 241.627 147.969 241.144 149.212 C 240.711 150.391 240.436 151.637 240.323 152.91 C 240.258 153.409 240.253 154.041 240.692 154.274 C 241.016 154.409 241.38 154.327 241.634 154.06 C 241.861 153.805 242.047 153.506 242.186 153.178 C 243.733 150.416 246.403 148.752 249.265 148.763 L 250.436 149.298 C 249.516 148.347 248.485 147.54 247.375 146.901 Z" style="fill: rgb(253, 101, 132);"/>
  <path d="M 260.063 157.34 C 259.152 155.804 258.074 154.164 256.387 153.662 C 254.431 153.081 252.424 154.235 250.72 155.374 C 245.655 158.758 240.751 162.448 236.026 166.429 L 236.03 166.49 L 246.996 165.718 C 249.637 165.531 252.368 165.319 254.703 164.044 C 255.541 163.441 256.478 163.042 257.454 162.868 C 258.679 162.945 259.827 163.578 260.643 164.63 C 265.696 170.126 267.159 178.527 272.829 183.355 C 269.221 174.285 264.95 165.583 260.063 157.34 Z" fill="#fff" style=""/>
  <path d="M 246.293 199.015 C 246.039 199.027 245.796 199.04 245.553 199.051 C 243.786 198.323 241.976 197.679 240.144 197.12 C 238.959 196.756 237.752 196.429 236.546 196.15 C 235.181 195.81 233.805 195.543 232.43 195.312 C 229.81 194.876 227.17 194.621 224.524 194.548 C 224.413 194.561 224.331 194.433 224.376 194.316 C 224.402 194.252 224.462 194.213 224.524 194.221 C 224.862 194.221 225.201 194.231 225.529 194.257 C 228.181 194.368 230.824 194.665 233.446 195.142 C 234.81 195.397 236.176 195.701 237.53 196.04 C 238.759 196.357 239.986 196.708 241.191 197.097 C 242.917 197.655 244.618 198.294 246.293 199.015 Z" fill="#fff" style=""/>
  <path d="M 276.815 200.521 C 276.636 200.484 276.455 200.46 276.265 200.435 C 275.534 199.743 274.794 199.089 274.022 198.445 C 273.058 197.643 272.064 196.89 271.046 196.186 C 268.797 194.62 266.448 193.248 264.02 192.082 C 260.181 190.249 256.207 188.811 252.145 187.786 C 247.512 186.621 242.823 185.777 238.102 185.26 C 233.381 184.701 228.64 184.361 223.898 184.021 C 223.698 184.009 223.688 183.67 223.898 183.682 C 224.492 183.731 225.084 183.766 225.688 183.815 C 230.482 184.155 235.277 184.543 240.037 185.162 C 244.761 185.744 249.444 186.677 254.061 187.955 C 258.002 189.07 261.848 190.585 265.554 192.483 C 267.686 193.582 269.751 194.843 271.735 196.259 C 272.994 197.17 274.211 198.14 275.376 199.174 C 275.862 199.609 276.35 200.047 276.815 200.521 Z" fill="#fff" style=""/>
  <path d="M 274.825 200.242 C 274.632 200.205 274.439 200.181 274.244 200.168 C 274.022 199.963 273.788 199.768 273.555 199.573 C 271.927 198.235 270.226 197.016 268.464 195.92 C 266.865 194.921 265.223 194.019 263.543 193.211 C 259.706 191.372 255.732 189.935 251.67 188.914 C 247.036 187.75 242.347 186.907 237.625 186.389 C 232.905 185.831 228.165 185.49 223.424 185.15 C 223.222 185.126 223.222 184.798 223.424 184.811 C 224.026 184.859 224.618 184.896 225.211 184.944 C 230.006 185.284 234.8 185.673 239.563 186.292 C 244.284 186.872 248.969 187.804 253.585 189.084 C 257.527 190.196 261.373 191.712 265.078 193.614 C 266.474 194.341 267.841 195.13 269.173 195.993 C 271.15 197.237 273.041 198.658 274.825 200.242 Z" fill="#fff" style=""/>
  <path d="M 290.848 203.168 C 290.68 203.131 290.51 203.083 290.34 203.046 C 290.15 202.815 289.971 202.572 289.79 202.329 C 288.881 201.127 287.981 199.914 287.091 198.687 C 283.588 193.903 280.265 188.975 277.133 183.949 C 274.445 179.651 271.894 175.267 269.482 170.8 C 268.327 168.689 267.216 166.55 266.126 164.39 C 265.28 162.715 264.454 161.036 263.65 159.352 C 263.416 158.867 263.194 158.38 262.973 157.895 C 262.453 156.754 261.935 155.601 261.385 154.471 C 260.787 153.089 259.908 151.89 258.824 150.974 C 258.281 150.558 257.653 150.312 257.003 150.259 C 256.086 150.263 255.184 150.53 254.378 151.036 C 248.457 154.199 242.871 158.129 237.732 162.752 C 232.711 167.232 228.169 172.378 224.207 178.085 C 224.079 178.255 223.803 178.097 223.92 177.914 C 224.397 177.235 224.883 176.556 225.37 175.887 C 229.179 170.717 233.47 166.04 238.164 161.938 C 238.175 161.925 238.197 161.913 238.208 161.902 C 238.62 161.526 239.032 161.162 239.455 160.809 C 242.077 158.594 244.806 156.552 247.627 154.69 C 249.066 153.73 250.537 152.821 252.04 151.958 C 252.41 151.741 252.791 151.522 253.172 151.316 C 253.553 151.097 253.934 150.89 254.316 150.683 C 255.069 150.242 255.894 149.983 256.738 149.919 C 259.681 149.87 261.193 153.269 262.242 155.563 C 262.57 156.281 262.909 156.997 263.237 157.714 C 264.506 160.42 265.829 163.116 267.206 165.775 C 268.041 167.425 268.91 169.065 269.787 170.692 C 271.046 173.01 272.338 175.305 273.682 177.586 C 273.682 177.594 273.686 177.599 273.692 177.599 C 275.248 180.295 276.868 182.941 278.541 185.576 C 281.408 190.08 284.414 194.483 287.557 198.784 C 288.637 200.265 289.735 201.726 290.848 203.168 Z" fill="#fff" style=""/>
  <path d="M 253.091 149.548 L 252.798 149.696 C 251.437 147.057 249.014 145.376 246.345 145.214 C 242.012 144.86 238.206 148.173 237.86 152.597 C 237.72 154.42 238.179 156.235 239.149 157.687 L 238.877 157.872 C 237.868 156.36 237.389 154.467 237.535 152.57 C 237.895 147.964 241.859 144.515 246.371 144.883 C 249.15 145.051 251.673 146.802 253.091 149.548 Z" fill="#ff6582" style=""/>
  <path d="M 231.68 158.5 C 229.374 157.35 226.726 157.543 224.564 159.019 C 228.454 159.704 232.308 160.623 236.111 161.771 C 234.538 160.828 233.305 159.352 231.68 158.5 Z" fill="#fff" style=""/>
  <path d="M 224.542 159.015 L 224.114 159.371 C 224.259 159.246 224.409 159.13 224.564 159.019 L 224.542 159.015 Z" fill="#fff" style=""/>
  <path d="M 237.438 161.075 C 237.267 160.883 237.097 160.689 236.927 160.493 C 235.608 158.85 234.022 157.517 232.257 156.575 C 231.358 156.14 230.394 155.912 229.419 155.903 C 228.412 155.929 227.416 156.153 226.474 156.56 C 226.028 156.74 225.595 156.945 225.168 157.164 C 224.68 157.414 224.2 157.682 223.723 157.952 C 222.827 158.458 221.943 158.988 221.069 159.538 C 219.334 160.634 217.652 161.813 216.024 163.076 C 215.18 163.732 214.353 164.408 213.545 165.105 C 212.792 165.754 212.056 166.419 211.334 167.103 C 211.178 167.248 210.947 167.013 211.103 166.868 C 211.293 166.685 211.486 166.507 211.678 166.329 C 212.222 165.827 212.774 165.336 213.334 164.853 C 214.358 163.971 215.407 163.123 216.483 162.31 C 218.157 161.045 219.888 159.865 221.676 158.771 C 222.571 158.224 223.476 157.701 224.395 157.2 C 224.673 157.049 224.953 156.902 225.236 156.762 C 225.885 156.429 226.553 156.152 227.238 155.93 C 228.217 155.607 229.244 155.505 230.259 155.628 C 231.23 155.77 232.173 156.103 233.046 156.613 C 234.777 157.724 236.339 159.152 237.668 160.841 C 237.807 161 237.578 161.237 237.438 161.075 Z" fill="#fff" style=""/>
  <path d="M 79.299 115.719 C 103.156 106.988 129.769 109.299 152.368 121.6 C 158.816 125.091 164.907 129.394 170.527 134.428 C 172.116 135.86 174.379 133.299 172.772 131.853 C 152.014 113.385 125.932 104.611 99.769 107.295 C 92.529 108.038 85.382 109.685 78.455 112.206 C 76.516 112.916 77.346 116.434 79.299 115.719 Z" style="fill: rgb(91, 57, 125);"/>
  <path d="M 79.299 139.999 C 103.156 131.268 129.769 133.581 152.368 145.88 C 158.816 149.371 164.907 153.674 170.527 158.71 C 172.116 160.141 174.379 157.581 172.772 156.134 C 152.014 137.665 125.932 128.892 99.769 131.575 C 92.529 132.319 85.382 133.966 78.455 136.488 C 76.516 137.198 77.346 140.714 79.299 139.999 Z" style="fill: rgb(91, 57, 125);"/>
  <path d="M 79.299 164.28 C 103.156 155.55 129.769 157.861 152.368 170.161 C 158.816 173.652 164.907 177.954 170.527 182.991 C 172.116 184.421 174.379 181.861 172.772 180.415 C 152.014 161.946 125.932 153.171 99.769 155.856 C 92.529 156.6 85.382 158.246 78.455 160.769 C 76.516 161.479 77.346 164.996 79.299 164.28 Z" style="fill: rgb(91, 57, 125);"/>
  <path d="M 79.299 188.563 C 103.156 179.831 129.769 182.141 152.368 194.442 C 158.816 197.934 164.907 202.237 170.527 207.272 C 172.116 208.703 174.379 206.142 172.772 204.695 C 152.014 186.227 125.932 177.454 99.769 180.139 C 92.529 180.88 85.382 182.528 78.455 185.049 C 76.516 185.759 77.346 189.277 79.299 188.562 L 79.299 188.563 Z" style="fill: rgb(91, 57, 125);"/>
  <path d="M 79.299 212.842 C 103.156 204.111 129.769 206.423 152.368 218.724 C 158.816 222.215 164.907 226.518 170.527 231.552 C 172.116 232.983 174.379 230.423 172.772 228.978 C 152.014 210.507 125.932 201.734 99.769 204.419 C 92.529 205.162 85.382 206.809 78.455 209.33 C 76.516 210.039 77.346 213.557 79.299 212.842 Z" style="fill: rgb(91, 57, 125);"/>
  <path d="M 165.248 62.201 L 165.248 120.427 C 165.248 121.583 163.484 122.552 161.109 122.818 C 161.089 122.816 161.067 122.819 161.05 122.826 C 160.653 122.86 160.234 122.886 159.807 122.886 C 158.499 122.915 157.196 122.669 155.96 122.166 C 155.848 122.114 155.737 122.055 155.624 122.003 C 155.52 121.935 155.408 121.874 155.303 121.807 C 154.713 121.403 154.369 120.932 154.369 120.427 L 154.369 57.179 C 158.109 58.509 161.746 60.189 165.248 62.201 Z" style="fill: rgb(2, 226, 242);"/>
  <rect x="186.496" y="75.706" width="1.553" height="207.626" fill="#e6e6e6" style=""/>
  <path d="M 357.08 217.841 C 361.774 217.347 364.94 212.108 363.692 206.894 L 395.953 189.618 L 415.377 153.576 L 400.11 146.506 L 387.007 175.549 L 353.843 200.899 C 348.307 203.103 346.926 211.356 351.358 215.754 C 352.936 217.32 355.003 218.074 357.08 217.841 Z" fill="#ffb6b6" style=""/>
  <path d="M 427.358 119.05 C 427.358 119.05 431.159 120.474 426.986 128.934 C 423.645 135.705 407.37 174.72 400.729 182.38 C 402.166 185.023 401.861 188.446 399.986 190.7 L 384.653 176.741 C 384.36 171.664 387.288 171.16 389.024 171.332 L 392.552 156.988 L 404.855 121.608 L 424.625 117.964 L 427.358 119.05 Z" style="fill: rgb(2, 226, 242);"/>
  <path d="M 427.689 52.734 C 428.413 49.372 433.673 46.889 424.663 42.194 C 422.476 41.055 422.567 37.13 420.717 35.375 C 418.868 33.618 416.158 32.803 414.01 34.031 C 412.09 35.127 411.009 37.61 410.777 40.056 C 410.667 42.516 410.914 44.982 411.51 47.35 L 411.336 47.644 C 414.904 50.777 418.474 53.909 422.042 57.042 C 423.355 58.193 425.069 59.399 426.538 58.535 C 428.203 57.557 427.24 54.817 427.689 52.734 Z" style="fill: rgb(242, 242, 242);"/>
</svg>