<?xml version="1.0" encoding="utf-8"?>
<svg viewBox="0 0 1250 300" xmlns="http://www.w3.org/2000/svg" xmlns:bx="https://boxy-svg.com">
  <defs>
    <linearGradient id="a" x1="1.096" x2="2.644" y1="0.261" y2="0.261" gradientUnits="userSpaceOnUse">
      <stop offset="0" stop-color="#0de99f"/>
      <stop offset="1" stop-color="#00e1ff"/>
    </linearGradient>
    <bx:grid x="500.784" y="0.386" width="902.44" height="477.252"/>
  </defs>
  <g fill-rule="nonzero" transform="matrix(464.482574, 0, 0, 480.787933, 12.212986, 11.416164)" style="">
    <path fill="#5b397d" d="M.521.325L.52.289A.092.092 0 00.51.255.064.064 0 00.486.23.088.088 0 00.44.22a.088.088 0 00-.046.01.064.064 0 00-.024.025.093.093 0 00-.01.034.334.334 0 00-.002.036v.2H.26v-.2C.26.297.263.273.268.252A.212.212 0 01.288.2.159.159 0 01.35.136.19.19 0 01.44.112a.189.189 0 01.089.024.182.182 0 01.033.025c.01.01.02.022.028.038a.233.233 0 01.02.053c.006.02.008.045.008.073v.2H.521v-.2zm.42-.052A.202.202 0 00.93.247.081.081 0 00.89.208.086.086 0 00.856.202a.086.086 0 00-.033.006.075.075 0 00-.025.016.088.088 0 00-.017.023.124.124 0 00-.01.026h.17zm.1 0a.617.617 0 01.004.052v.014H.766a.53.53 0 00.012.055.1.1 0 00.027.036.08.08 0 00.051.016A.075.075 0 00.907.43.1.1 0 00.934.394h.103a.182.182 0 01-.043.084.144.144 0 01-.03.025.21.21 0 01-.237-.016.146.146 0 01-.03-.037.205.205 0 01-.021-.053.294.294 0 01-.008-.072C.668.297.67.273.676.252A.212.212 0 01.696.2.15.15 0 01.728.16a.19.19 0 01.13-.049.248.248 0 01.079.02A.153.153 0 011 .178a.187.187 0 01.04.095zM.26.325A.33.33 0 00.259.289a.093.093 0 00-.01-.034A.064.064 0 00.225.23.088.088 0 00.179.22a.088.088 0 00-.046.01.064.064 0 00-.024.025.092.092 0 00-.01.034.328.328 0 00-.002.036v.2H0v-.2C0 .297.003.273.008.252A.212.212 0 01.028.2.159.159 0 01.089.136a.19.19 0 01.09-.024A.18.18 0 01.3.16C.31.17.32.184.33.2a.235.235 0 01.02.053c.005.02.008.045.008.073v.2H.26v-.2z"/>
    <path fill="url(#a)" d="M1.337.296h.008l.003.001h.002l.003.001h.003L1.358.3H1.367l.002.002h.006l.002.002h.003l.003.001.002.001h.003l.003.002h.002l.003.002h.002L1.4.313h.003l.002.002.003.001.002.001.002.002.002.001.002.001.003.002.002.001.004.003.003.003.004.004.003.003.004.004.003.004.003.004.002.004.001.002.002.003V.36l.002.002v.003l.001.002.001.003v.003l.001.002v.003l.001.003v.003l.001.003v.031L1.455.42l-.001.005-.001.004-.001.005-.002.004v.004l-.002.003-.002.004-.002.004-.002.003-.002.003-.002.003-.002.003-.003.003-.002.003-.003.003-.002.003-.003.002-.003.003-.003.002-.002.003-.003.002-.003.002-.004.002-.003.002L1.4.498 1.397.5l-.004.002-.003.001-.003.002-.004.001-.004.002-.003.001-.004.001-.004.002h-.003L1.36.515h-.004l-.004.002H1.35l-.004.001h-.004l-.004.001h-.004L1.33.52h-.016L1.31.522h-.008L1.3.523h-.062L1.236.52h-.012L1.222.518h-.003L1.217.517h-.003L1.212.516h-.005L1.204.514H1.2L1.196.511h-.003L1.191.51h-.003L1.185.509 1.182.508 1.18.507 1.177.506 1.174.505 1.171.504 1.17.503 1.166.5h-.002L1.16.498h-.002L1.156.496 1.153.495 1.151.493 1.149.492 1.146.49 1.144.488 1.142.486 1.139.485 1.137.483 1.135.48 1.133.479 1.13.477 1.129.475 1.127.473 1.125.47 1.123.468 1.12.466 1.119.463 1.117.461 1.116.458 1.114.456 1.112.453 1.111.45 1.109.447 1.108.444 1.106.441 1.105.438 1.104.435 1.103.432 1.102.429 1.1.425V.422L1.099.418V.414L1.097.411V.407L1.096.403V.397h.075V.4l.001.003v.003l.002.003v.003l.002.003.002.003.002.003.002.003.002.003.003.003.002.003.004.002.003.003L1.2.44l.004.003.004.002.004.002.005.002h.002l.003.002h.003l.003.001h.003l.003.002h.006l.003.001h.003l.004.001h.011l.003.001h.046l.004-.001h.006l.003-.001h.003L1.33.453l.005-.001L1.34.45h.004l.004-.001.005-.002.003-.002.004-.002.003-.002.003-.002.003-.002.002-.002.002-.003.002-.002.002-.003V.424L1.38.422V.413l.001-.002V.394L1.38.39 1.377.387V.384L1.375.381 1.374.38 1.372.376 1.369.374 1.367.372 1.364.37 1.361.368 1.358.366 1.354.365 1.351.363 1.346.362 1.342.36h-.005L1.332.358 1.327.357h-.003L1.32.355h-.003L1.315.354h-.007L1.304.353h-.007L1.293.352h-.017L1.27.351h-.018L1.249.35H1.236L1.232.348h-.006L1.222.346H1.22L1.215.345h-.003L1.208.342h-.003L1.202.34h-.003L1.195.338h-.003L1.19.336h-.004L1.183.334 1.18.333 1.177.332 1.174.33h-.002L1.169.327 1.166.325 1.163.324 1.161.322 1.158.32 1.156.318 1.153.317 1.151.315 1.149.313 1.146.31 1.144.309 1.142.306 1.14.304 1.138.302 1.136.3 1.134.297 1.133.295 1.13.293 1.129.29 1.128.288 1.126.285 1.125.283 1.124.28 1.123.277 1.122.274 1.12.272V.266L1.117.263V.254L1.116.25V.225l.001-.003.001-.004V.215L1.12.212V.208l.002-.003V.202L1.126.2l.002-.003.001-.003L1.13.19V.188l.002-.003.002-.003.002-.002.002-.003.001-.003.003-.002.002-.002.002-.003.002-.002.002-.002.003-.002.002-.002.003-.002.002-.002.003-.002.003-.002.002-.001.003-.002.003-.002.003-.001.003-.002.003-.001.003-.002.004-.001.003-.002h.003L1.2.134l.004-.001.003-.001.004-.001.003-.001.004-.001.003-.001h.004L1.23.126h.007L1.24.125h.004l.004-.001h.003l.004-.001h.046l.003.001h.006l.003.001h.004l.003.001h.004l.003.001h.004l.003.002h.004l.003.001.003.001.004.001.003.001.004.002h.003l.003.002.004.002.003.001.003.002.004.001.003.002.003.002.003.002.003.002.003.002.003.002.003.002.003.002.002.003.003.003.003.002.002.003.003.003.002.003.003.003.002.003.002.003.002.003.002.004.002.003.002.004.001.004.001.004.002.004v.005l.001.004.001.005V.23l.001.005V.24h-.075V.238L1.36.235 1.359.232 1.358.228 1.356.225 1.355.222 1.353.22 1.352.216 1.35.214 1.348.21 1.345.209 1.343.206 1.341.204 1.338.202 1.335.199 1.33.198 1.328.196 1.324.194 1.32.193 1.316.192 1.312.19h-.004L1.303.189 1.3.188h-.005L1.289.186h-.037l-.004.001-.004.001h-.003L1.237.19h-.003L1.23.194l-.003.001-.003.002-.003.001L1.217.2h-.003L1.21.204 1.204.21 1.2.213 1.196.22l-.003.006-.002.006-.001.006V.25l.001.006.002.006.003.005.004.005.004.004.005.004.006.003.003.001.003.001.003.001.003.001.003.001h.003l.003.002h.007l.003.001h.007l.004.001H1.3v.002h.02l.002.001h.008l.003.001h.005zm.25-.09v.19L1.588.4l.001.003.001.003.002.003V.41l.003.003.001.002.002.003L1.6.42l.002.002.002.002.003.002.002.002.002.001.003.002.003.001.003.002.004.002h.003l.004.002h.004L1.64.44h.058v.075h-.089L1.605.513h-.003L1.598.512h-.006L1.588.51h-.003L1.582.507H1.58L1.576.505h-.003L1.57.503 1.567.502 1.564.5h-.003L1.56.497 1.557.496 1.554.494 1.552.493 1.55.49h-.002L1.546.487 1.543.485 1.541.483 1.54.481 1.537.48 1.535.477 1.533.474 1.53.472 1.529.469 1.527.466 1.525.464 1.523.46 1.522.458 1.52.455V.452L1.517.45V.446L1.516.442 1.515.438 1.514.435V.43L1.512.426V.422L1.511.417V.025h.075v.109h.237v.38H1.75V.207h-.162zm.162-.173V.004L1.75.003V.001h.002L1.753 0h.066l.002.001h.001v.001h.001V.01l.001.003v.049l-.001.001-.001.001H1.82l-.001.001h-.067L1.75.063V.04L1.748.037V.033zm.303.162h-.011l-.004.001h-.004L2.03.198h-.004L2.023.2h-.006l-.004.002H2.01l-.003.002-.003.002-.002.001-.003.002-.005.003-.004.004-.005.004-.004.004-.004.004-.003.005-.003.005-.003.005-.001.002-.002.003V.25l-.002.003v.002L1.96.258V.26l-.002.003v.003l-.001.002-.001.003v.003l-.001.002V.28l-.001.003v.003l-.001.002V.29l-.001.003V.3l-.001.003v.01L1.95.315v.031l.001.003v.005l.001.002v.006l.001.002v.003l.001.003v.003l.001.002v.003l.002.003v.002l.001.003.001.003.001.002.001.003.001.002.001.003.001.002.002.003.001.002.003.005.003.005.003.005.004.004.004.004.005.004.004.004L2 .44l.003.002.002.001.003.002.003.001.003.002h.004L2.02.45h.003l.003.001.004.001h.003l.004.001h.038L2.078.45h.007l.003-.001.003-.001.003-.002.003-.001L2.1.443l.003-.001.003-.002.005-.003.004-.004.004-.004.004-.004.004-.004.004-.005.003-.005.003-.005V.404L2.14.4l.001-.003.001-.002.001-.003.001-.002.001-.003.001-.003V.381l.002-.003V.375L2.15.373V.362l.001-.003V.354L2.153.35V.346l.001-.002V.298L2.151.295V.29L2.15.287V.279L2.149.276V.274L2.147.27V.266L2.144.263V.26L2.142.258V.255L2.14.253V.25L2.138.248V.245L2.137.243 2.134.238 2.13.233 2.127.228 2.123.224 2.12.22 2.115.216 2.111.212 2.106.21 2.103.207 2.1.206 2.097.204 2.094.203 2.091.202 2.088.2h-.003L2.08.198h-.005L2.07.196h-.003L2.064.195h-.012zm-.177.13V.296L1.877.29V.287l.001-.004V.278l.001-.004L1.88.27V.266l.002-.004V.26l.001-.004.001-.004.001-.003.001-.004.002-.003V.237L1.89.234V.23l.001-.004.001-.003.002-.003.001-.003.001-.003.002-.003.001-.003.002-.002.001-.003L1.904.2h.001l.002-.003.002-.002L1.91.19h.002l.002-.002.002-.002.001-.003L1.92.18l.002-.002.002-.002.002-.002.001-.001.002-.002.002-.002.004-.004.005-.003.004-.003.004-.003.004-.003.004-.002.004-.003.004-.002.005-.003.005-.002.005-.002.005-.003.005-.001.006-.002L2 .131 2.006.13l.005-.002h.006l.006-.002h.006l.006-.002h.036l.006.001.006.001.006.001.006.001L2.1.13l.006.001.005.002.006.002.005.001.005.003.005.002.005.002.005.003.004.002.004.003.004.002.004.003.004.003.004.003.004.003.004.004.002.002.002.002.002.001.002.002.002.002.002.002.002.002.001.003.002.002.002.002.001.002.002.003.002.002.001.003L2.2.2v.004l.002.003.001.002.002.003.001.003.002.003.001.003.001.003.002.003.001.004.001.003.001.003.002.004v.003l.002.004V.25l.002.004v.004l.002.004v.003l.001.004.001.004V.28l.001.004v.004l.001.004v.005L2.23.3v.058l-.001.004v.004l-.001.005-.001.004v.004l-.001.004-.001.004-.001.003-.001.004-.001.004L2.22.4l-.001.004-.001.003-.002.004v.003l-.002.003-.001.004-.002.003v.003L2.208.43l-.002.003-.001.003-.001.002-.002.003-.001.003L2.2.447 2.198.45l-.001.002-.002.003-.002.002-.001.002-.002.002-.002.003-.001.002-.002.002-.002.002-.002.002-.002.002-.002.001-.001.002-.002.002-.004.003-.005.004-.004.003-.004.003-.004.002-.004.003L2.145.5l-.004.002-.005.002-.005.002-.005.003-.005.002-.005.001-.006.002-.005.002-.006.001-.005.001-.006.001-.006.001-.005.001H2.07l-.006.001h-.037L2.022.52h-.006L2.01.517h-.005L1.999.516 1.994.514 1.988.512 1.983.511 1.978.509 1.973.506 1.968.504 1.963.502 1.959.5 1.955.497 1.95.494 1.947.492 1.942.489 1.938.486 1.934.482 1.93.48 1.928.477 1.926.475 1.925.474 1.923.472 1.92.47 1.919.468 1.917.466 1.915.464 1.914.46h-.002L1.91.457V.455L1.907.452 1.905.45 1.904.447 1.902.445 1.901.442 1.899.439 1.898.437 1.896.434V.43L1.893.428 1.892.425V.422L1.89.419 1.889.415 1.888.412 1.887.409 1.885.405V.402L1.882.398V.394L1.88.39V.379L1.877.375V.366L1.876.362V.358L1.875.353V.34L1.874.334V.325zm.646-.03h.003l.002.001h.006l.003.001h.002l.003.001h.003L2.545.3h.007l.003.001.003.001h.002l.003.002h.003l.003.001.002.001h.003l.002.002h.003l.002.002h.003l.002.002h.003l.002.002.002.001.003.001.002.002.002.001.002.001.002.002.002.001.004.003.004.003.004.004.003.003.004.004.003.004.002.004.003.004.001.002.001.003.001.002.001.002.001.003.001.002V.37l.002.003v.005l.001.003v.006l.001.003v.022l-.001.005V.42l-.001.005L2.64.43v.005l-.002.004-.001.004-.002.003-.001.004-.002.004-.002.003-.002.003-.002.003-.002.003L2.62.47v.002l-.003.003-.003.003-.002.002-.003.003-.003.002-.003.003L2.6.49l-.003.002-.003.002-.003.002-.003.002L2.584.5 2.58.502l-.003.001-.004.002-.003.001-.004.002-.003.001-.004.001-.004.002h-.003l-.004.002h-.004L2.54.517h-.004l-.004.001H2.53l-.004.001H2.52L2.516.52h-.015l-.004.001h-.008l-.003.001h-.061L2.423.52h-.012L2.41.518h-.003L2.404.517H2.4V.516h-.007L2.391.514h-.005L2.383.511H2.38L2.377.51h-.002L2.372.509 2.369.508 2.366.507 2.364.506 2.36.505 2.358.504 2.356.503 2.353.5H2.35L2.348.498h-.003L2.343.496 2.34.495 2.338.493 2.335.492 2.333.49 2.331.488 2.328.486 2.326.485 2.324.483 2.322.48 2.319.479 2.317.477 2.315.475 2.313.473 2.311.47 2.31.468 2.308.466 2.306.463 2.304.461 2.302.458 2.301.456 2.299.453 2.297.45 2.296.447 2.294.444 2.293.441 2.292.438 2.29.435V.432L2.287.429V.425L2.286.422V.418L2.285.414V.411L2.283.407v-.01h.075V.4l.001.003v.003l.002.003v.003l.002.003.002.003.002.003.002.003.002.003.002.003.003.003.003.002.004.003.004.002.003.003.005.002.004.002.005.002h.002l.003.002h.003l.002.001h.003l.003.002h.007l.003.001h.007l.003.001h.007l.004.001h.046l.004-.001h.006L2.51.454h.003l.003-.001.005-.001.005-.002h.005l.004-.002.004-.002.004-.002.004-.002L2.55.44l.003-.002.002-.002.003-.002.002-.003.002-.002.001-.003.002-.003V.422l.001-.003V.417l.001-.002V.411l.001-.002V.396L2.566.394V.387L2.563.384 2.562.381 2.561.38 2.559.376 2.556.374 2.554.372 2.55.37 2.548.368 2.545.366 2.54.365 2.537.363 2.533.362 2.53.36h-.006L2.519.358 2.514.357H2.51L2.508.355h-.003L2.5.354h-.006L2.49.353h-.008L2.48.352h-.017L2.458.351H2.44L2.436.35H2.423L2.419.348h-.007L2.41.346h-.008L2.399.343h-.004L2.392.341h-.003L2.385.34h-.003L2.38.337h-.004L2.373.336 2.37.334h-.003L2.364.331 2.361.33h-.003L2.356.327 2.353.325 2.35.324 2.347.322 2.345.32 2.342.318 2.34.317 2.338.315 2.335.313 2.333.31 2.331.309 2.329.306 2.327.304 2.325.302 2.323.3 2.321.297 2.32.295 2.318.293 2.316.29 2.315.288 2.313.285 2.312.283 2.31.28 2.309.277V.275L2.306.272V.263L2.304.26V.257L2.303.254V.225l.001-.003V.218l.002-.003V.21L2.31.208V.205l.002-.003V.2l.001-.003.002-.003.001-.003.002-.002.002-.003.002-.003.001-.002.002-.003.002-.003.002-.002.002-.002.003-.003.002-.002.002-.002.003-.002.002-.002.003-.002.002-.002.003-.002.002-.002.003-.001.003-.002.003-.002.003-.001.003-.002.003-.001.003-.002.003-.001.004-.002h.003l.003-.002.004-.001.003-.001.004-.001L2.4.13h.005l.003-.001h.004l.004-.002h.007l.004-.001h.004l.003-.001h.004l.004-.001h.045l.003.001h.007L2.5.127h.004l.003.001h.004l.003.001h.004L2.52.13h.003l.004.001.003.001.004.001.003.001.003.002h.004l.003.002.003.002.004.001.003.002.003.001.004.002.003.002.003.002.003.002.003.002.003.002.003.002.002.002.003.003.003.003.003.002.002.003.003.003.002.003.003.003.002.003.002.003.002.003.002.004.002.003.001.004.002.004.001.004.001.004.001.005.001.004.001.005V.23l.001.005V.24h-.075V.238L2.545.235V.232L2.543.228V.225L2.541.222 2.54.22 2.538.216 2.537.214 2.534.21 2.532.209 2.53.206 2.527.204 2.525.202 2.52.199 2.518.198 2.515.196 2.51.194 2.507.193 2.503.192 2.5.19h-.004L2.49.189 2.486.188h-.01L2.47.186h-.032l-.004.001-.004.001h-.003L2.423.19H2.42l-.003.002-.003.001-.004.002-.003.001L2.404.2h-.003l-.005.003L2.39.21l-.005.004-.003.006-.003.006-.002.006-.001.006v.018l.003.006.003.005.003.005.005.004.005.004.006.003.002.001.003.001.003.001.003.001.003.001h.004l.003.002h.007l.003.001h.007l.004.001h.042l.002.001h.017l.003.001h.008l.002.001h.003z"/>
  </g>
</svg>