<?xml version="1.0" encoding="utf-8"?>
<svg viewBox="0 0 300 300" xmlns="http://www.w3.org/2000/svg" xmlns:bx="https://boxy-svg.com">
  <defs>
    <bx:grid x="0" y="0" width="71.427" height="67.315"/>
  </defs>
  <path d="M 333.255 336.339 L 333.255 246.682 C 333.255 246.501 333.457 246.388 333.62 246.478 C 333.694 246.52 333.742 246.598 333.742 246.682 L 333.742 336.339 C 333.742 336.521 333.538 336.634 333.377 336.542 C 333.299 336.501 333.255 336.424 333.255 336.339 Z" fill="#f0f0f0" style=""/>
  <circle cx="778.47998" cy="480" r="16" fill="#f0f0f0" transform="matrix(0.253937, 0, 0, 0.245689, 132.832489, 214.713196)" style=""/>
  <path d="M -878.127 796.747 C -878.126 796.922 -878.271 797.063 -878.45 797.063 L -1001.62 797.063 C -1001.869 797.063 -1002.025 796.8 -1001.9 796.59 C -1001.843 796.492 -1001.736 796.432 -1001.62 796.432 L -878.45 796.432 C -878.271 796.432 -878.126 796.573 -878.127 796.747 Z" fill="#cacaca" style=""/>
  <path d="M 20.218 -346.193 C 7.423 -359.051 2.02 -372.462 5.003 -383.959 C 8.829 -398.713 25.828 -408.916 51.641 -411.947 L 51.738 -411.102 C 26.283 -408.112 9.542 -398.139 5.809 -383.741 C 2.907 -372.553 8.232 -359.432 20.803 -346.801 L 20.218 -346.193 Z" fill="#f0f0f0" style=""/>
  <path d="M 143.657 -300.559 C 127.69 -300.559 110.338 -302.981 93.103 -307.638 C 71.789 -313.398 52.247 -322.092 36.589 -332.78 L 37.053 -333.486 C 52.635 -322.851 72.091 -314.197 93.317 -308.463 C 112.498 -303.278 131.822 -300.876 149.195 -301.511 L 149.224 -300.658 C 147.39 -300.592 145.534 -300.559 143.657 -300.559 Z" fill="#f0f0f0" style=""/>
  <path d="M 180.289 -305.915 L 180.021 -306.722 C 194.302 -311.65 203.234 -319.589 205.853 -329.683 C 209.179 -342.513 201.951 -357.402 185.497 -371.606 C 168.959 -385.883 145.111 -397.729 118.344 -404.963 L 118.558 -405.785 C 145.441 -398.522 169.406 -386.613 186.035 -372.256 C 202.749 -357.828 210.074 -342.631 206.659 -329.465 C 203.966 -319.083 194.847 -310.939 180.289 -305.915 Z" fill="#f0f0f0" style=""/>
  <path d="M 49.158 -300.202 C 17.783 -314.406 -6.395 -332.835 -18.92 -352.093 L -18.225 -352.564 C -5.786 -333.439 18.264 -315.121 49.496 -300.982 L 49.158 -300.202 Z" fill="#f0f0f0" style=""/>
  <path d="M 159.471 -275.595 C 156.235 -275.595 152.943 -275.668 149.596 -275.816 L 149.633 -276.667 C 174.608 -275.565 196.644 -278.615 213.364 -285.491 L 213.676 -284.702 C 199.091 -278.703 180.502 -275.595 159.471 -275.595 Z" fill="#f0f0f0" style=""/>
  <path d="M 141.267 -411.183 C 136.081 -412.907 130.747 -414.512 125.413 -415.954 C 94.717 -424.248 64.543 -427.193 38.151 -424.469 L 38.067 -425.316 C 64.557 -428.049 94.834 -425.097 125.626 -416.776 C 130.976 -415.331 136.324 -413.723 141.525 -411.994 L 141.267 -411.183 Z" fill="#f0f0f0" style=""/>
  <path d="M 0.609 -344.917 C -12.185 -357.773 -17.589 -371.184 -14.607 -382.683 C -10.78 -397.436 6.22 -407.638 32.033 -410.67 L 32.129 -409.824 C 6.674 -406.834 -10.066 -396.861 -13.799 -382.463 C -16.701 -371.274 -11.376 -358.156 1.195 -345.523 L 0.609 -344.917 Z" fill="#f0f0f0" style=""/>
  <path d="M 124.048 -299.282 C 108.081 -299.282 90.73 -301.703 73.494 -306.361 C 52.18 -312.121 32.639 -320.814 16.98 -331.502 L 17.444 -332.209 C 33.027 -321.574 52.482 -312.92 73.708 -307.184 C 92.889 -302.001 112.213 -299.599 129.586 -300.233 L 129.616 -299.382 C 127.781 -299.315 125.926 -299.281 124.048 -299.282 Z" fill="#f0f0f0" style=""/>
  <path d="M 160.68 -304.638 L 160.413 -305.444 C 174.694 -310.372 183.626 -318.312 186.244 -328.405 C 189.571 -341.237 182.342 -356.124 165.888 -370.329 C 149.35 -384.605 125.502 -396.452 98.736 -403.685 L 98.95 -404.508 C 125.832 -397.244 149.797 -385.336 166.427 -370.979 C 183.141 -356.55 190.464 -341.353 187.051 -328.187 C 184.358 -317.804 175.239 -309.663 160.68 -304.638 Z" style="" fill="#f0f0f0"/>
  <path d="M 29.549 -298.925 C -1.827 -313.128 -26.003 -331.557 -38.528 -350.816 L -37.833 -351.285 C -25.395 -332.162 -1.344 -313.843 29.887 -299.704 L 29.549 -298.925 Z" fill="#f0f0f0" style=""/>
  <path d="M 139.863 -274.317 C 136.626 -274.317 133.335 -274.391 129.988 -274.538 L 130.023 -275.389 C 154.999 -274.287 177.036 -277.336 193.755 -284.215 L 194.067 -283.425 C 179.483 -277.426 160.893 -274.317 139.863 -274.317 Z" fill="#f0f0f0" style=""/>
  <path d="M 121.658 -409.907 C 116.471 -411.629 111.138 -413.235 105.804 -414.676 C 75.108 -422.971 44.935 -425.915 18.542 -423.191 L 18.458 -424.039 C 44.949 -426.772 75.226 -423.82 106.017 -415.5 C 111.366 -414.054 116.716 -412.445 121.916 -410.715 L 121.658 -409.907 Z" fill="#f0f0f0" style=""/>
  <path d="M -24.306 -367.729 C -18.31 -374.593 -8.745 -378.775 -0.076 -376.271 C -8.073 -370.494 -13.81 -362.017 -16.273 -352.337 C -17.21 -348.602 -17.87 -344.347 -20.915 -342.063 C -22.808 -340.642 -25.317 -340.302 -27.648 -340.626 C -29.977 -340.949 -32.18 -341.875 -34.352 -342.79 L -34.937 -342.739 C -33.256 -351.773 -30.302 -360.866 -24.306 -367.729 Z" fill="#f2f2f2" style=""/>
  <path d="M -0.103 -376.08 C -7.35 -374.289 -13.86 -370.212 -18.708 -364.43 C -19.774 -363.204 -20.643 -361.815 -21.285 -360.312 C -21.863 -358.827 -22.041 -357.212 -21.801 -355.634 C -21.607 -354.158 -21.24 -352.672 -21.4 -351.172 C -21.59 -349.623 -22.416 -348.229 -23.675 -347.343 C -25.197 -346.206 -27.028 -345.699 -28.835 -345.265 C -30.842 -344.782 -32.933 -344.315 -34.569 -342.953 C -34.767 -342.789 -35.006 -343.113 -34.808 -343.276 C -31.962 -345.645 -28.008 -345.341 -24.858 -347.062 C -23.39 -347.864 -22.148 -349.123 -21.847 -350.851 C -21.583 -352.363 -21.959 -353.896 -22.169 -355.39 C -22.425 -356.927 -22.309 -358.503 -21.83 -359.983 C -21.266 -361.514 -20.451 -362.935 -19.419 -364.186 C -17.14 -367.043 -14.435 -369.513 -11.406 -371.512 C -7.959 -373.811 -4.152 -375.494 -0.15 -376.482 C 0.098 -376.544 0.143 -376.141 -0.103 -376.08 Z" fill="#fff" style=""/>
  <path d="M -17.254 -366.385 C -18.99 -368.373 -19.059 -371.35 -17.419 -373.418 C -17.257 -373.621 -16.942 -373.374 -17.103 -373.171 C -18.635 -371.247 -18.565 -368.471 -16.938 -366.629 C -16.767 -366.436 -17.085 -366.193 -17.254 -366.385 Z" fill="#fff" style=""/>
  <path d="M -21.997 -356.369 C -19.422 -356.194 -16.877 -357.018 -14.87 -358.674 C -14.67 -358.837 -14.431 -358.515 -14.63 -358.35 C -16.722 -356.63 -19.372 -355.78 -22.052 -355.968 C -22.307 -355.986 -22.251 -356.388 -21.997 -356.369 Z" fill="#fff" style=""/>
  <path d="M -7.87 -373.282 C -7.363 -372.386 -6.45 -371.809 -5.439 -371.748 C -5.182 -371.733 -5.239 -371.33 -5.492 -371.345 C -6.61 -371.419 -7.62 -372.054 -8.187 -373.037 C -8.249 -373.129 -8.232 -373.252 -8.148 -373.322 C -8.06 -373.389 -7.937 -373.37 -7.87 -373.282 Z" fill="#fff" style=""/>
  <path d="M 12.228 -347.782 C 12.068 -347.787 11.908 -347.792 11.746 -347.794 C 9.598 -347.843 7.449 -347.716 5.321 -347.411 C 5.156 -347.39 4.989 -347.367 4.825 -347.341 C -0.294 -346.55 -5.225 -344.796 -9.717 -342.168 C -11.504 -341.12 -13.21 -339.936 -14.82 -338.626 C -17.044 -336.813 -19.315 -334.668 -21.918 -333.741 C -22.189 -333.64 -22.465 -333.557 -22.745 -333.492 L -34.83 -342.014 C -34.848 -342.048 -34.867 -342.078 -34.885 -342.113 L -35.383 -342.43 C -35.305 -342.504 -35.222 -342.578 -35.144 -342.651 C -35.098 -342.694 -35.05 -342.736 -35.005 -342.778 C -34.973 -342.807 -34.943 -342.833 -34.917 -342.862 C -34.906 -342.871 -34.895 -342.88 -34.886 -342.888 C -34.86 -342.912 -34.833 -342.935 -34.808 -342.96 C -34.346 -343.378 -33.881 -343.793 -33.411 -344.207 C -33.408 -344.209 -33.408 -344.209 -33.404 -344.211 C -29.818 -347.348 -25.944 -350.208 -21.767 -352.376 C -21.641 -352.441 -21.515 -352.51 -21.384 -352.571 C -19.496 -353.537 -17.534 -354.344 -15.517 -354.985 C -14.412 -355.332 -13.29 -355.622 -12.156 -355.853 C -9.225 -356.445 -6.22 -356.564 -3.253 -356.202 C 2.662 -355.48 8.284 -352.837 11.951 -348.144 C 12.044 -348.023 12.135 -347.905 12.228 -347.782 Z" fill="#f2f2f2" style=""/>
  <path d="M 12.095 -347.645 C 5.252 -350.67 -2.35 -351.416 -9.632 -349.776 C -11.206 -349.453 -12.72 -348.877 -14.118 -348.072 C -15.455 -347.243 -16.55 -346.063 -17.29 -344.656 C -18.005 -343.357 -18.589 -341.945 -19.601 -340.846 C -20.666 -339.726 -22.149 -339.121 -23.676 -339.186 C -25.561 -339.215 -27.323 -339.934 -29.022 -340.699 C -30.909 -341.547 -32.854 -342.458 -34.963 -342.377 C -35.219 -342.368 -35.219 -342.772 -34.964 -342.783 C -31.295 -342.925 -28.316 -340.251 -24.788 -339.688 C -23.141 -339.428 -21.406 -339.67 -20.146 -340.865 C -19.044 -341.91 -18.441 -343.366 -17.727 -344.687 C -17.027 -346.071 -16.003 -347.257 -14.747 -348.145 C -13.395 -349.021 -11.905 -349.655 -10.343 -350.02 C -6.84 -350.899 -3.222 -351.211 0.376 -350.944 C 4.485 -350.662 8.515 -349.665 12.295 -347.996 C 12.529 -347.892 12.327 -347.542 12.095 -347.645 Z" fill="#fff" style=""/>
  <path d="M -7.318 -350.445 C -7.531 -353.098 -5.831 -355.518 -3.3 -356.161 C -3.052 -356.223 -2.947 -355.833 -3.195 -355.772 C -5.552 -355.176 -7.134 -352.916 -6.922 -350.446 C -6.898 -350.186 -7.296 -350.187 -7.318 -350.445 Z" fill="#fff" style=""/>
  <path d="M -17.012 -345.362 C -15.059 -343.641 -12.542 -342.733 -9.962 -342.822 C -9.707 -342.83 -9.707 -342.426 -9.962 -342.416 C -12.647 -342.33 -15.264 -343.279 -17.293 -345.076 C -17.486 -345.248 -17.205 -345.534 -17.012 -345.362 Z" fill="#fff" style=""/>
  <path d="M 4.244 -350.185 C 4.118 -349.158 4.507 -348.136 5.279 -347.464 C 5.475 -347.296 5.193 -347.009 4.999 -347.177 C 4.151 -347.922 3.718 -349.05 3.846 -350.184 C 3.85 -350.295 3.936 -350.383 4.044 -350.386 C 4.154 -350.385 4.243 -350.296 4.244 -350.185 Z" fill="#fff" style=""/>
  <path d="M 210.648 -311.475 C 207.26 -319.995 199.628 -327.215 190.64 -327.831 C 196.269 -319.646 198.881 -309.694 198.014 -299.735 C 197.666 -295.894 196.887 -291.66 199.001 -288.464 C 200.317 -286.476 202.569 -285.295 204.869 -284.8 C 207.171 -284.306 209.549 -284.421 211.897 -284.539 L 212.431 -284.29 C 213.821 -293.375 214.035 -302.954 210.648 -311.475 Z" fill="#f2f2f2" style=""/>
  <path d="M 190.602 -327.641 C 196.838 -323.468 201.627 -317.396 204.289 -310.285 C 204.888 -308.767 205.249 -307.16 205.359 -305.525 C 205.415 -303.928 205.052 -302.346 204.306 -300.941 C 203.636 -299.618 202.802 -298.344 202.459 -296.877 C 202.126 -295.351 202.446 -293.756 203.34 -292.488 C 204.399 -290.898 205.957 -289.79 207.516 -288.761 C 209.247 -287.62 211.063 -286.462 212.155 -284.618 C 212.288 -284.395 212.619 -284.618 212.487 -284.842 C 210.587 -288.048 206.762 -289.118 204.363 -291.817 C 203.243 -293.079 202.489 -294.691 202.773 -296.422 C 203.023 -297.936 203.883 -299.251 204.572 -300.585 C 205.319 -301.944 205.728 -303.47 205.765 -305.028 C 205.737 -306.663 205.437 -308.281 204.878 -309.814 C 203.673 -313.284 201.939 -316.541 199.742 -319.463 C 197.254 -322.811 194.222 -325.7 190.778 -328.005 C 190.566 -328.148 190.39 -327.783 190.602 -327.641 Z" fill="#fff" style=""/>
  <path d="M 203.564 -312.628 C 205.852 -313.903 206.897 -316.684 206.034 -319.194 C 205.949 -319.44 205.57 -319.317 205.655 -319.07 C 206.465 -316.733 205.485 -314.141 203.346 -312.966 C 203.121 -312.841 203.341 -312.504 203.564 -312.628 Z" fill="#fff" style=""/>
  <path d="M 204.731 -301.567 C 202.249 -302.286 200.123 -303.934 198.777 -306.181 C 198.645 -306.404 198.313 -306.181 198.446 -305.96 C 199.85 -303.622 202.066 -301.911 204.651 -301.17 C 204.898 -301.099 204.977 -301.496 204.731 -301.567 Z" fill="#fff" style=""/>
  <path d="M 196.996 -322.343 C 196.224 -321.672 195.173 -321.441 194.2 -321.73 C 193.954 -321.805 193.876 -321.408 194.119 -321.335 C 195.196 -321.02 196.355 -321.272 197.214 -322.004 C 197.302 -322.068 197.327 -322.19 197.27 -322.284 C 197.209 -322.377 197.087 -322.403 196.996 -322.343 Z" fill="#fff" style=""/>
  <path d="M 169.671 -305.222 C 169.823 -305.171 169.975 -305.121 170.128 -305.067 C 172.168 -304.376 174.15 -303.519 176.054 -302.503 C 176.201 -302.426 176.351 -302.347 176.497 -302.266 C 181.058 -299.764 185.125 -296.422 188.49 -292.406 C 189.828 -290.806 191.045 -289.105 192.13 -287.317 C 193.628 -284.849 195.061 -282.048 197.207 -280.281 C 197.429 -280.094 197.662 -279.92 197.905 -279.764 L 212.091 -283.644 C 212.12 -283.669 212.148 -283.692 212.176 -283.718 L 212.75 -283.846 C 212.7 -283.941 212.646 -284.04 212.597 -284.136 C 212.568 -284.193 212.537 -284.249 212.509 -284.304 C 212.487 -284.34 212.468 -284.377 212.452 -284.412 C 212.446 -284.424 212.439 -284.437 212.433 -284.446 C 212.416 -284.48 212.397 -284.511 212.383 -284.542 C 212.085 -285.094 211.783 -285.646 211.476 -286.196 C 211.476 -286.2 211.476 -286.2 211.472 -286.201 C 209.129 -290.388 206.421 -294.41 203.201 -297.884 C 203.105 -297.989 203.006 -298.096 202.904 -298.2 C 201.444 -299.758 199.862 -301.192 198.174 -302.487 C 197.247 -303.193 196.286 -303.851 195.294 -304.457 C 192.728 -306.021 189.937 -307.161 187.024 -307.839 C 181.215 -309.19 175.049 -308.63 170.051 -305.467 C 169.923 -305.386 169.798 -305.306 169.671 -305.222 Z" fill="#f2f2f2" style=""/>
  <path d="M 169.751 -305.047 C 177.192 -305.547 184.598 -303.64 190.916 -299.6 C 192.292 -298.755 193.527 -297.695 194.58 -296.455 C 195.567 -295.215 196.21 -293.729 196.443 -292.149 C 196.688 -290.681 196.774 -289.15 197.364 -287.769 C 197.999 -286.348 199.195 -285.27 200.656 -284.806 C 202.44 -284.188 204.336 -284.26 206.188 -284.398 C 208.244 -284.55 210.377 -284.741 212.337 -283.94 C 212.574 -283.843 212.708 -284.226 212.47 -284.321 C 209.062 -285.715 205.377 -284.218 201.868 -284.9 C 200.231 -285.218 198.677 -286.043 197.884 -287.599 C 197.19 -288.962 197.101 -290.538 196.864 -292.029 C 196.658 -293.572 196.087 -295.041 195.197 -296.308 C 194.21 -297.596 193.016 -298.705 191.666 -299.585 C 188.655 -301.614 185.351 -303.15 181.874 -304.133 C 177.912 -305.276 173.788 -305.721 169.678 -305.445 C 169.424 -305.428 169.499 -305.029 169.751 -305.047 Z" fill="#fff" style=""/>
  <path d="M 188.956 -301.022 C 190.031 -303.448 189.226 -306.312 187.055 -307.785 C 186.841 -307.93 186.613 -307.597 186.826 -307.454 C 188.852 -306.086 189.596 -303.414 188.582 -301.16 C 188.476 -300.923 188.851 -300.788 188.956 -301.022 Z" fill="#fff" style=""/>
  <path d="M 196.413 -292.911 C 194.007 -291.96 191.337 -291.968 188.937 -292.936 C 188.699 -293.032 188.565 -292.65 188.803 -292.555 C 191.303 -291.552 194.081 -291.549 196.583 -292.545 C 196.822 -292.639 196.65 -293.005 196.413 -292.911 Z" fill="#fff" style=""/>
  <path d="M 177.981 -304.744 C 177.761 -303.734 177.057 -302.905 176.11 -302.538 C 175.87 -302.446 176.042 -302.081 176.279 -302.171 C 177.325 -302.582 178.102 -303.495 178.356 -304.607 C 178.388 -304.713 178.337 -304.825 178.235 -304.867 C 178.132 -304.903 178.019 -304.849 177.981 -304.744 Z" fill="#fff" style=""/>
  <circle cx="524.6825" cy="583.33993" r="9.54602" fill="#fd6584" transform="matrix(0.349639, 0, 0, 0.356898, -38.527737, -494.059998)" style=""/>
  <circle cx="558.49624" cy="420.74992" r="9.54602" transform="matrix(0.349639, 0, 0, 0.356898, -38.527737, -494.059998)" style="fill: rgb(253, 101, 132);"/>
  <circle cx="380.86745" cy="155.96167" r="9.54602" transform="matrix(0.349639, 0, 0, 0.356898, -38.527737, -494.059998)" style="fill: rgb(253, 101, 132);"/>
  <path d="M 24.696 -307.707 C 24.696 -306.842 24.724 -305.973 24.783 -305.113 C 24.846 -304.085 24.954 -303.064 25.101 -302.051 C 25.594 -298.638 26.537 -295.31 27.905 -292.154 C 27.976 -291.997 28.044 -291.84 28.115 -291.683 L 28.22 -291.447 C 28.254 -291.369 28.293 -291.29 28.328 -291.215 C 28.377 -291.113 28.422 -291.012 28.472 -290.912 C 28.532 -290.787 28.59 -290.662 28.653 -290.538 C 28.66 -290.522 28.667 -290.506 28.679 -290.487 C 28.73 -290.38 28.78 -290.278 28.836 -290.17 C 28.846 -290.147 28.858 -290.124 28.87 -290.101 C 28.93 -289.981 28.993 -289.856 29.055 -289.734 C 29.125 -289.605 29.192 -289.474 29.262 -289.344 C 29.429 -289.028 29.604 -288.714 29.783 -288.399 C 29.835 -288.307 29.887 -288.215 29.944 -288.121 C 29.992 -288.035 30.042 -287.95 30.094 -287.864 C 30.129 -287.807 30.163 -287.747 30.199 -287.69 C 30.255 -287.593 30.31 -287.499 30.37 -287.403 C 30.5 -287.194 30.632 -286.982 30.762 -286.772 L 30.765 -286.772 C 30.825 -286.675 30.888 -286.58 30.951 -286.487 L 30.951 -286.483 C 31.136 -286.199 31.328 -285.911 31.52 -285.63 C 31.523 -285.63 31.524 -285.628 31.524 -285.627 C 31.678 -285.398 31.839 -285.177 31.996 -284.955 L 31.996 -284.952 C 32.1 -284.812 32.202 -284.671 32.307 -284.532 C 32.391 -284.415 32.478 -284.298 32.566 -284.185 C 32.583 -284.16 32.605 -284.138 32.622 -284.113 L 32.622 -284.11 C 32.646 -284.077 32.67 -284.049 32.696 -284.017 C 33.067 -283.531 33.448 -283.057 33.841 -282.593 L 33.905 -282.519 C 33.925 -282.493 33.951 -282.467 33.971 -282.44 C 34.007 -282.4 34.038 -282.361 34.072 -282.321 C 34.105 -282.282 34.139 -282.242 34.174 -282.204 C 36.228 -279.842 38.556 -277.747 41.107 -275.962 C 41.446 -275.723 41.793 -275.491 42.138 -275.267 C 42.226 -275.208 42.313 -275.151 42.402 -275.098 C 42.426 -275.08 42.453 -275.062 42.479 -275.045 C 42.527 -275.016 42.573 -274.988 42.621 -274.956 C 42.667 -274.927 42.713 -274.898 42.761 -274.87 C 42.947 -274.752 43.135 -274.638 43.324 -274.524 C 43.37 -274.495 43.419 -274.467 43.467 -274.437 C 43.513 -274.413 43.562 -274.384 43.611 -274.356 C 43.611 -274.352 43.611 -274.352 43.614 -274.352 L 43.618 -274.352 L 43.618 -274.35 L 43.621 -274.35 C 43.855 -274.21 44.093 -274.074 44.334 -273.941 C 44.464 -273.87 44.598 -273.796 44.729 -273.727 C 45.031 -273.56 45.335 -273.399 45.639 -273.245 C 45.747 -273.192 45.86 -273.139 45.967 -273.081 C 46.058 -273.038 46.149 -272.992 46.24 -272.95 C 46.268 -272.936 46.293 -272.924 46.318 -272.91 C 46.395 -272.875 46.467 -272.839 46.544 -272.803 C 46.629 -272.763 46.713 -272.724 46.793 -272.685 C 46.887 -272.644 46.978 -272.6 47.072 -272.561 C 47.422 -272.4 47.775 -272.246 48.129 -272.1 C 49.394 -271.57 50.687 -271.112 52.002 -270.73 C 52.062 -270.713 52.125 -270.695 52.187 -270.675 C 52.751 -270.516 53.317 -270.369 53.887 -270.237 C 54.884 -270.002 55.889 -269.808 56.905 -269.66 L 56.912 -269.66 C 57.034 -269.641 57.153 -269.623 57.274 -269.605 C 57.285 -269.605 57.296 -269.601 57.31 -269.601 C 57.31 -269.598 57.31 -269.598 57.313 -269.601 C 57.447 -269.584 57.582 -269.566 57.716 -269.548 C 57.725 -269.545 57.734 -269.544 57.743 -269.544 C 57.869 -269.527 57.999 -269.513 58.124 -269.499 C 58.261 -269.483 58.398 -269.469 58.533 -269.456 C 58.638 -269.444 58.743 -269.435 58.848 -269.423 C 58.858 -269.42 58.867 -269.419 58.877 -269.42 C 58.97 -269.412 59.065 -269.402 59.159 -269.396 L 59.174 -269.396 C 59.254 -269.387 59.338 -269.38 59.419 -269.372 C 60.393 -269.295 61.373 -269.26 62.365 -269.26 C 63.439 -269.26 64.506 -269.301 65.558 -269.396 L 65.568 -269.396 C 65.796 -269.417 66.02 -269.438 66.243 -269.459 C 66.302 -269.466 66.358 -269.469 66.418 -269.477 C 66.428 -269.477 66.442 -269.482 66.453 -269.482 C 66.471 -269.483 66.488 -269.483 66.509 -269.488 C 66.518 -269.487 66.528 -269.489 66.537 -269.491 C 66.613 -269.499 66.69 -269.509 66.77 -269.517 L 67.034 -269.548 C 67.121 -269.559 67.208 -269.574 67.295 -269.584 C 67.316 -269.588 67.334 -269.588 67.355 -269.591 C 67.418 -269.598 67.481 -269.609 67.543 -269.62 C 67.576 -269.623 67.607 -269.626 67.634 -269.63 C 67.698 -269.641 67.757 -269.649 67.82 -269.66 L 67.824 -269.66 C 69.742 -269.941 71.636 -270.377 73.488 -270.961 C 73.585 -270.993 73.684 -271.023 73.782 -271.055 C 73.785 -271.055 73.788 -271.058 73.792 -271.058 C 73.819 -271.07 73.851 -271.076 73.879 -271.087 C 74.142 -271.172 74.401 -271.261 74.658 -271.354 C 75.016 -271.474 75.368 -271.609 75.722 -271.743 C 75.816 -271.782 75.911 -271.818 76.004 -271.857 C 76.198 -271.932 76.386 -272.011 76.576 -272.09 C 76.897 -272.222 77.219 -272.361 77.536 -272.504 C 77.834 -272.639 78.127 -272.775 78.421 -272.917 C 78.428 -272.921 78.438 -272.921 78.445 -272.928 C 78.511 -272.961 78.578 -272.992 78.641 -273.025 L 78.645 -273.025 C 80.254 -273.813 81.807 -274.718 83.291 -275.733 C 83.766 -276.058 84.236 -276.394 84.697 -276.74 C 85.068 -277.021 85.432 -277.307 85.794 -277.599 C 87.589 -279.056 89.249 -280.676 90.756 -282.44 L 90.756 -282.444 C 90.865 -282.565 90.966 -282.689 91.07 -282.814 C 91.089 -282.833 91.103 -282.849 91.116 -282.864 C 91.183 -282.946 91.246 -283.024 91.313 -283.103 L 91.313 -283.106 C 91.4 -283.21 91.487 -283.317 91.571 -283.425 C 91.592 -283.449 91.609 -283.471 91.628 -283.493 L 91.628 -283.496 C 91.696 -283.581 91.763 -283.666 91.833 -283.757 C 91.869 -283.799 91.899 -283.842 91.934 -283.885 L 91.934 -283.888 C 92.141 -284.153 92.34 -284.415 92.539 -284.688 C 92.592 -284.759 92.645 -284.834 92.7 -284.91 C 92.952 -285.255 93.197 -285.607 93.435 -285.963 L 93.435 -285.965 C 93.526 -286.098 93.613 -286.233 93.703 -286.365 C 93.791 -286.501 93.878 -286.637 93.966 -286.772 C 94.053 -286.916 94.145 -287.054 94.232 -287.196 L 94.242 -287.219 C 94.33 -287.354 94.417 -287.496 94.501 -287.635 C 94.567 -287.75 94.634 -287.86 94.7 -287.972 C 94.742 -288.046 94.788 -288.121 94.829 -288.2 C 94.846 -288.223 94.861 -288.249 94.875 -288.275 C 94.973 -288.45 95.07 -288.625 95.169 -288.8 C 95.284 -289.003 95.396 -289.21 95.508 -289.417 C 95.55 -289.502 95.595 -289.587 95.641 -289.673 C 95.658 -289.703 95.672 -289.731 95.686 -289.759 C 95.739 -289.86 95.791 -289.962 95.84 -290.066 C 95.893 -290.166 95.945 -290.269 95.997 -290.374 C 96.046 -290.474 96.099 -290.577 96.147 -290.68 C 96.186 -290.759 96.221 -290.838 96.26 -290.915 C 96.263 -290.922 96.266 -290.927 96.27 -290.934 C 96.287 -290.973 96.305 -291.008 96.319 -291.044 C 96.323 -291.051 96.327 -291.056 96.33 -291.062 C 96.368 -291.14 96.403 -291.223 96.441 -291.301 C 96.491 -291.405 96.535 -291.511 96.585 -291.614 C 96.616 -291.687 96.652 -291.761 96.682 -291.836 C 96.728 -291.94 96.777 -292.043 96.819 -292.149 C 96.867 -292.259 96.913 -292.365 96.959 -292.476 C 96.973 -292.502 96.984 -292.529 96.994 -292.558 C 97.018 -292.608 97.036 -292.657 97.057 -292.707 C 97.113 -292.84 97.169 -292.976 97.221 -293.107 C 97.284 -293.256 97.343 -293.411 97.4 -293.56 C 97.455 -293.699 97.508 -293.841 97.56 -293.984 L 97.582 -294.036 C 98.396 -296.224 99.014 -298.486 99.428 -300.791 L 99.428 -300.794 C 99.661 -302.11 99.827 -303.438 99.927 -304.77 C 99.93 -304.846 99.938 -304.917 99.942 -304.988 C 100.004 -305.891 100.033 -306.798 100.033 -307.707 C 100.033 -308.112 100.026 -308.511 100.015 -308.91 C 99.77 -317.27 96.85 -325.318 91.7 -331.824 C 91.588 -331.966 91.477 -332.11 91.361 -332.252 C 91.246 -332.394 91.127 -332.534 91.011 -332.672 C 74.529 -352.376 44.064 -350.141 30.51 -328.235 C 30.339 -327.957 30.168 -327.677 30.003 -327.395 C 29.835 -327.109 29.674 -326.824 29.513 -326.534 C 26.346 -320.787 24.687 -314.302 24.696 -307.707 Z" fill="#f2f2f2" style=""/>
  <path d="M 60.868 -332.857 C 67.062 -331.234 73.41 -330.3 79.801 -330.067 C 80.767 -330.014 81.735 -330.021 82.702 -330.088 C 84.823 -330.27 86.641 -330.951 88.666 -331.322 C 89.638 -331.501 90.722 -331.631 91.702 -331.824 C 91.476 -332.112 91.245 -332.394 91.011 -332.674 C 88.899 -332.491 86.752 -331.896 84.615 -331.618 C 80.981 -331.147 76.908 -331.674 74.153 -332.971 C 72.817 -333.602 71.793 -334.387 70.462 -335.019 C 70.279 -335.115 70.084 -335.176 69.881 -335.2 C 69.497 -335.214 69.118 -335.114 68.788 -334.912 C 66.553 -333.761 63.309 -332.824 60.298 -333.339 C 60.073 -333.161 60.499 -332.955 60.868 -332.857 Z" fill="#fff" style=""/>
  <path d="M 47.542 -328.804 C 47.514 -328.81 47.486 -328.813 47.46 -328.818 C 47.575 -328.892 47.684 -328.975 47.785 -329.069 L 47.542 -328.804 Z" fill="#fff" style=""/>
  <path d="M 29.514 -326.533 C 30.772 -326.43 32.036 -326.354 33.308 -326.303 C 34.274 -326.249 35.242 -326.257 36.208 -326.324 C 38.33 -326.506 40.148 -327.187 42.172 -327.559 C 44.026 -327.899 46.281 -328.063 47.46 -328.818 C 44.415 -329.356 41.261 -328.261 38.122 -327.854 C 35.582 -327.536 33.008 -327.665 30.512 -328.237 C 30.164 -327.679 29.832 -327.111 29.514 -326.533 Z" fill="#fff" style=""/>
  <path d="M 44.729 -273.727 C 45.031 -273.56 45.335 -273.399 45.639 -273.245 C 45.747 -273.192 45.86 -273.139 45.967 -273.081 C 46.058 -273.038 46.149 -272.992 46.24 -272.95 C 46.268 -272.936 46.293 -272.924 46.318 -272.91 C 46.395 -272.875 46.467 -272.839 46.544 -272.803 C 46.629 -272.763 46.713 -272.724 46.793 -272.685 C 46.887 -272.644 46.978 -272.6 47.072 -272.561 C 47.422 -272.4 47.775 -272.246 48.129 -272.1 C 49.394 -271.57 50.687 -271.112 52.002 -270.73 C 52.062 -270.713 52.125 -270.695 52.187 -270.675 C 52.751 -270.516 53.317 -270.369 53.887 -270.237 C 54.884 -270.002 55.889 -269.808 56.905 -269.66 L 56.912 -269.66 C 57.034 -269.641 57.153 -269.623 57.274 -269.605 C 57.285 -269.605 57.296 -269.601 57.31 -269.601 C 57.31 -269.598 57.31 -269.598 57.313 -269.601 C 57.447 -269.584 57.582 -269.566 57.716 -269.548 C 57.725 -269.545 57.734 -269.544 57.743 -269.544 C 57.869 -269.527 57.999 -269.513 58.124 -269.499 C 58.261 -269.483 58.398 -269.469 58.533 -269.456 C 58.638 -269.444 58.743 -269.435 58.848 -269.423 C 58.858 -269.42 58.867 -269.419 58.877 -269.42 C 58.97 -269.412 59.065 -269.402 59.159 -269.396 L 59.174 -269.396 C 59.254 -269.387 59.338 -269.38 59.419 -269.372 C 60.393 -269.295 61.373 -269.26 62.365 -269.26 C 63.439 -269.26 64.506 -269.301 65.558 -269.396 L 65.568 -269.396 C 65.796 -269.417 66.02 -269.438 66.243 -269.459 C 66.302 -269.466 66.358 -269.469 66.418 -269.477 C 66.428 -269.477 66.442 -269.482 66.453 -269.482 C 66.471 -269.483 66.488 -269.483 66.509 -269.488 C 66.518 -269.487 66.528 -269.489 66.537 -269.491 C 66.613 -269.499 66.69 -269.509 66.77 -269.517 L 67.034 -269.548 C 67.121 -269.559 67.208 -269.574 67.295 -269.584 C 67.316 -269.588 67.334 -269.588 67.355 -269.591 C 67.418 -269.598 67.481 -269.609 67.543 -269.62 C 67.576 -269.623 67.607 -269.626 67.634 -269.63 C 67.698 -269.641 67.757 -269.649 67.82 -269.66 L 67.824 -269.66 C 69.742 -269.941 71.636 -270.377 73.488 -270.96 C 73.585 -270.993 73.684 -271.023 73.782 -271.055 C 72.866 -275.409 70.02 -279.085 66.079 -280.997 C 66.56 -281.466 66.892 -282.069 67.034 -282.732 C 67.216 -283.595 67.055 -284.496 66.585 -285.237 C 66.132 -285.948 65.42 -286.446 64.607 -286.622 L 59.425 -287.729 C 57.69 -288.073 56.004 -286.928 55.65 -285.158 C 55.596 -284.898 55.573 -284.632 55.579 -284.367 C 50.59 -280.976 46.999 -277.46 44.729 -273.727 Z" style="fill: rgb(2, 226, 242);"/>
  <circle cx="281.88445" cy="541.39662" r="30.87556" fill="#ffb8b8" transform="matrix(0.349639, 0, 0, 0.356898, -38.527737, -494.059998)" style=""/>
  <path d="M 53.301 -291.336 C 52.15 -292.14 50.974 -293.681 50.189 -294.837 C 48.086 -297.911 47.358 -301.751 48.187 -305.402 C 48.318 -306.125 48.639 -306.796 49.117 -307.346 C 49.626 -307.859 50.455 -308.103 51.076 -307.739 C 50.734 -308.675 50.786 -309.713 51.22 -310.609 C 51.657 -311.493 52.288 -312.262 53.066 -312.853 C 56.096 -315.235 60.163 -315.727 63.654 -314.133 C 64.328 -313.814 63.221 -316.277 63.926 -316.041 C 64.628 -315.762 65.407 -315.777 66.099 -316.079 C 66.762 -316.42 68.963 -314.393 68.708 -315.106 C 70.901 -314.09 71.308 -311.088 69.468 -309.501 C 68.911 -309.021 68.215 -308.745 67.605 -308.338 C 65.393 -306.749 64.691 -303.724 65.969 -301.292 C 65.327 -301.712 64.623 -302.026 63.884 -302.216 C 63.13 -302.405 62.336 -302.209 61.748 -301.693 C 61.261 -301.123 61.025 -300.371 61.096 -299.617 C 61.12 -298.869 61.295 -298.133 61.315 -297.385 C 61.372 -295.19 62.523 -291.018 60.856 -289.851 C 59.541 -288.931 54.873 -290.24 53.301 -291.336 Z" fill="#2f2e41" style=""/>
  <path d="M 67.452 -355.992 C 67.225 -355.992 67 -356.039 66.79 -356.13 C 66.15 -356.391 65.733 -357.029 65.739 -357.733 L 65.739 -359.478 C 65.738 -360.239 65.135 -360.856 64.388 -360.858 C 63.449 -360.859 62.687 -361.636 62.686 -362.594 L 62.686 -386.491 C 62.687 -387.449 63.448 -388.225 64.388 -388.227 L 141.947 -388.227 C 142.886 -388.225 143.648 -387.449 143.649 -386.491 L 143.649 -362.594 C 143.648 -361.636 142.886 -360.859 141.947 -360.858 L 73.468 -360.858 C 73.109 -360.859 72.765 -360.712 72.513 -360.454 L 68.644 -356.506 C 68.33 -356.178 67.901 -355.993 67.452 -355.992 Z" fill="#fff" style=""/>
  <path d="M 67.452 -355.635 C 67.179 -355.635 66.908 -355.692 66.656 -355.799 C 65.884 -356.116 65.382 -356.884 65.39 -357.733 L 65.39 -359.478 C 65.39 -360.041 64.941 -360.5 64.388 -360.501 C 63.256 -360.502 62.338 -361.439 62.337 -362.594 L 62.337 -386.491 C 62.338 -387.646 63.256 -388.584 64.388 -388.584 L 141.947 -388.584 C 143.08 -388.584 143.997 -387.646 143.999 -386.491 L 143.999 -362.594 C 143.997 -361.439 143.08 -360.502 141.947 -360.501 L 73.468 -360.501 C 73.203 -360.501 72.947 -360.394 72.759 -360.201 L 68.892 -356.253 C 68.512 -355.859 67.994 -355.636 67.452 -355.635 Z M 64.388 -387.87 C 63.642 -387.869 63.037 -387.251 63.036 -386.491 L 63.036 -362.594 C 63.037 -361.833 63.642 -361.216 64.388 -361.215 C 65.327 -361.214 66.089 -360.436 66.09 -359.478 L 66.09 -357.733 C 66.09 -356.67 67.216 -356.007 68.118 -356.539 C 68.22 -356.598 68.314 -356.672 68.397 -356.758 L 72.266 -360.704 C 72.584 -361.032 73.016 -361.217 73.468 -361.215 L 141.947 -361.215 C 142.694 -361.216 143.299 -361.833 143.299 -362.594 L 143.299 -386.491 C 143.299 -387.251 142.694 -387.869 141.947 -387.87 L 64.388 -387.87 Z" fill="#3f3d56" style=""/>
  <path d="M 135.282 -377.408 L 72.39 -377.408 C 71.692 -377.408 71.257 -378.18 71.605 -378.795 C 71.767 -379.082 72.066 -379.258 72.39 -379.258 L 135.282 -379.258 C 135.98 -379.258 136.416 -378.488 136.066 -377.871 C 135.905 -377.585 135.606 -377.408 135.282 -377.408 Z" style="fill: rgb(2, 226, 242);"/>
  <path d="M 135.166 -373.481 L 72.39 -373.481 C 71.692 -373.481 71.257 -374.251 71.605 -374.867 C 71.767 -375.153 72.066 -375.33 72.39 -375.33 L 135.166 -375.33 C 135.864 -375.33 136.299 -374.56 135.951 -373.943 C 135.789 -373.657 135.49 -373.481 135.166 -373.481 Z" style="fill: rgb(91, 57, 125);"/>
  <path d="M 135.104 -369.552 L 72.39 -369.552 C 71.692 -369.552 71.257 -370.324 71.605 -370.94 C 71.767 -371.226 72.066 -371.401 72.39 -371.401 L 135.104 -371.401 C 135.801 -371.401 136.237 -370.631 135.889 -370.015 C 135.727 -369.729 135.428 -369.552 135.104 -369.552 Z" style="fill: rgb(91, 57, 125);"/>
  <path d="M 234.325 -391.935 C 234.325 -391.068 234.297 -390.201 234.238 -389.34 C 234.175 -388.313 234.066 -387.292 233.919 -386.277 C 233.425 -382.866 232.483 -379.537 231.116 -376.382 C 231.045 -376.225 230.975 -376.068 230.905 -375.911 L 230.801 -375.676 C 230.767 -375.596 230.727 -375.517 230.693 -375.443 C 230.644 -375.34 230.598 -375.239 230.549 -375.139 C 230.49 -375.015 230.43 -374.89 230.367 -374.764 C 230.36 -374.751 230.353 -374.734 230.342 -374.716 C 230.29 -374.608 230.241 -374.505 230.186 -374.398 C 230.175 -374.375 230.163 -374.351 230.15 -374.329 C 230.091 -374.208 230.028 -374.084 229.964 -373.962 C 229.895 -373.834 229.829 -373.702 229.759 -373.573 C 229.591 -373.256 229.416 -372.941 229.238 -372.628 C 229.185 -372.535 229.133 -372.442 229.077 -372.349 C 229.028 -372.263 228.979 -372.177 228.927 -372.092 C 228.892 -372.035 228.857 -371.975 228.822 -371.917 C 228.765 -371.82 228.71 -371.728 228.651 -371.632 C 228.521 -371.421 228.388 -371.211 228.259 -371.001 L 228.256 -371.001 C 228.196 -370.904 228.133 -370.807 228.07 -370.714 L 228.07 -370.711 C 227.885 -370.425 227.692 -370.139 227.5 -369.858 C 227.498 -369.858 227.497 -369.856 227.497 -369.854 C 227.343 -369.626 227.182 -369.405 227.025 -369.183 L 227.025 -369.18 C 226.919 -369.04 226.818 -368.898 226.713 -368.758 C 226.63 -368.644 226.543 -368.526 226.455 -368.413 C 226.437 -368.388 226.416 -368.367 226.399 -368.341 L 226.399 -368.337 C 226.375 -368.306 226.35 -368.277 226.325 -368.245 C 225.954 -367.759 225.572 -367.285 225.179 -366.821 L 225.115 -366.747 C 225.095 -366.721 225.07 -366.695 225.05 -366.668 C 225.014 -366.629 224.983 -366.59 224.948 -366.55 C 224.916 -366.51 224.881 -366.47 224.847 -366.431 C 222.793 -364.069 220.465 -361.974 217.914 -360.189 C 217.574 -359.95 217.228 -359.719 216.881 -359.494 C 216.794 -359.436 216.707 -359.379 216.619 -359.326 C 216.595 -359.309 216.567 -359.29 216.543 -359.273 C 216.493 -359.244 216.448 -359.215 216.399 -359.184 C 216.354 -359.154 216.308 -359.126 216.259 -359.098 C 216.074 -358.98 215.886 -358.865 215.696 -358.751 C 215.651 -358.723 215.602 -358.694 215.553 -358.665 C 215.508 -358.64 215.458 -358.612 215.41 -358.584 C 215.41 -358.579 215.41 -358.579 215.407 -358.579 L 215.403 -358.579 L 215.403 -358.577 L 215.4 -358.577 C 215.165 -358.437 214.927 -358.301 214.686 -358.169 C 214.557 -358.098 214.423 -358.023 214.291 -357.955 C 213.99 -357.787 213.686 -357.627 213.382 -357.474 C 213.273 -357.42 213.161 -357.366 213.053 -357.309 C 212.962 -357.266 212.871 -357.22 212.78 -357.178 C 212.753 -357.164 212.727 -357.152 212.703 -357.138 C 212.626 -357.103 212.553 -357.066 212.476 -357.03 C 212.392 -356.991 212.308 -356.953 212.228 -356.913 C 212.134 -356.871 212.043 -356.827 211.948 -356.788 C 211.599 -356.628 211.246 -356.474 210.892 -356.328 C 209.627 -355.798 208.333 -355.34 207.019 -354.958 C 206.959 -354.938 206.896 -354.922 206.833 -354.904 C 206.27 -354.743 205.704 -354.597 205.134 -354.464 C 204.137 -354.23 203.131 -354.037 202.116 -353.887 L 202.109 -353.887 C 201.987 -353.869 201.868 -353.851 201.746 -353.832 C 201.735 -353.832 201.725 -353.829 201.71 -353.829 C 201.71 -353.825 201.71 -353.825 201.708 -353.829 C 201.574 -353.812 201.438 -353.794 201.305 -353.776 C 201.296 -353.774 201.286 -353.772 201.277 -353.772 C 201.151 -353.754 201.022 -353.74 200.896 -353.726 C 200.76 -353.711 200.623 -353.698 200.487 -353.684 C 200.382 -353.672 200.278 -353.663 200.172 -353.651 C 200.163 -353.648 200.154 -353.647 200.144 -353.648 C 200.051 -353.64 199.955 -353.63 199.861 -353.623 L 199.847 -353.623 C 199.766 -353.615 199.682 -353.608 199.602 -353.6 C 198.627 -353.522 197.648 -353.487 196.655 -353.487 C 195.582 -353.487 194.515 -353.529 193.463 -353.623 L 193.452 -353.623 C 193.225 -353.645 193.001 -353.665 192.778 -353.686 C 192.718 -353.694 192.662 -353.698 192.603 -353.705 C 192.593 -353.705 192.578 -353.708 192.567 -353.708 C 192.55 -353.711 192.533 -353.711 192.512 -353.716 C 192.502 -353.716 192.492 -353.716 192.483 -353.719 C 192.407 -353.726 192.33 -353.737 192.249 -353.744 L 191.987 -353.776 C 191.9 -353.786 191.813 -353.802 191.726 -353.812 C 191.704 -353.815 191.687 -353.815 191.666 -353.819 C 191.603 -353.825 191.54 -353.837 191.477 -353.847 C 191.445 -353.851 191.415 -353.855 191.386 -353.858 C 191.322 -353.869 191.264 -353.877 191.201 -353.887 L 191.197 -353.887 C 189.278 -354.169 187.385 -354.604 185.532 -355.189 C 185.435 -355.221 185.337 -355.25 185.239 -355.282 C 185.236 -355.282 185.232 -355.286 185.229 -355.286 C 185.201 -355.297 185.169 -355.304 185.142 -355.314 C 184.879 -355.399 184.62 -355.489 184.362 -355.582 C 184.005 -355.702 183.653 -355.834 183.299 -355.971 C 183.204 -356.01 183.11 -356.046 183.015 -356.085 C 182.823 -356.16 182.635 -356.239 182.445 -356.318 C 182.124 -356.449 181.802 -356.588 181.484 -356.73 C 181.187 -356.867 180.893 -357.003 180.6 -357.145 C 180.592 -357.148 180.582 -357.148 180.575 -357.156 C 180.509 -357.187 180.443 -357.22 180.38 -357.252 L 180.376 -357.252 C 178.765 -358.04 177.212 -358.947 175.729 -359.961 C 175.253 -360.286 174.784 -360.621 174.324 -360.968 C 173.953 -361.249 173.589 -361.535 173.226 -361.827 C 171.432 -363.285 169.77 -364.904 168.264 -366.668 L 168.264 -366.67 C 168.156 -366.792 168.055 -366.917 167.949 -367.043 C 167.932 -367.06 167.918 -367.078 167.905 -367.091 C 167.838 -367.174 167.775 -367.253 167.708 -367.332 L 167.708 -367.334 C 167.621 -367.438 167.534 -367.545 167.45 -367.651 C 167.429 -367.677 167.411 -367.699 167.393 -367.721 L 167.393 -367.724 C 167.324 -367.808 167.257 -367.894 167.187 -367.984 C 167.152 -368.026 167.121 -368.07 167.086 -368.112 L 167.086 -368.116 C 166.88 -368.38 166.681 -368.644 166.48 -368.916 C 166.429 -368.987 166.376 -369.062 166.32 -369.137 C 166.068 -369.482 165.824 -369.836 165.586 -370.19 L 165.586 -370.193 C 165.495 -370.326 165.408 -370.461 165.317 -370.593 C 165.229 -370.728 165.142 -370.865 165.054 -371.001 C 164.967 -371.143 164.876 -371.282 164.789 -371.424 L 164.779 -371.446 C 164.691 -371.582 164.604 -371.724 164.519 -371.863 C 164.453 -371.978 164.387 -372.088 164.321 -372.199 C 164.278 -372.275 164.233 -372.349 164.191 -372.428 C 164.174 -372.451 164.16 -372.476 164.146 -372.503 C 164.047 -372.676 163.95 -372.853 163.852 -373.028 C 163.736 -373.231 163.624 -373.438 163.513 -373.644 C 163.471 -373.73 163.425 -373.816 163.38 -373.902 C 163.363 -373.93 163.349 -373.959 163.334 -373.987 C 163.282 -374.086 163.229 -374.19 163.18 -374.294 C 163.128 -374.394 163.076 -374.498 163.022 -374.601 C 162.975 -374.702 162.921 -374.804 162.873 -374.908 C 162.834 -374.986 162.799 -375.065 162.761 -375.143 C 162.758 -375.15 162.755 -375.156 162.751 -375.161 C 162.733 -375.201 162.715 -375.237 162.701 -375.272 C 162.697 -375.279 162.694 -375.283 162.691 -375.289 C 162.653 -375.368 162.617 -375.45 162.58 -375.529 C 162.53 -375.633 162.484 -375.738 162.436 -375.843 C 162.404 -375.915 162.369 -375.99 162.338 -376.064 C 162.293 -376.168 162.243 -376.271 162.202 -376.378 C 162.152 -376.486 162.108 -376.592 162.062 -376.703 C 162.048 -376.73 162.037 -376.757 162.027 -376.785 C 162.002 -376.836 161.985 -376.885 161.964 -376.935 C 161.907 -377.068 161.851 -377.203 161.8 -377.335 C 161.737 -377.484 161.677 -377.639 161.621 -377.787 C 161.566 -377.926 161.512 -378.069 161.46 -378.213 L 161.439 -378.262 C 160.625 -380.452 160.007 -382.715 159.593 -385.019 L 159.593 -385.022 C 159.36 -386.339 159.193 -387.665 159.093 -388.998 C 159.089 -389.074 159.083 -389.145 159.079 -389.216 C 159.016 -390.118 158.988 -391.026 158.988 -391.935 C 158.988 -392.338 158.995 -392.738 159.006 -393.138 C 159.25 -401.499 162.17 -409.546 167.32 -416.051 C 167.432 -416.193 167.544 -416.337 167.659 -416.48 C 167.775 -416.622 167.893 -416.761 168.009 -416.9 C 184.491 -436.603 214.957 -434.369 228.511 -412.464 C 228.682 -412.186 228.853 -411.904 229.017 -411.623 C 229.185 -411.336 229.345 -411.05 229.507 -410.762 C 232.675 -405.015 234.334 -398.531 234.325 -391.935 Z" fill="#f2f2f2" style=""/>
  <path d="M 198.152 -417.085 C 191.958 -415.462 185.61 -414.528 179.22 -414.295 C 178.254 -414.243 177.284 -414.248 176.319 -414.316 C 174.198 -414.498 172.38 -415.179 170.355 -415.55 C 169.382 -415.73 168.299 -415.859 167.318 -416.052 C 167.545 -416.339 167.776 -416.622 168.01 -416.901 C 170.122 -416.719 172.268 -416.122 174.406 -415.846 C 178.04 -415.374 182.112 -415.9 184.867 -417.199 C 186.204 -417.828 187.227 -418.614 188.56 -419.248 C 188.74 -419.342 188.937 -419.405 189.139 -419.429 C 189.523 -419.44 189.902 -419.34 190.232 -419.14 C 192.468 -417.987 195.711 -417.052 198.723 -417.567 C 198.948 -417.388 198.521 -417.184 198.152 -417.085 Z" fill="#fff" style=""/>
  <path d="M 211.478 -413.033 C 211.506 -413.037 211.533 -413.042 211.561 -413.046 C 211.446 -413.12 211.337 -413.202 211.235 -413.296 L 211.478 -413.033 Z" fill="#fff" style=""/>
  <path d="M 229.506 -410.761 C 228.248 -410.658 226.984 -410.582 225.713 -410.531 C 224.747 -410.477 223.778 -410.485 222.813 -410.551 C 220.691 -410.734 218.874 -411.414 216.849 -411.786 C 214.994 -412.126 212.739 -412.291 211.562 -413.046 C 214.605 -413.583 217.76 -412.489 220.899 -412.081 C 223.438 -411.764 226.013 -411.892 228.509 -412.465 C 228.856 -411.907 229.188 -411.338 229.506 -410.761 Z" fill="#fff" style=""/>
  <ellipse cx="192.408" cy="-386.917" rx="11.314" ry="11.806" fill="#ffb6b6" style=""/>
  <path d="M 214.291 -357.955 C 213.99 -357.787 213.686 -357.627 213.382 -357.474 C 213.273 -357.42 213.161 -357.366 213.053 -357.309 C 212.962 -357.266 212.871 -357.22 212.78 -357.178 C 212.753 -357.164 212.727 -357.152 212.703 -357.138 C 212.626 -357.103 212.553 -357.066 212.476 -357.03 C 212.392 -356.991 212.308 -356.952 212.228 -356.913 C 212.134 -356.871 212.043 -356.827 211.948 -356.788 C 211.599 -356.628 211.246 -356.474 210.892 -356.328 C 209.627 -355.798 208.333 -355.34 207.019 -354.958 C 206.959 -354.938 206.896 -354.922 206.833 -354.904 C 206.27 -354.743 205.704 -354.596 205.134 -354.464 C 204.137 -354.23 203.131 -354.037 202.116 -353.887 L 202.109 -353.887 C 201.987 -353.869 201.868 -353.851 201.746 -353.832 C 201.735 -353.832 201.725 -353.829 201.71 -353.829 C 201.71 -353.825 201.71 -353.825 201.708 -353.829 C 201.574 -353.812 201.438 -353.794 201.305 -353.776 C 201.296 -353.773 201.286 -353.772 201.277 -353.772 C 201.151 -353.754 201.022 -353.74 200.896 -353.726 C 200.76 -353.711 200.623 -353.698 200.487 -353.684 C 200.382 -353.672 200.278 -353.662 200.172 -353.651 C 200.164 -353.648 200.154 -353.647 200.144 -353.648 C 200.051 -353.64 199.955 -353.63 199.861 -353.623 L 199.847 -353.623 C 199.766 -353.615 199.682 -353.608 199.602 -353.6 C 198.627 -353.522 197.648 -353.487 196.655 -353.487 C 195.582 -353.487 194.515 -353.529 193.463 -353.623 L 193.452 -353.623 C 193.225 -353.645 193.001 -353.665 192.778 -353.686 C 192.718 -353.694 192.662 -353.698 192.603 -353.705 C 192.593 -353.705 192.578 -353.708 192.567 -353.708 C 192.55 -353.711 192.533 -353.711 192.512 -353.716 C 192.502 -353.716 192.492 -353.716 192.483 -353.719 C 192.407 -353.726 192.33 -353.737 192.249 -353.744 L 191.987 -353.776 C 191.9 -353.786 191.813 -353.802 191.726 -353.812 C 191.704 -353.815 191.687 -353.815 191.666 -353.819 C 191.603 -353.825 191.54 -353.837 191.477 -353.847 C 191.445 -353.851 191.415 -353.855 191.386 -353.858 C 191.322 -353.869 191.264 -353.877 191.201 -353.887 L 191.197 -353.887 C 189.278 -354.169 187.385 -354.604 185.532 -355.189 C 185.435 -355.221 185.337 -355.25 185.239 -355.282 C 186.154 -359.638 189.001 -363.312 192.942 -365.225 C 192.461 -365.694 192.129 -366.297 191.987 -366.96 C 191.803 -367.822 191.966 -368.724 192.435 -369.465 C 192.888 -370.176 193.6 -370.674 194.414 -370.85 L 199.596 -371.957 C 201.331 -372.301 203.017 -371.156 203.371 -369.386 C 203.425 -369.126 203.448 -368.859 203.442 -368.595 C 208.431 -365.204 212.021 -361.688 214.291 -357.955 Z" style="fill: rgb(91, 57, 125);"/>
  <path d="M 222.683 -392.037 C 220.76 -394.327 219.845 -397.363 218.309 -399.963 C 216.771 -402.562 214.096 -404.889 211.269 -404.284 C 209.321 -403.868 207.816 -402.112 207.052 -400.156 C 206.29 -398.2 206.147 -396.042 206.015 -393.928 C 206.061 -398.271 203.258 -402.482 199.395 -403.869 C 195.534 -405.255 190.912 -403.709 188.485 -400.219 C 186.293 -402.293 182.928 -402.364 180.652 -400.387 C 178.482 -398.406 178.001 -394.637 179.598 -392.111 C 181.194 -389.585 184.652 -388.645 187.189 -390.046 L 188.086 -389.202 C 187.581 -387.4 188.559 -385.272 190.205 -384.594 C 191.54 -384.042 193.424 -384.135 193.924 -382.705 C 194.272 -381.706 193.62 -380.64 192.926 -379.872 C 192.232 -379.104 191.408 -378.313 191.325 -377.249 C 191.2 -375.648 192.821 -374.525 194.296 -374.187 C 197.853 -373.371 201.799 -375.053 203.849 -378.257 C 203.888 -378.318 203.931 -378.38 203.978 -378.44 C 206.301 -381.476 207.301 -385.352 206.74 -389.161 C 206.625 -389.901 206.741 -390.452 207.241 -390.627 C 209.403 -391.384 215.459 -389.793 217.292 -388.357 C 219.125 -386.918 220.593 -385.016 222.358 -383.486 C 224.124 -381.955 226.374 -380.774 228.616 -381.19 C 230.411 -381.525 231.938 -382.856 232.966 -384.461 C 233.993 -386.065 234.584 -387.936 235.114 -389.794 C 231.143 -387.455 225.71 -388.435 222.683 -392.037 Z" fill="#2f2e41" style=""/>
  <path d="M -9.569 -415.848 C -9.569 -414.981 -9.541 -414.112 -9.482 -413.254 C -9.419 -412.225 -9.31 -411.204 -9.163 -410.192 C -8.67 -406.778 -7.727 -403.449 -6.359 -400.293 C -6.29 -400.136 -6.22 -399.98 -6.15 -399.823 L -6.045 -399.587 C -6.01 -399.51 -5.971 -399.431 -5.936 -399.356 C -5.887 -399.252 -5.842 -399.152 -5.793 -399.053 C -5.733 -398.927 -5.675 -398.802 -5.612 -398.678 C -5.604 -398.663 -5.597 -398.645 -5.587 -398.626 C -5.534 -398.521 -5.485 -398.417 -5.43 -398.31 C -5.419 -398.286 -5.407 -398.263 -5.394 -398.242 C -5.335 -398.121 -5.272 -397.995 -5.209 -397.874 C -5.14 -397.746 -5.073 -397.614 -5.003 -397.486 C -4.835 -397.168 -4.661 -396.853 -4.481 -396.539 C -4.43 -396.446 -4.377 -396.354 -4.321 -396.261 C -4.272 -396.175 -4.223 -396.09 -4.171 -396.003 C -4.136 -395.947 -4.101 -395.886 -4.065 -395.83 C -4.009 -395.734 -3.954 -395.639 -3.895 -395.544 C -3.765 -395.333 -3.632 -395.122 -3.503 -394.912 L -3.5 -394.912 C -3.44 -394.816 -3.377 -394.72 -3.315 -394.627 L -3.315 -394.623 C -3.129 -394.338 -2.937 -394.052 -2.744 -393.769 C -2.742 -393.769 -2.74 -393.768 -2.74 -393.767 C -2.587 -393.538 -2.426 -393.316 -2.268 -393.095 L -2.268 -393.092 C -2.164 -392.954 -2.063 -392.81 -1.957 -392.671 C -1.873 -392.556 -1.786 -392.439 -1.699 -392.324 C -1.682 -392.299 -1.66 -392.278 -1.642 -392.254 L -1.642 -392.251 C -1.619 -392.218 -1.594 -392.189 -1.569 -392.157 C -1.199 -391.671 -0.817 -391.197 -0.423 -390.733 L -0.36 -390.658 C -0.339 -390.632 -0.314 -390.609 -0.294 -390.579 C -0.258 -390.539 -0.227 -390.501 -0.192 -390.462 C -0.16 -390.423 -0.126 -390.384 -0.09 -390.344 C 1.963 -387.984 4.291 -385.887 6.843 -384.103 C 7.182 -383.863 7.528 -383.63 7.874 -383.406 C 7.962 -383.35 8.048 -383.291 8.136 -383.238 C 8.161 -383.219 8.189 -383.203 8.213 -383.185 C 8.262 -383.155 8.308 -383.128 8.356 -383.094 C 8.402 -383.067 8.447 -383.038 8.497 -383.01 C 8.682 -382.892 8.871 -382.777 9.059 -382.664 C 9.105 -382.635 9.154 -382.607 9.203 -382.578 C 9.248 -382.553 9.297 -382.524 9.347 -382.496 C 9.347 -382.493 9.347 -382.493 9.35 -382.493 L 9.353 -382.493 L 9.353 -382.488 L 9.357 -382.488 C 9.591 -382.35 9.828 -382.214 10.07 -382.082 C 10.199 -382.011 10.332 -381.936 10.465 -381.868 C 10.766 -381.7 11.07 -381.54 11.375 -381.386 C 11.482 -381.332 11.595 -381.278 11.703 -381.222 C 11.793 -381.179 11.884 -381.132 11.975 -381.09 C 12.003 -381.075 12.028 -381.064 12.052 -381.05 C 12.129 -381.015 12.203 -380.979 12.28 -380.944 C 12.363 -380.904 12.447 -380.865 12.529 -380.825 C 12.622 -380.783 12.713 -380.739 12.807 -380.7 C 13.158 -380.54 13.51 -380.387 13.864 -380.241 C 15.129 -379.711 16.422 -379.253 17.737 -378.869 C 17.797 -378.852 17.86 -378.834 17.922 -378.816 C 18.486 -378.655 19.053 -378.509 19.622 -378.377 C 20.619 -378.141 21.625 -377.949 22.639 -377.8 L 22.647 -377.8 C 22.769 -377.781 22.888 -377.764 23.01 -377.745 C 23.02 -377.745 23.031 -377.742 23.046 -377.742 C 23.046 -377.739 23.046 -377.739 23.049 -377.742 C 23.181 -377.724 23.318 -377.705 23.451 -377.688 C 23.46 -377.685 23.469 -377.684 23.479 -377.684 C 23.605 -377.667 23.734 -377.653 23.86 -377.639 C 23.996 -377.624 24.133 -377.609 24.269 -377.595 C 24.375 -377.585 24.479 -377.574 24.583 -377.563 C 24.592 -377.561 24.602 -377.559 24.612 -377.56 C 24.706 -377.553 24.8 -377.542 24.894 -377.534 L 24.909 -377.534 C 24.989 -377.527 25.074 -377.522 25.154 -377.514 C 26.129 -377.436 27.109 -377.399 28.101 -377.399 C 29.175 -377.399 30.24 -377.443 31.293 -377.534 L 31.304 -377.534 C 31.531 -377.556 31.755 -377.578 31.979 -377.599 C 32.037 -377.606 32.094 -377.609 32.154 -377.617 C 32.163 -377.617 32.178 -377.62 32.188 -377.62 C 32.206 -377.624 32.223 -377.624 32.244 -377.627 C 32.253 -377.626 32.263 -377.628 32.272 -377.631 C 32.348 -377.639 32.426 -377.649 32.506 -377.656 L 32.769 -377.688 C 32.856 -377.699 32.944 -377.713 33.031 -377.724 C 33.051 -377.728 33.07 -377.728 33.091 -377.731 C 33.154 -377.739 33.216 -377.748 33.279 -377.76 C 33.311 -377.764 33.342 -377.766 33.37 -377.77 C 33.433 -377.781 33.492 -377.788 33.556 -377.8 L 33.559 -377.8 C 35.477 -378.081 37.371 -378.517 39.223 -379.101 C 39.321 -379.135 39.419 -379.162 39.517 -379.195 C 39.52 -379.195 39.524 -379.197 39.527 -379.197 C 39.555 -379.209 39.587 -379.215 39.614 -379.227 C 39.877 -379.313 40.136 -379.401 40.395 -379.494 C 40.751 -379.616 41.104 -379.748 41.457 -379.883 C 41.552 -379.922 41.646 -379.958 41.741 -379.997 C 41.933 -380.071 42.121 -380.15 42.31 -380.229 C 42.633 -380.362 42.954 -380.501 43.272 -380.644 C 43.568 -380.779 43.862 -380.914 44.156 -381.057 C 44.164 -381.061 44.174 -381.061 44.181 -381.067 C 44.247 -381.101 44.313 -381.132 44.377 -381.164 L 44.38 -381.164 C 45.99 -381.954 47.543 -382.857 49.027 -383.873 C 49.503 -384.198 49.971 -384.533 50.433 -384.879 C 50.803 -385.161 51.166 -385.448 51.531 -385.74 C 53.324 -387.196 54.985 -388.817 56.491 -390.579 L 56.491 -390.584 C 56.601 -390.704 56.702 -390.828 56.806 -390.954 C 56.824 -390.972 56.838 -390.989 56.852 -391.004 C 56.918 -391.085 56.981 -391.165 57.047 -391.243 L 57.047 -391.246 C 57.136 -391.35 57.223 -391.458 57.307 -391.564 C 57.328 -391.589 57.345 -391.61 57.362 -391.632 L 57.362 -391.636 C 57.432 -391.722 57.498 -391.808 57.568 -391.896 C 57.604 -391.94 57.635 -391.981 57.669 -392.025 L 57.669 -392.029 C 57.876 -392.292 58.076 -392.556 58.275 -392.828 C 58.327 -392.899 58.379 -392.974 58.435 -393.049 C 58.687 -393.395 58.932 -393.75 59.171 -394.102 L 59.171 -394.107 C 59.261 -394.238 59.348 -394.373 59.439 -394.505 C 59.526 -394.642 59.614 -394.777 59.701 -394.912 C 59.789 -395.055 59.88 -395.194 59.967 -395.337 L 59.978 -395.358 C 60.065 -395.494 60.152 -395.637 60.236 -395.775 C 60.303 -395.891 60.37 -396 60.436 -396.111 C 60.477 -396.186 60.523 -396.261 60.564 -396.34 C 60.582 -396.364 60.597 -396.389 60.61 -396.414 C 60.708 -396.59 60.806 -396.764 60.905 -396.939 C 61.019 -397.142 61.132 -397.348 61.243 -397.557 C 61.284 -397.642 61.33 -397.727 61.376 -397.813 C 61.394 -397.843 61.408 -397.87 61.421 -397.899 C 61.474 -398 61.527 -398.103 61.575 -398.206 C 61.628 -398.306 61.68 -398.409 61.733 -398.514 C 61.782 -398.613 61.835 -398.717 61.883 -398.82 C 61.922 -398.899 61.956 -398.977 61.995 -399.056 C 61.998 -399.061 62.002 -399.068 62.006 -399.073 C 62.023 -399.113 62.04 -399.147 62.054 -399.184 C 62.058 -399.19 62.062 -399.195 62.065 -399.202 C 62.104 -399.28 62.138 -399.363 62.177 -399.44 C 62.225 -399.544 62.271 -399.653 62.32 -399.755 C 62.352 -399.826 62.387 -399.901 62.418 -399.976 C 62.464 -400.08 62.512 -400.184 62.555 -400.291 C 62.603 -400.397 62.649 -400.505 62.693 -400.615 C 62.708 -400.642 62.719 -400.669 62.73 -400.698 C 62.753 -400.748 62.771 -400.798 62.793 -400.847 C 62.848 -400.98 62.904 -401.115 62.957 -401.246 C 63.02 -401.397 63.079 -401.549 63.135 -401.7 C 63.191 -401.84 63.243 -401.982 63.295 -402.125 L 63.316 -402.175 C 64.132 -404.366 64.749 -406.626 65.163 -408.932 L 65.163 -408.935 C 65.396 -410.25 65.562 -411.577 65.662 -412.91 C 65.666 -412.985 65.673 -413.056 65.677 -413.128 C 65.739 -414.031 65.768 -414.938 65.768 -415.848 C 65.768 -416.252 65.761 -416.651 65.75 -417.051 C 65.505 -425.409 62.586 -433.458 57.435 -439.963 C 57.324 -440.106 57.212 -440.248 57.097 -440.392 C 56.981 -440.534 56.862 -440.673 56.748 -440.812 C 40.265 -460.516 9.8 -458.282 -3.754 -436.377 C -3.925 -436.098 -4.098 -435.815 -4.262 -435.535 C -4.43 -435.248 -4.59 -434.964 -4.751 -434.673 C -7.918 -428.926 -9.579 -422.441 -9.569 -415.848 Z" fill="#f2f2f2" style=""/>
  <path d="M 26.604 -440.997 C 32.797 -439.376 39.145 -438.44 45.537 -438.208 C 46.503 -438.153 47.471 -438.161 48.437 -438.228 C 50.559 -438.409 52.377 -439.09 54.401 -439.462 C 55.374 -439.64 56.458 -439.772 57.437 -439.964 C 57.212 -440.251 56.981 -440.534 56.747 -440.813 C 54.634 -440.632 52.488 -440.036 50.35 -439.757 C 46.716 -439.286 42.644 -439.813 39.89 -441.11 C 38.552 -441.741 37.528 -442.527 36.196 -443.16 C 36.015 -443.256 35.819 -443.317 35.617 -443.341 C 35.232 -443.353 34.853 -443.253 34.523 -443.051 C 32.289 -441.9 29.044 -440.965 26.033 -441.478 C 25.808 -441.3 26.234 -441.096 26.604 -440.997 Z" fill="#fff" style=""/>
  <path d="M 13.277 -436.944 C 13.25 -436.95 13.222 -436.953 13.195 -436.959 C 13.31 -437.031 13.42 -437.116 13.52 -437.209 L 13.277 -436.944 Z" fill="#fff" style=""/>
  <path d="M -4.751 -434.671 C -3.493 -434.569 -2.229 -434.493 -0.958 -434.443 C 0.009 -434.39 0.977 -434.397 1.943 -434.463 C 4.066 -434.647 5.883 -435.326 7.908 -435.699 C 9.762 -436.039 12.017 -436.202 13.195 -436.959 C 10.15 -437.497 6.996 -436.4 3.857 -435.995 C 1.317 -435.675 -1.257 -435.804 -3.753 -436.377 C -4.101 -435.82 -4.433 -435.251 -4.751 -434.671 Z" fill="#fff" style=""/>
  <path d="M 10.465 -381.868 C 10.766 -381.7 11.07 -381.54 11.375 -381.386 C 11.482 -381.332 11.595 -381.278 11.703 -381.222 C 11.793 -381.179 11.884 -381.132 11.975 -381.09 C 12.003 -381.075 12.028 -381.064 12.052 -381.05 C 12.129 -381.015 12.203 -380.979 12.28 -380.944 C 12.363 -380.904 12.447 -380.865 12.529 -380.825 C 12.622 -380.783 12.713 -380.739 12.807 -380.7 C 13.158 -380.54 13.51 -380.387 13.864 -380.241 C 15.129 -379.711 16.422 -379.253 17.737 -378.869 C 17.797 -378.852 17.86 -378.834 17.922 -378.816 C 18.486 -378.655 19.053 -378.509 19.622 -378.377 C 20.619 -378.141 21.625 -377.949 22.639 -377.8 L 22.647 -377.8 C 22.769 -377.781 22.888 -377.764 23.01 -377.745 C 23.02 -377.745 23.031 -377.742 23.046 -377.742 C 23.046 -377.739 23.046 -377.739 23.049 -377.742 C 23.181 -377.724 23.318 -377.705 23.451 -377.688 C 23.46 -377.685 23.469 -377.684 23.479 -377.684 C 23.605 -377.666 23.734 -377.653 23.86 -377.639 C 23.997 -377.624 24.133 -377.609 24.269 -377.595 C 24.375 -377.585 24.479 -377.574 24.583 -377.563 C 24.592 -377.561 24.602 -377.559 24.612 -377.56 C 24.706 -377.553 24.8 -377.542 24.894 -377.534 L 24.909 -377.534 C 24.989 -377.527 25.074 -377.522 25.154 -377.514 C 26.129 -377.436 27.109 -377.399 28.101 -377.399 C 29.175 -377.399 30.24 -377.443 31.293 -377.534 L 31.304 -377.534 C 31.531 -377.556 31.755 -377.578 31.979 -377.599 C 32.037 -377.605 32.094 -377.609 32.154 -377.617 C 32.163 -377.617 32.178 -377.62 32.188 -377.62 C 32.206 -377.624 32.223 -377.624 32.244 -377.627 C 32.253 -377.626 32.263 -377.628 32.272 -377.631 C 32.348 -377.639 32.426 -377.649 32.506 -377.656 L 32.769 -377.688 C 32.856 -377.699 32.944 -377.713 33.031 -377.724 C 33.051 -377.728 33.07 -377.728 33.091 -377.731 C 33.154 -377.739 33.216 -377.748 33.279 -377.76 C 33.311 -377.764 33.342 -377.766 33.37 -377.77 C 33.433 -377.781 33.492 -377.787 33.556 -377.8 L 33.559 -377.8 C 35.477 -378.081 37.371 -378.517 39.223 -379.101 C 39.321 -379.135 39.419 -379.162 39.517 -379.195 C 38.602 -383.55 35.756 -387.225 31.814 -389.137 C 32.295 -389.604 32.627 -390.21 32.769 -390.872 C 32.952 -391.734 32.791 -392.636 32.321 -393.378 C 31.867 -394.088 31.155 -394.586 30.342 -394.763 L 25.161 -395.868 C 23.425 -396.215 21.739 -395.067 21.384 -393.299 C 21.332 -393.039 21.309 -392.773 21.315 -392.506 C 16.325 -389.116 12.734 -385.6 10.465 -381.868 Z" style="fill: rgb(91, 57, 125);"/>
  <circle cx="198.75404" cy="229.04877" r="36.07316" fill="#9e616a" transform="matrix(0.349639, 0, 0, 0.356898, -38.527737, -494.059998)" style=""/>
  <path d="M 29.172 -400.127 C 26.014 -399.257 22.533 -400.413 20.069 -402.609 C 17.605 -404.805 16.064 -407.915 15.175 -411.128 C 14.524 -413.481 14.216 -416.094 15.242 -418.303 C 16.269 -420.512 19.032 -422.003 21.163 -420.887 C 19.849 -422.45 20.505 -425.037 22.041 -426.373 C 23.576 -427.711 25.684 -428.095 27.693 -428.306 C 30.608 -428.608 33.619 -428.643 36.392 -427.68 C 39.165 -426.716 41.685 -424.608 42.554 -421.752 C 44.376 -420.886 46.543 -421.385 47.825 -422.968 C 48.155 -421.15 47.25 -419.333 45.619 -418.535 L 49.868 -419.941 C 50.598 -418.362 49.318 -416.409 47.681 -415.903 C 46.043 -415.398 44.276 -415.951 42.722 -416.68 C 41.167 -417.41 39.662 -418.335 37.974 -418.62 C 36.286 -418.903 34.303 -418.35 33.522 -416.796 C 33.113 -415.982 33.092 -415.029 32.854 -414.148 C 32.618 -413.266 32.016 -412.352 31.123 -412.279 C 30.558 -412.233 30.005 -412.539 29.442 -412.477 C 28.737 -412.336 28.18 -411.78 28.025 -411.064 C 27.885 -410.359 27.882 -409.634 28.02 -408.93 L 29.1 -400.507 L 29.172 -400.127 Z" fill="#2f2e41" style=""/>
  <path d="M 288.459 233.161 C 295.855 226.882 299.671 217.477 295.695 209.519 C 289.911 217.527 280.388 223.833 269.346 226.966 C 265.046 228.188 260.099 229.194 257.759 232.274 C 256.305 234.188 256.199 236.588 256.855 238.758 C 257.509 240.927 258.86 242.925 260.197 244.891 L 260.206 245.449 C 270.673 243.046 281.062 239.438 288.459 233.161 Z" fill="#f2f2f2" style=""/>
  <path d="M 295.472 209.564 C 294.226 216.491 290.145 223.153 283.906 228.173 C 282.55 229.309 281.015 230.255 279.347 230.978 C 277.63 231.661 275.76 231.974 273.886 231.886 C 272.119 231.837 270.321 231.627 268.57 231.913 C 266.835 232.185 265.3 233.086 264.316 234.403 C 263.155 235.942 262.771 237.717 262.47 239.461 C 262.137 241.398 261.83 243.415 260.415 245.082 C 260.244 245.283 260.654 245.478 260.826 245.277 C 263.287 242.381 262.464 238.674 264.125 235.547 C 264.9 234.086 266.24 232.801 268.246 232.361 C 269.999 231.976 271.853 232.193 273.642 232.258 C 275.473 232.361 277.306 232.112 279.022 231.52 C 280.732 230.872 282.311 229.973 283.701 228.867 C 286.748 226.52 289.351 223.744 291.408 220.644 C 293.692 217.246 295.233 213.489 295.954 209.571 C 295.997 209.331 295.517 209.327 295.472 209.564 Z" fill="#fff" style=""/>
  <path d="M 286.042 226.626 C 288.648 228.083 291.989 227.889 294.367 226.147 C 294.585 225.976 294.257 225.701 294.038 225.874 C 291.828 227.497 288.712 227.671 286.295 226.303 C 286.046 226.161 285.796 226.482 286.042 226.626 Z" fill="#fff" style=""/>
  <path d="M 274.778 232.005 C 274.276 229.555 274.961 227.034 276.658 225.069 C 276.829 224.866 276.419 224.672 276.25 224.872 C 274.489 226.919 273.782 229.548 274.31 232.094 C 274.36 232.333 274.829 232.243 274.778 232.005 Z" fill="#fff" style=""/>
  <path d="M 293.083 217.147 C 292.017 216.802 291.222 215.986 290.985 214.989 C 290.938 214.748 290.47 214.838 290.518 215.077 C 290.787 216.177 291.658 217.078 292.832 217.467 C 292.945 217.516 293.08 217.491 293.162 217.406 C 293.231 217.314 293.193 217.192 293.083 217.147 Z" fill="#fff" style=""/>
  <path d="M 260.62 200.476 C 260.644 200.626 260.669 200.775 260.689 200.926 C 261 202.948 261.103 204.989 260.992 207.027 C 260.986 207.186 260.98 207.345 260.966 207.501 C 260.62 212.458 259.12 217.293 256.57 221.696 C 255.532 223.49 254.333 225.21 252.985 226.83 C 251.109 229.095 248.842 231.429 248.054 233.972 C 247.969 234.233 247.902 234.503 247.857 234.775 L 259.338 245.414 C 259.379 245.424 259.419 245.444 259.46 245.456 L 259.892 245.898 C 259.97 245.818 260.048 245.731 260.126 245.652 C 260.172 245.604 260.214 245.555 260.26 245.51 C 260.29 245.476 260.318 245.445 260.348 245.418 C 260.357 245.407 260.368 245.397 260.373 245.388 C 260.403 245.362 260.426 245.332 260.451 245.308 C 260.891 244.834 261.327 244.357 261.759 243.876 C 261.762 243.875 261.762 243.875 261.763 243.869 C 265.046 240.202 267.967 236.287 270.035 232.151 C 270.098 232.027 270.162 231.897 270.22 231.768 C 271.135 229.914 271.858 227.989 272.383 226.014 C 272.662 224.943 272.871 223.856 273.011 222.762 C 273.365 219.939 273.151 217.083 272.377 214.327 C 270.832 208.808 267.049 203.739 261.078 200.704 C 260.927 200.626 260.774 200.55 260.62 200.476 Z" fill="#f2f2f2" style=""/>
  <path d="M 260.474 200.611 C 264.803 206.734 266.666 213.975 265.541 220.929 C 265.339 222.46 264.835 223.946 264.056 225.318 C 263.19 226.697 261.924 227.837 260.394 228.617 C 258.947 229.409 257.349 230.091 256.171 231.144 C 254.996 232.184 254.445 233.67 254.687 235.141 C 254.946 236.917 256.001 238.515 257.102 240.048 C 258.326 241.755 259.631 243.507 259.782 245.506 C 259.8 245.748 260.278 245.712 260.26 245.471 C 259.996 241.995 256.489 239.423 255.413 236.143 C 254.911 234.612 254.994 232.953 256.256 231.657 C 257.36 230.522 259.007 229.822 260.482 229.028 C 261.992 228.277 263.273 227.204 264.217 225.904 C 265.082 224.572 265.657 223.106 265.913 221.575 C 266.54 218.197 266.483 214.737 265.742 211.376 C 264.905 207.468 263.248 203.741 260.862 200.392 C 260.714 200.18 260.324 200.403 260.474 200.611 Z" fill="#fff" style=""/>
  <path d="M 266.059 218.684 C 269.202 218.655 271.886 216.811 272.335 214.377 C 272.381 214.138 271.905 214.07 271.862 214.31 C 271.439 216.592 268.952 218.286 266.013 218.306 C 265.702 218.31 265.752 218.686 266.059 218.684 Z" fill="#fff" style=""/>
  <path d="M 261.197 228.294 C 259 226.713 257.617 224.391 257.37 221.869 C 257.35 221.624 256.872 221.662 256.892 221.904 C 257.155 224.53 258.599 226.943 260.892 228.583 C 261.116 228.75 261.421 228.458 261.197 228.294 Z" fill="#fff" style=""/>
  <path d="M 264.393 207.794 C 263.216 208.009 261.995 207.741 261.06 207.061 C 260.839 206.892 260.534 207.183 260.756 207.35 C 261.79 208.098 263.137 208.398 264.439 208.168 C 264.566 208.145 264.668 208.074 264.654 207.963 C 264.631 207.854 264.517 207.78 264.393 207.794 Z" fill="#fff" style=""/>
  <circle cx="661.93307" cy="199.63499" r="27.56693" fill="#a0616a" transform="matrix(0.35701, 0, 0, 0.321901, 6.898267, 46.745617)" style=""/>
  <path d="M 286.342 152.005 C 284.957 149.108 283.058 146.44 280.719 144.096 C 282.701 146.944 283.832 150.206 284.007 153.564 C 283.289 153.967 282.539 154.319 281.76 154.621 C 279.425 155.506 276.935 156.01 274.403 156.111 C 273.039 152.016 270.684 148.24 267.509 145.062 C 269.798 148.351 270.949 152.181 270.815 156.064 C 267.992 155.844 265.209 155.309 262.536 154.464 C 258.52 153.219 254.62 151.356 251.844 148.465 C 248.837 145.33 247.356 141.199 246.877 137.079 C 246.399 132.962 246.848 128.805 247.302 124.684 C 247.517 122.721 245.703 120.461 245.916 118.497 L 246.061 118.497 C 247.012 117.32 247.984 116.114 248.452 114.717 C 248.915 113.322 248.795 111.678 247.726 110.579 C 247.13 110.004 246.374 109.584 245.538 109.356 C 245.46 109.266 245.374 109.179 245.284 109.092 C 243.669 107.543 241.767 106.26 239.663 105.299 C 241.179 106.333 242.192 107.503 242.664 108.708 C 241.351 108.449 240.037 108.186 238.724 107.931 C 238.284 107.509 237.822 107.111 237.337 106.733 C 236.776 106.322 236.185 105.953 235.563 105.622 C 236.241 106.159 236.766 106.834 237.094 107.591 C 235.407 107.207 233.717 106.634 232.84 105.322 C 231.383 103.156 233.114 100.234 235.531 98.94 C 239.136 97.102 243.64 97.55 246.716 100.049 C 250.212 97.728 255.187 97.767 259.077 99.503 C 261.643 100.699 263.854 102.436 265.524 104.56 C 264.556 104.448 263.58 104.387 262.604 104.377 C 263.978 104.559 265.289 105.023 266.426 105.742 C 266.931 106.448 267.395 107.178 267.812 107.929 C 268.087 108.419 268.348 108.919 268.591 109.424 C 270.087 112.493 271.062 115.766 272.072 118.995 C 273.249 122.764 274.514 126.555 276.72 129.927 C 280.102 135.051 285.439 138.889 291.732 140.726 C 292.256 144.985 289.951 149.15 286.342 152.005 Z" style="fill: rgb(91, 57, 125);"/>
  <polygon points="263.502 248.151 259.929 249.651 251.815 237.943 257.088 235.728 263.502 248.151" fill="#a0616a" style=""/>
  <path d="M 268.269 252.942 L 265.706 254.018 L 264.125 252.029 L 264.079 254.702 L 257.285 257.552 C 256.108 258.045 254.781 257.207 254.895 256.041 C 254.918 255.817 254.994 255.601 255.12 255.406 L 258.802 249.75 L 257.664 247.545 L 263.529 245.456 L 268.269 252.942 Z" style="fill: rgb(91, 57, 125);"/>
  <polygon points="227.639 251.539 223.699 251.539 221.823 237.835 227.639 237.835 227.639 251.539" fill="#a0616a" style=""/>
  <path d="M 229.72 257.695 L 226.893 257.695 L 226.39 255.288 L 225.096 257.695 L 217.603 257.695 C 216.306 257.695 215.494 256.429 216.143 255.415 C 216.267 255.219 216.439 255.054 216.645 254.924 L 222.629 251.199 L 222.629 248.765 L 228.927 249.104 L 229.72 257.695 Z" style="fill: rgb(91, 57, 125);"/>
  <polygon points="245.839 147.695 242.576 156.68 241.496 163.96 224.154 159.13 225.757 142.883 229.365 139.666 245.839 147.695" fill="#a0616a" style=""/>
  <ellipse cx="389.03" cy="168.858" rx="2.951" ry="3.517" transform="matrix(0.593734, -0.804662, 0.861453, 0.516767, -299.66474, 287.659612)" fill="#fd6584" style=""/>
  <ellipse cx="487.562" cy="508.174" rx="2.951" ry="3.517" transform="matrix(0.593734, -0.804662, 0.861453, 0.516767, -615.294041, 300.823412)" fill="#e6e6e6" style=""/>
  <ellipse cx="211.562" cy="217.175" rx="2.951" ry="3.517" transform="matrix(0.593734, -0.804662, 0.861453, 0.516767, -299.276608, 135.443139)" fill="#e6e6e6" style=""/>
  <path d="M 140.64 156.964 L 21.671 156.964 C 13.515 156.959 6.907 150.999 6.898 143.647 L 6.898 97.534 C 6.907 90.184 13.515 84.222 21.671 84.215 C 59.632 74.732 99.45 75.621 140.64 84.215 C 148.798 84.222 155.405 90.184 155.416 97.534 L 155.416 143.647 C 155.405 150.999 148.798 156.959 140.64 156.964 Z" fill="#f2f2f2" style="isolation: isolate;"/>
  <path d="M 19.571 145.215 C 19.374 145.215 19.216 145.071 19.216 144.893 L 19.216 96.287 C 19.216 96.04 19.512 95.886 19.751 96.008 C 19.861 96.065 19.928 96.173 19.928 96.287 L 19.928 144.893 C 19.929 145.071 19.769 145.215 19.571 145.215 Z" fill="#fff" style="isolation: isolate;"/>
  <path d="M 143.454 145.215 C 143.651 145.215 143.813 145.071 143.813 144.893 L 143.813 96.287 C 143.813 96.04 143.514 95.886 143.277 96.008 C 143.165 96.065 143.098 96.173 143.098 96.287 L 143.098 144.893 C 143.098 145.071 143.257 145.215 143.454 145.215 Z" fill="#fff" style="isolation: isolate;"/>
  <path d="M 119.893 106.587 L 119.89 106.587 C 119.692 106.586 119.534 106.443 119.536 106.263 L 119.713 57.013 C 119.714 56.836 119.873 56.694 120.07 56.694 C 120.268 56.694 120.427 56.839 120.427 57.018 L 120.25 106.267 C 120.248 106.444 120.09 106.587 119.893 106.587 Z" fill="#3f3d56" style=""/>
  <path d="M 74.194 177.084 L 74.193 177.084 C 73.996 177.084 73.837 176.939 73.837 176.761 L 74.016 128.796 C 74.017 128.622 74.177 128.477 74.374 128.477 C 74.571 128.478 74.729 128.623 74.729 128.801 L 74.551 176.763 C 74.551 176.942 74.39 177.084 74.194 177.084 Z" fill="#3f3d56" style=""/>
  <path d="M 40.279 115.603 L 40.277 115.603 C 40.08 115.599 39.92 115.456 39.92 115.279 L 40.1 66.67 C 40.1 66.493 40.261 66.351 40.458 66.351 C 40.656 66.351 40.816 66.496 40.813 66.673 L 40.635 115.281 C 40.635 115.457 40.474 115.603 40.279 115.603 Z" fill="#3f3d56" style=""/>
  <path d="M 25.537 128.542 C 26.224 125.195 30.444 123.65 33.863 123.913 C 38.752 124.289 42.83 127.19 47.379 128.554 C 49.575 129.217 51.941 129.581 54.244 129.199 C 56.059 128.861 57.744 128.095 59.123 126.979 C 61.765 124.941 63.554 122.16 66.2 120.125 C 67.615 118.979 69.406 118.272 71.304 118.116 C 73.638 117.98 75.925 118.691 77.971 119.649 C 82.038 121.55 85.366 124.571 89.698 126.036 C 91.686 126.727 93.842 126.928 95.945 126.62 C 98.046 126.242 100.041 125.495 101.821 124.42 C 105.549 122.298 108.622 119.351 112.544 117.489 C 114.471 116.571 116.614 115.869 118.816 115.855 C 120.944 115.858 122.99 116.599 124.531 117.922 C 127.501 120.355 129.843 124.195 134.378 124.264 C 135.325 124.28 136.255 124.048 137.059 123.599 C 137.644 123.273 137.107 122.437 136.519 122.764 C 134.67 123.796 132.444 123.146 130.758 122.145 C 128.963 121.082 127.691 119.452 126.226 118.067 C 124.771 116.691 123.074 115.531 120.98 115.103 C 118.889 114.729 116.725 114.892 114.732 115.57 C 110.447 116.917 107.205 119.686 103.648 122.097 C 100.145 124.473 96.053 126.527 91.531 125.539 C 87.031 124.553 83.615 121.48 79.722 119.418 C 75.958 117.423 71.346 116.149 67.293 118.249 C 64.229 119.833 62.294 122.635 59.943 124.914 C 58.781 126.041 57.486 127.088 55.919 127.727 C 53.74 128.614 51.279 128.512 49.009 127.986 C 44.277 126.888 40.284 124.014 35.465 123.153 C 31.887 122.516 27.652 123.319 25.469 126.171 C 24.987 126.807 24.659 127.526 24.503 128.284 C 24.379 128.892 25.411 129.152 25.537 128.542 Z" fill="#3f3d56" style=""/>
  <circle cx="94" cy="247.65271" r="13" transform="matrix(0.35701, 0, 0, 0.321901, 6.898267, 46.745617)" style="fill: rgb(253, 101, 132);"/>
  <circle cx="187.5" cy="220.15271" r="13" transform="matrix(0.35701, 0, 0, 0.321901, 6.898267, 46.745617)" style="fill: rgb(253, 101, 132);"/>
  <circle cx="315.5" cy="211.15271" r="13" transform="matrix(0.35701, 0, 0, 0.321901, 6.898267, 46.745617)" style="fill: rgb(91, 57, 125);"/>
  <path d="M 79.724 189.344 L 69.542 189.344 C 68.384 189.344 67.406 188.574 67.241 187.541 C 66.613 183.371 66.613 179.142 67.241 174.973 C 67.402 173.952 68.358 173.191 69.498 173.17 C 72.813 171.565 76.267 171.565 79.768 173.17 C 80.444 173.179 81.079 173.457 81.506 173.931 C 81.955 174.422 82.134 175.073 81.992 175.698 C 81.174 179.366 81.174 183.145 81.992 186.815 C 82.134 187.439 81.955 188.089 81.506 188.583 C 81.07 189.065 80.413 189.344 79.724 189.344 Z" style="fill: rgb(2, 226, 242);"/>
  <path d="M 126.491 63.89 L 116.312 63.89 C 115.153 63.889 114.173 63.122 114.01 62.088 C 113.382 57.918 113.382 53.688 114.01 49.518 C 114.172 48.498 115.131 47.735 116.274 47.716 C 119.475 46.422 122.925 46.422 126.525 47.716 C 127.205 47.723 127.847 48.003 128.276 48.475 C 128.724 48.971 128.903 49.618 128.761 50.244 C 127.943 53.914 127.943 57.692 128.761 61.361 C 128.903 61.987 128.724 62.635 128.276 63.129 C 127.84 63.613 127.183 63.89 126.491 63.89 Z" style="fill: rgb(2, 226, 242);"/>
  <path d="M 45.351 72.249 L 35.172 72.249 C 34.479 72.253 33.824 71.971 33.387 71.489 C 32.939 70.995 32.761 70.349 32.902 69.72 C 33.72 66.054 33.72 62.272 32.902 58.604 C 32.761 57.979 32.939 57.329 33.387 56.836 C 33.814 56.362 34.452 56.085 35.129 56.076 C 38.223 54.71 41.674 54.71 45.387 56.076 C 46.53 56.093 47.492 56.854 47.652 57.879 C 48.281 62.048 48.281 66.276 47.652 70.447 C 47.489 71.479 46.509 72.249 45.351 72.249 Z" fill="#ccc" style=""/>
  <path d="M 125.425 52.509 L 116.859 52.509 C 116.446 52.509 116.189 52.106 116.394 51.784 C 116.489 51.635 116.666 51.54 116.859 51.54 L 125.425 51.54 C 125.837 51.54 126.097 51.946 125.889 52.267 C 125.793 52.416 125.616 52.509 125.425 52.509 Z" fill="#fff" style=""/>
  <path d="M 125.425 56.37 L 116.859 56.37 C 116.446 56.37 116.189 55.969 116.394 55.647 C 116.489 55.498 116.666 55.406 116.859 55.406 L 125.425 55.406 C 125.837 55.406 126.097 55.806 125.889 56.129 C 125.793 56.28 125.616 56.37 125.425 56.37 Z" fill="#fff" style=""/>
  <path d="M 125.425 60.234 L 116.859 60.234 C 116.446 60.234 116.189 59.832 116.394 59.508 C 116.489 59.362 116.666 59.27 116.859 59.27 L 125.425 59.27 C 125.837 59.27 126.097 59.669 125.889 59.993 C 125.793 60.144 125.616 60.234 125.425 60.234 Z" fill="#fff" style=""/>
  <path d="M 45.506 60.234 L 36.938 60.234 C 36.527 60.234 36.268 59.832 36.476 59.508 C 36.571 59.362 36.748 59.27 36.938 59.27 L 45.506 59.27 C 45.919 59.27 46.177 59.669 45.972 59.993 C 45.875 60.144 45.698 60.234 45.506 60.234 Z" fill="#fff" style=""/>
  <path d="M 45.506 64.097 L 36.938 64.097 C 36.527 64.097 36.268 63.695 36.476 63.372 C 36.571 63.223 36.748 63.129 36.938 63.129 L 45.506 63.129 C 45.919 63.129 46.177 63.533 45.972 63.856 C 45.875 64.005 45.698 64.097 45.506 64.097 Z" fill="#fff" style=""/>
  <path d="M 45.506 67.96 L 36.938 67.96 C 36.527 67.96 36.268 67.557 36.476 67.237 C 36.571 67.087 36.748 66.993 36.938 66.993 L 45.506 66.993 C 45.919 66.993 46.177 67.397 45.972 67.719 C 45.875 67.867 45.698 67.96 45.506 67.96 Z" fill="#fff" style=""/>
  <path d="M 79.065 177.084 L 70.499 177.084 C 70.085 177.084 69.827 176.681 70.034 176.361 C 70.129 176.21 70.306 176.118 70.499 176.118 L 79.065 176.118 C 79.479 176.118 79.737 176.523 79.53 176.842 C 79.435 176.992 79.258 177.084 79.065 177.084 Z" fill="#fff" style=""/>
  <path d="M 79.065 180.946 L 70.499 180.946 C 70.085 180.946 69.827 180.543 70.034 180.221 C 70.129 180.073 70.306 179.981 70.499 179.981 L 79.065 179.981 C 79.479 179.981 79.737 180.383 79.53 180.705 C 79.435 180.856 79.258 180.946 79.065 180.946 Z" fill="#fff" style=""/>
  <path d="M 79.065 184.808 L 70.499 184.808 C 70.085 184.808 69.827 184.407 70.034 184.085 C 70.129 183.938 70.306 183.845 70.499 183.845 L 79.065 183.845 C 79.479 183.845 79.737 184.246 79.53 184.568 C 79.435 184.719 79.258 184.808 79.065 184.808 Z" style="" fill="#fff"/>
  <path d="M 247.531 162.505 L 223.689 157.644 L 214.857 176.118 L 212.358 213.782 L 218.87 244.362 L 231.919 244.362 L 225.924 213.782 L 227.351 190.604 L 234.042 218.438 L 251.771 241.53 L 259.949 235.162 L 245.916 213.46 C 245.916 213.46 251.793 174.502 245.56 167.75 L 247.531 162.505 Z" style="fill: rgb(91, 57, 125);"/>
  <path d="M 233.305 125.817 L 235.215 125.17 L 237.625 121.658 L 246.203 122.291 L 248.287 126.056 L 253.313 129.518 L 251.115 139.948 L 247.702 152.62 L 224.854 150.044 L 224.877 140.506 C 224.877 140.506 220.748 132.967 227.418 130.143 L 233.305 125.817 Z" fill="#e6e6e6" style=""/>
  <path d="M 198.086 158.907 C 199.976 159.591 202.089 158.569 202.504 156.772 L 227.979 142.872 L 223.323 138.028 L 199.747 153.214 C 197.241 152.899 195.293 155.147 196.243 157.262 C 196.58 158.015 197.247 158.609 198.086 158.907 Z" fill="#a0616a" style=""/>
  <path d="M 236.47 136.28 C 236.47 136.28 237.689 137.385 234.632 139.202 C 232.186 140.657 221.277 147.841 217.41 148.977 C 217.509 150.033 216.806 151.01 215.699 151.361 L 212.197 144.423 C 212.955 142.835 214.168 143.203 214.806 143.563 L 219.035 140.695 L 229.418 131.347 L 235.605 135.47 L 236.47 136.28 Z" fill="#e6e6e6" style=""/>
  <path d="M 197.426 160.032 L 187.246 160.032 C 186.553 160.032 185.899 159.753 185.461 159.271 C 185.015 158.776 184.835 158.128 184.975 157.503 C 185.794 153.833 185.794 150.057 184.975 146.384 C 184.835 145.761 185.015 145.109 185.461 144.617 C 185.888 144.147 186.526 143.867 187.204 143.859 C 190.297 142.49 193.75 142.49 197.461 143.859 C 198.605 143.874 199.566 144.64 199.726 145.66 C 200.355 149.829 200.355 154.059 199.726 158.23 C 199.563 159.263 198.583 160.031 197.426 160.032 Z" style="fill: rgb(2, 226, 242);"/>
  <path d="M 197.581 148.019 L 189.014 148.019 C 188.601 148.019 188.343 147.613 188.55 147.291 C 188.646 147.141 188.822 147.049 189.014 147.049 L 197.581 147.049 C 197.994 147.049 198.251 147.451 198.046 147.774 C 197.949 147.924 197.773 148.019 197.581 148.019 Z" fill="#fff" style=""/>
  <path d="M 197.581 151.878 L 189.014 151.878 C 188.601 151.878 188.343 151.476 188.55 151.153 C 188.646 151.005 188.822 150.913 189.014 150.913 L 197.581 150.913 C 197.994 150.913 198.251 151.315 198.046 151.637 C 197.949 151.788 197.773 151.878 197.581 151.878 Z" fill="#fff" style=""/>
  <path d="M 197.581 155.742 L 189.014 155.742 C 188.601 155.742 188.343 155.339 188.55 155.016 C 188.646 154.868 188.822 154.775 189.014 154.775 L 197.581 154.775 C 197.994 154.775 198.251 155.176 198.046 155.499 C 197.949 155.651 197.773 155.742 197.581 155.742 Z" fill="#fff" style=""/>
  <path d="M 246.693 187.716 L 236.513 187.716 C 235.821 187.718 235.167 187.437 234.729 186.954 C 234.28 186.461 234.103 185.811 234.244 185.188 C 235.062 181.519 235.062 177.74 234.244 174.069 C 234.103 173.445 234.28 172.794 234.729 172.301 C 235.157 171.829 235.795 171.55 236.472 171.543 C 239.566 170.175 243.016 170.175 246.73 171.543 C 247.873 171.555 248.833 172.32 248.993 173.344 C 249.623 177.515 249.623 181.743 248.993 185.913 C 248.831 186.945 247.85 187.716 246.693 187.716 Z" fill="#ccc" style=""/>
  <path d="M 246.848 175.7 L 238.28 175.7 C 237.869 175.7 237.612 175.298 237.818 174.976 C 237.912 174.825 238.089 174.733 238.28 174.733 L 246.848 174.733 C 247.26 174.733 247.518 175.137 247.313 175.457 C 247.217 175.608 247.041 175.7 246.848 175.7 Z" fill="#fff" style=""/>
  <path d="M 246.848 179.561 L 238.28 179.561 C 237.869 179.561 237.612 179.159 237.818 178.836 C 237.912 178.688 238.089 178.595 238.28 178.595 L 246.848 178.595 C 247.26 178.595 247.518 179 247.313 179.32 C 247.217 179.471 247.041 179.561 246.848 179.561 Z" fill="#fff" style=""/>
  <path d="M 246.848 183.425 L 238.28 183.425 C 237.869 183.425 237.612 183.022 237.818 182.699 C 237.912 182.553 238.089 182.459 238.28 182.459 L 246.848 182.459 C 247.26 182.459 247.518 182.86 247.313 183.183 C 247.217 183.332 247.041 183.425 246.848 183.425 Z" fill="#fff" style=""/>
  <path d="M 242.174 173.894 C 244.071 173.228 244.838 171.18 243.781 169.611 L 251.84 143.764 L 244.77 143.1 L 239.07 168.713 C 237.001 170.029 237.284 172.866 239.582 173.829 C 240.398 174.167 241.336 174.193 242.174 173.894 Z" fill="#a0616a" style=""/>
  <path d="M 253.032 129.577 C 253.032 129.577 254.759 129.632 253.906 132.841 C 253.223 135.41 250.714 151.524 248.753 154.735 C 249.624 155.444 249.853 156.594 249.31 157.531 L 241.495 154.625 C 240.847 152.999 241.348 151.525 242.086 151.393 L 243 146.695 L 244.346 130.929 L 251.785 129.518 L 253.032 129.577 Z" fill="#e6e6e6" style=""/>
  <path d="M 246.654 100.292 C 249.053 103.482 249.661 107.497 248.304 111.152" fill="#fd6584" style=""/>
  <path d="M 288.339 257.641 C 288.339 257.85 288.148 258.024 287.913 258.022 L 187.848 258.022 C 187.52 258.022 187.315 257.703 187.479 257.448 C 187.555 257.327 187.694 257.256 187.848 257.256 L 287.913 257.256 C 288.148 257.256 288.339 257.427 288.339 257.641 Z" style="fill: rgb(91, 57, 125);"/>
</svg>