<?xml version="1.0" encoding="utf-8"?>
<svg viewBox="0 0 300 300" xmlns="http://www.w3.org/2000/svg" xmlns:bx="https://boxy-svg.com">
  <defs>
    <bx:grid x="0" y="0" width="71.427" height="67.315"/>
  </defs>
  <path d="M 683.492 -155.758 L 683.492 -245.415 C 683.492 -245.596 683.694 -245.709 683.857 -245.619 C 683.931 -245.577 683.979 -245.499 683.979 -245.415 L 683.979 -155.758 C 683.979 -155.576 683.775 -155.463 683.614 -155.555 C 683.536 -155.596 683.492 -155.673 683.492 -155.758 Z" fill="#f0f0f0" style=""/>
  <circle cx="778.47998" cy="480" r="16" fill="#f0f0f0" transform="matrix(0.253937, 0, 0, 0.245689, 483.069489, -277.383881)" style=""/>
  <path d="M -878.127 796.747 C -878.126 796.922 -878.271 797.063 -878.45 797.063 L -1001.62 797.063 C -1001.869 797.063 -1002.025 796.8 -1001.9 796.59 C -1001.843 796.492 -1001.736 796.432 -1001.62 796.432 L -878.45 796.432 C -878.271 796.432 -878.126 796.573 -878.127 796.747 Z" fill="#cacaca" style=""/>
  <path d="M 20.218 -346.193 C 7.423 -359.051 2.02 -372.462 5.003 -383.959 C 8.829 -398.713 25.828 -408.916 51.641 -411.947 L 51.738 -411.102 C 26.283 -408.112 9.542 -398.139 5.809 -383.741 C 2.907 -372.553 8.232 -359.432 20.803 -346.801 L 20.218 -346.193 Z" fill="#f0f0f0" style=""/>
  <path d="M 143.657 -300.559 C 127.69 -300.559 110.338 -302.981 93.103 -307.638 C 71.789 -313.398 52.247 -322.092 36.589 -332.78 L 37.053 -333.486 C 52.635 -322.851 72.091 -314.197 93.317 -308.463 C 112.498 -303.278 131.822 -300.876 149.195 -301.511 L 149.224 -300.658 C 147.39 -300.592 145.534 -300.559 143.657 -300.559 Z" fill="#f0f0f0" style=""/>
  <path d="M 180.289 -305.915 L 180.021 -306.722 C 194.302 -311.65 203.234 -319.589 205.853 -329.683 C 209.179 -342.513 201.951 -357.402 185.497 -371.606 C 168.959 -385.883 145.111 -397.729 118.344 -404.963 L 118.558 -405.785 C 145.441 -398.522 169.406 -386.613 186.035 -372.256 C 202.749 -357.828 210.074 -342.631 206.659 -329.465 C 203.966 -319.083 194.847 -310.939 180.289 -305.915 Z" fill="#f0f0f0" style=""/>
  <path d="M 49.158 -300.202 C 17.783 -314.406 -6.395 -332.835 -18.92 -352.093 L -18.225 -352.564 C -5.786 -333.439 18.264 -315.121 49.496 -300.982 L 49.158 -300.202 Z" fill="#f0f0f0" style=""/>
  <path d="M 159.471 -275.595 C 156.235 -275.595 152.943 -275.668 149.596 -275.816 L 149.633 -276.667 C 174.608 -275.565 196.644 -278.615 213.364 -285.491 L 213.676 -284.702 C 199.091 -278.703 180.502 -275.595 159.471 -275.595 Z" fill="#f0f0f0" style=""/>
  <path d="M 141.267 -411.183 C 136.081 -412.907 130.747 -414.512 125.413 -415.954 C 94.717 -424.248 64.543 -427.193 38.151 -424.469 L 38.067 -425.316 C 64.557 -428.049 94.834 -425.097 125.626 -416.776 C 130.976 -415.331 136.324 -413.723 141.525 -411.994 L 141.267 -411.183 Z" fill="#f0f0f0" style=""/>
  <path d="M 0.609 -344.917 C -12.185 -357.773 -17.589 -371.184 -14.607 -382.683 C -10.78 -397.436 6.22 -407.638 32.033 -410.67 L 32.129 -409.824 C 6.674 -406.834 -10.066 -396.861 -13.799 -382.463 C -16.701 -371.274 -11.376 -358.156 1.195 -345.523 L 0.609 -344.917 Z" fill="#f0f0f0" style=""/>
  <path d="M 124.048 -299.282 C 108.081 -299.282 90.73 -301.703 73.494 -306.361 C 52.18 -312.121 32.639 -320.814 16.98 -331.502 L 17.444 -332.209 C 33.027 -321.574 52.482 -312.92 73.708 -307.184 C 92.889 -302.001 112.213 -299.599 129.586 -300.233 L 129.616 -299.382 C 127.781 -299.315 125.926 -299.281 124.048 -299.282 Z" fill="#f0f0f0" style=""/>
  <path d="M 160.68 -304.638 L 160.413 -305.444 C 174.694 -310.372 183.626 -318.312 186.244 -328.405 C 189.571 -341.237 182.342 -356.124 165.888 -370.329 C 149.35 -384.605 125.502 -396.452 98.736 -403.685 L 98.95 -404.508 C 125.832 -397.244 149.797 -385.336 166.427 -370.979 C 183.141 -356.55 190.464 -341.353 187.051 -328.187 C 184.358 -317.804 175.239 -309.663 160.68 -304.638 Z" style="" fill="#f0f0f0"/>
  <path d="M 29.549 -298.925 C -1.827 -313.128 -26.003 -331.557 -38.528 -350.816 L -37.833 -351.285 C -25.395 -332.162 -1.344 -313.843 29.887 -299.704 L 29.549 -298.925 Z" fill="#f0f0f0" style=""/>
  <path d="M 139.863 -274.317 C 136.626 -274.317 133.335 -274.391 129.988 -274.538 L 130.023 -275.389 C 154.999 -274.287 177.036 -277.336 193.755 -284.215 L 194.067 -283.425 C 179.483 -277.426 160.893 -274.317 139.863 -274.317 Z" fill="#f0f0f0" style=""/>
  <path d="M 121.658 -409.907 C 116.471 -411.629 111.138 -413.235 105.804 -414.676 C 75.108 -422.971 44.935 -425.915 18.542 -423.191 L 18.458 -424.039 C 44.949 -426.772 75.226 -423.82 106.017 -415.5 C 111.366 -414.054 116.716 -412.445 121.916 -410.715 L 121.658 -409.907 Z" fill="#f0f0f0" style=""/>
  <path d="M -24.306 -367.729 C -18.31 -374.593 -8.745 -378.775 -0.076 -376.271 C -8.073 -370.494 -13.81 -362.017 -16.273 -352.337 C -17.21 -348.602 -17.87 -344.347 -20.915 -342.063 C -22.808 -340.642 -25.317 -340.302 -27.648 -340.626 C -29.977 -340.949 -32.18 -341.875 -34.352 -342.79 L -34.937 -342.739 C -33.256 -351.773 -30.302 -360.866 -24.306 -367.729 Z" fill="#f2f2f2" style=""/>
  <path d="M -0.103 -376.08 C -7.35 -374.289 -13.86 -370.212 -18.708 -364.43 C -19.774 -363.204 -20.643 -361.815 -21.285 -360.312 C -21.863 -358.827 -22.041 -357.212 -21.801 -355.634 C -21.607 -354.158 -21.24 -352.672 -21.4 -351.172 C -21.59 -349.623 -22.416 -348.229 -23.675 -347.343 C -25.197 -346.206 -27.028 -345.699 -28.835 -345.265 C -30.842 -344.782 -32.933 -344.315 -34.569 -342.953 C -34.767 -342.789 -35.006 -343.113 -34.808 -343.276 C -31.962 -345.645 -28.008 -345.341 -24.858 -347.062 C -23.39 -347.864 -22.148 -349.123 -21.847 -350.851 C -21.583 -352.363 -21.959 -353.896 -22.169 -355.39 C -22.425 -356.927 -22.309 -358.503 -21.83 -359.983 C -21.266 -361.514 -20.451 -362.935 -19.419 -364.186 C -17.14 -367.043 -14.435 -369.513 -11.406 -371.512 C -7.959 -373.811 -4.152 -375.494 -0.15 -376.482 C 0.098 -376.544 0.143 -376.141 -0.103 -376.08 Z" fill="#fff" style=""/>
  <path d="M -17.254 -366.385 C -18.99 -368.373 -19.059 -371.35 -17.419 -373.418 C -17.257 -373.621 -16.942 -373.374 -17.103 -373.171 C -18.635 -371.247 -18.565 -368.471 -16.938 -366.629 C -16.767 -366.436 -17.085 -366.193 -17.254 -366.385 Z" fill="#fff" style=""/>
  <path d="M -21.997 -356.369 C -19.422 -356.194 -16.877 -357.018 -14.87 -358.674 C -14.67 -358.837 -14.431 -358.515 -14.63 -358.35 C -16.722 -356.63 -19.372 -355.78 -22.052 -355.968 C -22.307 -355.986 -22.251 -356.388 -21.997 -356.369 Z" fill="#fff" style=""/>
  <path d="M -7.87 -373.282 C -7.363 -372.386 -6.45 -371.809 -5.439 -371.748 C -5.182 -371.733 -5.239 -371.33 -5.492 -371.345 C -6.61 -371.419 -7.62 -372.054 -8.187 -373.037 C -8.249 -373.129 -8.232 -373.252 -8.148 -373.322 C -8.06 -373.389 -7.937 -373.37 -7.87 -373.282 Z" fill="#fff" style=""/>
  <path d="M 12.228 -347.782 C 12.068 -347.787 11.908 -347.792 11.746 -347.794 C 9.598 -347.843 7.449 -347.716 5.321 -347.411 C 5.156 -347.39 4.989 -347.367 4.825 -347.341 C -0.294 -346.55 -5.225 -344.796 -9.717 -342.168 C -11.504 -341.12 -13.21 -339.936 -14.82 -338.626 C -17.044 -336.813 -19.315 -334.668 -21.918 -333.741 C -22.189 -333.64 -22.465 -333.557 -22.745 -333.492 L -34.83 -342.014 C -34.848 -342.048 -34.867 -342.078 -34.885 -342.113 L -35.383 -342.43 C -35.305 -342.504 -35.222 -342.578 -35.144 -342.651 C -35.098 -342.694 -35.05 -342.736 -35.005 -342.778 C -34.973 -342.807 -34.943 -342.833 -34.917 -342.862 C -34.906 -342.871 -34.895 -342.88 -34.886 -342.888 C -34.86 -342.912 -34.833 -342.935 -34.808 -342.96 C -34.346 -343.378 -33.881 -343.793 -33.411 -344.207 C -33.408 -344.209 -33.408 -344.209 -33.404 -344.211 C -29.818 -347.348 -25.944 -350.208 -21.767 -352.376 C -21.641 -352.441 -21.515 -352.51 -21.384 -352.571 C -19.496 -353.537 -17.534 -354.344 -15.517 -354.985 C -14.412 -355.332 -13.29 -355.622 -12.156 -355.853 C -9.225 -356.445 -6.22 -356.564 -3.253 -356.202 C 2.662 -355.48 8.284 -352.837 11.951 -348.144 C 12.044 -348.023 12.135 -347.905 12.228 -347.782 Z" fill="#f2f2f2" style=""/>
  <path d="M 12.095 -347.645 C 5.252 -350.67 -2.35 -351.416 -9.632 -349.776 C -11.206 -349.453 -12.72 -348.877 -14.118 -348.072 C -15.455 -347.243 -16.55 -346.063 -17.29 -344.656 C -18.005 -343.357 -18.589 -341.945 -19.601 -340.846 C -20.666 -339.726 -22.149 -339.121 -23.676 -339.186 C -25.561 -339.215 -27.323 -339.934 -29.022 -340.699 C -30.909 -341.547 -32.854 -342.458 -34.963 -342.377 C -35.219 -342.368 -35.219 -342.772 -34.964 -342.783 C -31.295 -342.925 -28.316 -340.251 -24.788 -339.688 C -23.141 -339.428 -21.406 -339.67 -20.146 -340.865 C -19.044 -341.91 -18.441 -343.366 -17.727 -344.687 C -17.027 -346.071 -16.003 -347.257 -14.747 -348.145 C -13.395 -349.021 -11.905 -349.655 -10.343 -350.02 C -6.84 -350.899 -3.222 -351.211 0.376 -350.944 C 4.485 -350.662 8.515 -349.665 12.295 -347.996 C 12.529 -347.892 12.327 -347.542 12.095 -347.645 Z" fill="#fff" style=""/>
  <path d="M -7.318 -350.445 C -7.531 -353.098 -5.831 -355.518 -3.3 -356.161 C -3.052 -356.223 -2.947 -355.833 -3.195 -355.772 C -5.552 -355.176 -7.134 -352.916 -6.922 -350.446 C -6.898 -350.186 -7.296 -350.187 -7.318 -350.445 Z" fill="#fff" style=""/>
  <path d="M -17.012 -345.362 C -15.059 -343.641 -12.542 -342.733 -9.962 -342.822 C -9.707 -342.83 -9.707 -342.426 -9.962 -342.416 C -12.647 -342.33 -15.264 -343.279 -17.293 -345.076 C -17.486 -345.248 -17.205 -345.534 -17.012 -345.362 Z" fill="#fff" style=""/>
  <path d="M 4.244 -350.185 C 4.118 -349.158 4.507 -348.136 5.279 -347.464 C 5.475 -347.296 5.193 -347.009 4.999 -347.177 C 4.151 -347.922 3.718 -349.05 3.846 -350.184 C 3.85 -350.295 3.936 -350.383 4.044 -350.386 C 4.154 -350.385 4.243 -350.296 4.244 -350.185 Z" fill="#fff" style=""/>
  <path d="M 210.648 -311.475 C 207.26 -319.995 199.628 -327.215 190.64 -327.831 C 196.269 -319.646 198.881 -309.694 198.014 -299.735 C 197.666 -295.894 196.887 -291.66 199.001 -288.464 C 200.317 -286.476 202.569 -285.295 204.869 -284.8 C 207.171 -284.306 209.549 -284.421 211.897 -284.539 L 212.431 -284.29 C 213.821 -293.375 214.035 -302.954 210.648 -311.475 Z" fill="#f2f2f2" style=""/>
  <path d="M 190.602 -327.641 C 196.838 -323.468 201.627 -317.396 204.289 -310.285 C 204.888 -308.767 205.249 -307.16 205.359 -305.525 C 205.415 -303.928 205.052 -302.346 204.306 -300.941 C 203.636 -299.618 202.802 -298.344 202.459 -296.877 C 202.126 -295.351 202.446 -293.756 203.34 -292.488 C 204.399 -290.898 205.957 -289.79 207.516 -288.761 C 209.247 -287.62 211.063 -286.462 212.155 -284.618 C 212.288 -284.395 212.619 -284.618 212.487 -284.842 C 210.587 -288.048 206.762 -289.118 204.363 -291.817 C 203.243 -293.079 202.489 -294.691 202.773 -296.422 C 203.023 -297.936 203.883 -299.251 204.572 -300.585 C 205.319 -301.944 205.728 -303.47 205.765 -305.028 C 205.737 -306.663 205.437 -308.281 204.878 -309.814 C 203.673 -313.284 201.939 -316.541 199.742 -319.463 C 197.254 -322.811 194.222 -325.7 190.778 -328.005 C 190.566 -328.148 190.39 -327.783 190.602 -327.641 Z" fill="#fff" style=""/>
  <path d="M 203.564 -312.628 C 205.852 -313.903 206.897 -316.684 206.034 -319.194 C 205.949 -319.44 205.57 -319.317 205.655 -319.07 C 206.465 -316.733 205.485 -314.141 203.346 -312.966 C 203.121 -312.841 203.341 -312.504 203.564 -312.628 Z" fill="#fff" style=""/>
  <path d="M 204.731 -301.567 C 202.249 -302.286 200.123 -303.934 198.777 -306.181 C 198.645 -306.404 198.313 -306.181 198.446 -305.96 C 199.85 -303.622 202.066 -301.911 204.651 -301.17 C 204.898 -301.099 204.977 -301.496 204.731 -301.567 Z" fill="#fff" style=""/>
  <path d="M 196.996 -322.343 C 196.224 -321.672 195.173 -321.441 194.2 -321.73 C 193.954 -321.805 193.876 -321.408 194.119 -321.335 C 195.196 -321.02 196.355 -321.272 197.214 -322.004 C 197.302 -322.068 197.327 -322.19 197.27 -322.284 C 197.209 -322.377 197.087 -322.403 196.996 -322.343 Z" fill="#fff" style=""/>
  <path d="M 169.671 -305.222 C 169.823 -305.171 169.975 -305.121 170.128 -305.067 C 172.168 -304.376 174.15 -303.519 176.054 -302.503 C 176.201 -302.426 176.351 -302.347 176.497 -302.266 C 181.058 -299.764 185.125 -296.422 188.49 -292.406 C 189.828 -290.806 191.045 -289.105 192.13 -287.317 C 193.628 -284.849 195.061 -282.048 197.207 -280.281 C 197.429 -280.094 197.662 -279.92 197.905 -279.764 L 212.091 -283.644 C 212.12 -283.669 212.148 -283.692 212.176 -283.718 L 212.75 -283.846 C 212.7 -283.941 212.646 -284.04 212.597 -284.136 C 212.568 -284.193 212.537 -284.249 212.509 -284.304 C 212.487 -284.34 212.468 -284.377 212.452 -284.412 C 212.446 -284.424 212.439 -284.437 212.433 -284.446 C 212.416 -284.48 212.397 -284.511 212.383 -284.542 C 212.085 -285.094 211.783 -285.646 211.476 -286.196 C 211.476 -286.2 211.476 -286.2 211.472 -286.201 C 209.129 -290.388 206.421 -294.41 203.201 -297.884 C 203.105 -297.989 203.006 -298.096 202.904 -298.2 C 201.444 -299.758 199.862 -301.192 198.174 -302.487 C 197.247 -303.193 196.286 -303.851 195.294 -304.457 C 192.728 -306.021 189.937 -307.161 187.024 -307.839 C 181.215 -309.19 175.049 -308.63 170.051 -305.467 C 169.923 -305.386 169.798 -305.306 169.671 -305.222 Z" fill="#f2f2f2" style=""/>
  <path d="M 169.751 -305.047 C 177.192 -305.547 184.598 -303.64 190.916 -299.6 C 192.292 -298.755 193.527 -297.695 194.58 -296.455 C 195.567 -295.215 196.21 -293.729 196.443 -292.149 C 196.688 -290.681 196.774 -289.15 197.364 -287.769 C 197.999 -286.348 199.195 -285.27 200.656 -284.806 C 202.44 -284.188 204.336 -284.26 206.188 -284.398 C 208.244 -284.55 210.377 -284.741 212.337 -283.94 C 212.574 -283.843 212.708 -284.226 212.47 -284.321 C 209.062 -285.715 205.377 -284.218 201.868 -284.9 C 200.231 -285.218 198.677 -286.043 197.884 -287.599 C 197.19 -288.962 197.101 -290.538 196.864 -292.029 C 196.658 -293.572 196.087 -295.041 195.197 -296.308 C 194.21 -297.596 193.016 -298.705 191.666 -299.585 C 188.655 -301.614 185.351 -303.15 181.874 -304.133 C 177.912 -305.276 173.788 -305.721 169.678 -305.445 C 169.424 -305.428 169.499 -305.029 169.751 -305.047 Z" fill="#fff" style=""/>
  <path d="M 188.956 -301.022 C 190.031 -303.448 189.226 -306.312 187.055 -307.785 C 186.841 -307.93 186.613 -307.597 186.826 -307.454 C 188.852 -306.086 189.596 -303.414 188.582 -301.16 C 188.476 -300.923 188.851 -300.788 188.956 -301.022 Z" fill="#fff" style=""/>
  <path d="M 196.413 -292.911 C 194.007 -291.96 191.337 -291.968 188.937 -292.936 C 188.699 -293.032 188.565 -292.65 188.803 -292.555 C 191.303 -291.552 194.081 -291.549 196.583 -292.545 C 196.822 -292.639 196.65 -293.005 196.413 -292.911 Z" fill="#fff" style=""/>
  <path d="M 177.981 -304.744 C 177.761 -303.734 177.057 -302.905 176.11 -302.538 C 175.87 -302.446 176.042 -302.081 176.279 -302.171 C 177.325 -302.582 178.102 -303.495 178.356 -304.607 C 178.388 -304.713 178.337 -304.825 178.235 -304.867 C 178.132 -304.903 178.019 -304.849 177.981 -304.744 Z" fill="#fff" style=""/>
  <circle cx="524.6825" cy="583.33993" r="9.54602" fill="#fd6584" transform="matrix(0.349639, 0, 0, 0.356898, -38.527737, -494.059998)" style=""/>
  <circle cx="558.49624" cy="420.74992" r="9.54602" transform="matrix(0.349639, 0, 0, 0.356898, -38.527737, -494.059998)" style="fill: rgb(253, 101, 132);"/>
  <circle cx="380.86745" cy="155.96167" r="9.54602" transform="matrix(0.349639, 0, 0, 0.356898, -38.527737, -494.059998)" style="fill: rgb(253, 101, 132);"/>
  <path d="M 24.696 -307.707 C 24.696 -306.842 24.724 -305.973 24.783 -305.113 C 24.846 -304.085 24.954 -303.064 25.101 -302.051 C 25.594 -298.638 26.537 -295.31 27.905 -292.154 C 27.976 -291.997 28.044 -291.84 28.115 -291.683 L 28.22 -291.447 C 28.254 -291.369 28.293 -291.29 28.328 -291.215 C 28.377 -291.113 28.422 -291.012 28.472 -290.912 C 28.532 -290.787 28.59 -290.662 28.653 -290.538 C 28.66 -290.522 28.667 -290.506 28.679 -290.487 C 28.73 -290.38 28.78 -290.278 28.836 -290.17 C 28.846 -290.147 28.858 -290.124 28.87 -290.101 C 28.93 -289.981 28.993 -289.856 29.055 -289.734 C 29.125 -289.605 29.192 -289.474 29.262 -289.344 C 29.429 -289.028 29.604 -288.714 29.783 -288.399 C 29.835 -288.307 29.887 -288.215 29.944 -288.121 C 29.992 -288.035 30.042 -287.95 30.094 -287.864 C 30.129 -287.807 30.163 -287.747 30.199 -287.69 C 30.255 -287.593 30.31 -287.499 30.37 -287.403 C 30.5 -287.194 30.632 -286.982 30.762 -286.772 L 30.765 -286.772 C 30.825 -286.675 30.888 -286.58 30.951 -286.487 L 30.951 -286.483 C 31.136 -286.199 31.328 -285.911 31.52 -285.63 C 31.523 -285.63 31.524 -285.628 31.524 -285.627 C 31.678 -285.398 31.839 -285.177 31.996 -284.955 L 31.996 -284.952 C 32.1 -284.812 32.202 -284.671 32.307 -284.532 C 32.391 -284.415 32.478 -284.298 32.566 -284.185 C 32.583 -284.16 32.605 -284.138 32.622 -284.113 L 32.622 -284.11 C 32.646 -284.077 32.67 -284.049 32.696 -284.017 C 33.067 -283.531 33.448 -283.057 33.841 -282.593 L 33.905 -282.519 C 33.925 -282.493 33.951 -282.467 33.971 -282.44 C 34.007 -282.4 34.038 -282.361 34.072 -282.321 C 34.105 -282.282 34.139 -282.242 34.174 -282.204 C 36.228 -279.842 38.556 -277.747 41.107 -275.962 C 41.446 -275.723 41.793 -275.491 42.138 -275.267 C 42.226 -275.208 42.313 -275.151 42.402 -275.098 C 42.426 -275.08 42.453 -275.062 42.479 -275.045 C 42.527 -275.016 42.573 -274.988 42.621 -274.956 C 42.667 -274.927 42.713 -274.898 42.761 -274.87 C 42.947 -274.752 43.135 -274.638 43.324 -274.524 C 43.37 -274.495 43.419 -274.467 43.467 -274.437 C 43.513 -274.413 43.562 -274.384 43.611 -274.356 C 43.611 -274.352 43.611 -274.352 43.614 -274.352 L 43.618 -274.352 L 43.618 -274.35 L 43.621 -274.35 C 43.855 -274.21 44.093 -274.074 44.334 -273.941 C 44.464 -273.87 44.598 -273.796 44.729 -273.727 C 45.031 -273.56 45.335 -273.399 45.639 -273.245 C 45.747 -273.192 45.86 -273.139 45.967 -273.081 C 46.058 -273.038 46.149 -272.992 46.24 -272.95 C 46.268 -272.936 46.293 -272.924 46.318 -272.91 C 46.395 -272.875 46.467 -272.839 46.544 -272.803 C 46.629 -272.763 46.713 -272.724 46.793 -272.685 C 46.887 -272.644 46.978 -272.6 47.072 -272.561 C 47.422 -272.4 47.775 -272.246 48.129 -272.1 C 49.394 -271.57 50.687 -271.112 52.002 -270.73 C 52.062 -270.713 52.125 -270.695 52.187 -270.675 C 52.751 -270.516 53.317 -270.369 53.887 -270.237 C 54.884 -270.002 55.889 -269.808 56.905 -269.66 L 56.912 -269.66 C 57.034 -269.641 57.153 -269.623 57.274 -269.605 C 57.285 -269.605 57.296 -269.601 57.31 -269.601 C 57.31 -269.598 57.31 -269.598 57.313 -269.601 C 57.447 -269.584 57.582 -269.566 57.716 -269.548 C 57.725 -269.545 57.734 -269.544 57.743 -269.544 C 57.869 -269.527 57.999 -269.513 58.124 -269.499 C 58.261 -269.483 58.398 -269.469 58.533 -269.456 C 58.638 -269.444 58.743 -269.435 58.848 -269.423 C 58.858 -269.42 58.867 -269.419 58.877 -269.42 C 58.97 -269.412 59.065 -269.402 59.159 -269.396 L 59.174 -269.396 C 59.254 -269.387 59.338 -269.38 59.419 -269.372 C 60.393 -269.295 61.373 -269.26 62.365 -269.26 C 63.439 -269.26 64.506 -269.301 65.558 -269.396 L 65.568 -269.396 C 65.796 -269.417 66.02 -269.438 66.243 -269.459 C 66.302 -269.466 66.358 -269.469 66.418 -269.477 C 66.428 -269.477 66.442 -269.482 66.453 -269.482 C 66.471 -269.483 66.488 -269.483 66.509 -269.488 C 66.518 -269.487 66.528 -269.489 66.537 -269.491 C 66.613 -269.499 66.69 -269.509 66.77 -269.517 L 67.034 -269.548 C 67.121 -269.559 67.208 -269.574 67.295 -269.584 C 67.316 -269.588 67.334 -269.588 67.355 -269.591 C 67.418 -269.598 67.481 -269.609 67.543 -269.62 C 67.576 -269.623 67.607 -269.626 67.634 -269.63 C 67.698 -269.641 67.757 -269.649 67.82 -269.66 L 67.824 -269.66 C 69.742 -269.941 71.636 -270.377 73.488 -270.961 C 73.585 -270.993 73.684 -271.023 73.782 -271.055 C 73.785 -271.055 73.788 -271.058 73.792 -271.058 C 73.819 -271.07 73.851 -271.076 73.879 -271.087 C 74.142 -271.172 74.401 -271.261 74.658 -271.354 C 75.016 -271.474 75.368 -271.609 75.722 -271.743 C 75.816 -271.782 75.911 -271.818 76.004 -271.857 C 76.198 -271.932 76.386 -272.011 76.576 -272.09 C 76.897 -272.222 77.219 -272.361 77.536 -272.504 C 77.834 -272.639 78.127 -272.775 78.421 -272.917 C 78.428 -272.921 78.438 -272.921 78.445 -272.928 C 78.511 -272.961 78.578 -272.992 78.641 -273.025 L 78.645 -273.025 C 80.254 -273.813 81.807 -274.718 83.291 -275.733 C 83.766 -276.058 84.236 -276.394 84.697 -276.74 C 85.068 -277.021 85.432 -277.307 85.794 -277.599 C 87.589 -279.056 89.249 -280.676 90.756 -282.44 L 90.756 -282.444 C 90.865 -282.565 90.966 -282.689 91.07 -282.814 C 91.089 -282.833 91.103 -282.849 91.116 -282.864 C 91.183 -282.946 91.246 -283.024 91.313 -283.103 L 91.313 -283.106 C 91.4 -283.21 91.487 -283.317 91.571 -283.425 C 91.592 -283.449 91.609 -283.471 91.628 -283.493 L 91.628 -283.496 C 91.696 -283.581 91.763 -283.666 91.833 -283.757 C 91.869 -283.799 91.899 -283.842 91.934 -283.885 L 91.934 -283.888 C 92.141 -284.153 92.34 -284.415 92.539 -284.688 C 92.592 -284.759 92.645 -284.834 92.7 -284.91 C 92.952 -285.255 93.197 -285.607 93.435 -285.963 L 93.435 -285.965 C 93.526 -286.098 93.613 -286.233 93.703 -286.365 C 93.791 -286.501 93.878 -286.637 93.966 -286.772 C 94.053 -286.916 94.145 -287.054 94.232 -287.196 L 94.242 -287.219 C 94.33 -287.354 94.417 -287.496 94.501 -287.635 C 94.567 -287.75 94.634 -287.86 94.7 -287.972 C 94.742 -288.046 94.788 -288.121 94.829 -288.2 C 94.846 -288.223 94.861 -288.249 94.875 -288.275 C 94.973 -288.45 95.07 -288.625 95.169 -288.8 C 95.284 -289.003 95.396 -289.21 95.508 -289.417 C 95.55 -289.502 95.595 -289.587 95.641 -289.673 C 95.658 -289.703 95.672 -289.731 95.686 -289.759 C 95.739 -289.86 95.791 -289.962 95.84 -290.066 C 95.893 -290.166 95.945 -290.269 95.997 -290.374 C 96.046 -290.474 96.099 -290.577 96.147 -290.68 C 96.186 -290.759 96.221 -290.838 96.26 -290.915 C 96.263 -290.922 96.266 -290.927 96.27 -290.934 C 96.287 -290.973 96.305 -291.008 96.319 -291.044 C 96.323 -291.051 96.327 -291.056 96.33 -291.062 C 96.368 -291.14 96.403 -291.223 96.441 -291.301 C 96.491 -291.405 96.535 -291.511 96.585 -291.614 C 96.616 -291.687 96.652 -291.761 96.682 -291.836 C 96.728 -291.94 96.777 -292.043 96.819 -292.149 C 96.867 -292.259 96.913 -292.365 96.959 -292.476 C 96.973 -292.502 96.984 -292.529 96.994 -292.558 C 97.018 -292.608 97.036 -292.657 97.057 -292.707 C 97.113 -292.84 97.169 -292.976 97.221 -293.107 C 97.284 -293.256 97.343 -293.411 97.4 -293.56 C 97.455 -293.699 97.508 -293.841 97.56 -293.984 L 97.582 -294.036 C 98.396 -296.224 99.014 -298.486 99.428 -300.791 L 99.428 -300.794 C 99.661 -302.11 99.827 -303.438 99.927 -304.77 C 99.93 -304.846 99.938 -304.917 99.942 -304.988 C 100.004 -305.891 100.033 -306.798 100.033 -307.707 C 100.033 -308.112 100.026 -308.511 100.015 -308.91 C 99.77 -317.27 96.85 -325.318 91.7 -331.824 C 91.588 -331.966 91.477 -332.11 91.361 -332.252 C 91.246 -332.394 91.127 -332.534 91.011 -332.672 C 74.529 -352.376 44.064 -350.141 30.51 -328.235 C 30.339 -327.957 30.168 -327.677 30.003 -327.395 C 29.835 -327.109 29.674 -326.824 29.513 -326.534 C 26.346 -320.787 24.687 -314.302 24.696 -307.707 Z" style="fill: rgb(230, 230, 230);"/>
  <path d="M 60.868 -332.857 C 67.062 -331.234 73.41 -330.3 79.801 -330.067 C 80.767 -330.014 81.735 -330.021 82.702 -330.088 C 84.823 -330.27 86.641 -330.951 88.666 -331.322 C 89.638 -331.501 90.722 -331.631 91.702 -331.824 C 91.476 -332.112 91.245 -332.394 91.011 -332.674 C 88.899 -332.491 86.752 -331.896 84.615 -331.618 C 80.981 -331.147 76.908 -331.674 74.153 -332.971 C 72.817 -333.602 71.793 -334.387 70.462 -335.019 C 70.279 -335.115 70.084 -335.176 69.881 -335.2 C 69.497 -335.214 69.118 -335.114 68.788 -334.912 C 66.553 -333.761 63.309 -332.824 60.298 -333.339 C 60.073 -333.161 60.499 -332.955 60.868 -332.857 Z" fill="#fff" style=""/>
  <path d="M 47.542 -328.804 C 47.514 -328.81 47.486 -328.813 47.46 -328.818 C 47.575 -328.892 47.684 -328.975 47.785 -329.069 L 47.542 -328.804 Z" fill="#fff" style=""/>
  <path d="M 29.514 -326.533 C 30.772 -326.43 32.036 -326.354 33.308 -326.303 C 34.274 -326.249 35.242 -326.257 36.208 -326.324 C 38.33 -326.506 40.148 -327.187 42.172 -327.559 C 44.026 -327.899 46.281 -328.063 47.46 -328.818 C 44.415 -329.356 41.261 -328.261 38.122 -327.854 C 35.582 -327.536 33.008 -327.665 30.512 -328.237 C 30.164 -327.679 29.832 -327.111 29.514 -326.533 Z" fill="#fff" style=""/>
  <path d="M 44.729 -273.727 C 45.031 -273.56 45.335 -273.399 45.639 -273.245 C 45.747 -273.192 45.86 -273.139 45.967 -273.081 C 46.058 -273.038 46.149 -272.992 46.24 -272.95 C 46.268 -272.936 46.293 -272.924 46.318 -272.91 C 46.395 -272.875 46.467 -272.839 46.544 -272.803 C 46.629 -272.763 46.713 -272.724 46.793 -272.685 C 46.887 -272.644 46.978 -272.6 47.072 -272.561 C 47.422 -272.4 47.775 -272.246 48.129 -272.1 C 49.394 -271.57 50.687 -271.112 52.002 -270.73 C 52.062 -270.713 52.125 -270.695 52.187 -270.675 C 52.751 -270.516 53.317 -270.369 53.887 -270.237 C 54.884 -270.002 55.889 -269.808 56.905 -269.66 L 56.912 -269.66 C 57.034 -269.641 57.153 -269.623 57.274 -269.605 C 57.285 -269.605 57.296 -269.601 57.31 -269.601 C 57.31 -269.598 57.31 -269.598 57.313 -269.601 C 57.447 -269.584 57.582 -269.566 57.716 -269.548 C 57.725 -269.545 57.734 -269.544 57.743 -269.544 C 57.869 -269.527 57.999 -269.513 58.124 -269.499 C 58.261 -269.483 58.398 -269.469 58.533 -269.456 C 58.638 -269.444 58.743 -269.435 58.848 -269.423 C 58.858 -269.42 58.867 -269.419 58.877 -269.42 C 58.97 -269.412 59.065 -269.402 59.159 -269.396 L 59.174 -269.396 C 59.254 -269.387 59.338 -269.38 59.419 -269.372 C 60.393 -269.295 61.373 -269.26 62.365 -269.26 C 63.439 -269.26 64.506 -269.301 65.558 -269.396 L 65.568 -269.396 C 65.796 -269.417 66.02 -269.438 66.243 -269.459 C 66.302 -269.466 66.358 -269.469 66.418 -269.477 C 66.428 -269.477 66.442 -269.482 66.453 -269.482 C 66.471 -269.483 66.488 -269.483 66.509 -269.488 C 66.518 -269.487 66.528 -269.489 66.537 -269.491 C 66.613 -269.499 66.69 -269.509 66.77 -269.517 L 67.034 -269.548 C 67.121 -269.559 67.208 -269.574 67.295 -269.584 C 67.316 -269.588 67.334 -269.588 67.355 -269.591 C 67.418 -269.598 67.481 -269.609 67.543 -269.62 C 67.576 -269.623 67.607 -269.626 67.634 -269.63 C 67.698 -269.641 67.757 -269.649 67.82 -269.66 L 67.824 -269.66 C 69.742 -269.941 71.636 -270.377 73.488 -270.96 C 73.585 -270.993 73.684 -271.023 73.782 -271.055 C 72.866 -275.409 70.02 -279.085 66.079 -280.997 C 66.56 -281.466 66.892 -282.069 67.034 -282.732 C 67.216 -283.595 67.055 -284.496 66.585 -285.237 C 66.132 -285.948 65.42 -286.446 64.607 -286.622 L 59.425 -287.729 C 57.69 -288.073 56.004 -286.928 55.65 -285.158 C 55.596 -284.898 55.573 -284.632 55.579 -284.367 C 50.59 -280.976 46.999 -277.46 44.729 -273.727 Z" style="fill: rgb(2, 226, 242);"/>
  <circle cx="281.88445" cy="541.39662" r="30.87556" fill="#ffb8b8" transform="matrix(0.349639, 0, 0, 0.356898, -38.527737, -494.059998)" style=""/>
  <path d="M 53.301 -291.336 C 52.15 -292.14 50.974 -293.681 50.189 -294.837 C 48.086 -297.911 47.358 -301.751 48.187 -305.402 C 48.318 -306.125 48.639 -306.796 49.117 -307.346 C 49.626 -307.859 50.455 -308.103 51.076 -307.739 C 50.734 -308.675 50.786 -309.713 51.22 -310.609 C 51.657 -311.493 52.288 -312.262 53.066 -312.853 C 56.096 -315.235 60.163 -315.727 63.654 -314.133 C 64.328 -313.814 63.221 -316.277 63.926 -316.041 C 64.628 -315.762 65.407 -315.777 66.099 -316.079 C 66.762 -316.42 68.963 -314.393 68.708 -315.106 C 70.901 -314.09 71.308 -311.088 69.468 -309.501 C 68.911 -309.021 68.215 -308.745 67.605 -308.338 C 65.393 -306.749 64.691 -303.724 65.969 -301.292 C 65.327 -301.712 64.623 -302.026 63.884 -302.216 C 63.13 -302.405 62.336 -302.209 61.748 -301.693 C 61.261 -301.123 61.025 -300.371 61.096 -299.617 C 61.12 -298.869 61.295 -298.133 61.315 -297.385 C 61.372 -295.19 62.523 -291.018 60.856 -289.851 C 59.541 -288.931 54.873 -290.24 53.301 -291.336 Z" fill="#2f2e41" style=""/>
  <path d="M 67.452 -355.992 C 67.225 -355.992 67 -356.039 66.79 -356.13 C 66.15 -356.391 65.733 -357.029 65.739 -357.733 L 65.739 -359.478 C 65.738 -360.239 65.135 -360.856 64.388 -360.858 C 63.449 -360.859 62.687 -361.636 62.686 -362.594 L 62.686 -386.491 C 62.687 -387.449 63.448 -388.225 64.388 -388.227 L 141.947 -388.227 C 142.886 -388.225 143.648 -387.449 143.649 -386.491 L 143.649 -362.594 C 143.648 -361.636 142.886 -360.859 141.947 -360.858 L 73.468 -360.858 C 73.109 -360.859 72.765 -360.712 72.513 -360.454 L 68.644 -356.506 C 68.33 -356.178 67.901 -355.993 67.452 -355.992 Z" fill="#fff" style=""/>
  <path d="M 67.452 -355.635 C 67.179 -355.635 66.908 -355.692 66.656 -355.799 C 65.884 -356.116 65.382 -356.884 65.39 -357.733 L 65.39 -359.478 C 65.39 -360.041 64.941 -360.5 64.388 -360.501 C 63.256 -360.502 62.338 -361.439 62.337 -362.594 L 62.337 -386.491 C 62.338 -387.646 63.256 -388.584 64.388 -388.584 L 141.947 -388.584 C 143.08 -388.584 143.997 -387.646 143.999 -386.491 L 143.999 -362.594 C 143.997 -361.439 143.08 -360.502 141.947 -360.501 L 73.468 -360.501 C 73.203 -360.501 72.947 -360.394 72.759 -360.201 L 68.892 -356.253 C 68.512 -355.859 67.994 -355.636 67.452 -355.635 Z M 64.388 -387.87 C 63.642 -387.869 63.037 -387.251 63.036 -386.491 L 63.036 -362.594 C 63.037 -361.833 63.642 -361.216 64.388 -361.215 C 65.327 -361.214 66.089 -360.436 66.09 -359.478 L 66.09 -357.733 C 66.09 -356.67 67.216 -356.007 68.118 -356.539 C 68.22 -356.598 68.314 -356.672 68.397 -356.758 L 72.266 -360.704 C 72.584 -361.032 73.016 -361.217 73.468 -361.215 L 141.947 -361.215 C 142.694 -361.216 143.299 -361.833 143.299 -362.594 L 143.299 -386.491 C 143.299 -387.251 142.694 -387.869 141.947 -387.87 L 64.388 -387.87 Z" fill="#3f3d56" style=""/>
  <path d="M 135.282 -377.408 L 72.39 -377.408 C 71.692 -377.408 71.257 -378.18 71.605 -378.795 C 71.767 -379.082 72.066 -379.258 72.39 -379.258 L 135.282 -379.258 C 135.98 -379.258 136.416 -378.488 136.066 -377.871 C 135.905 -377.585 135.606 -377.408 135.282 -377.408 Z" style="fill: rgb(2, 226, 242);"/>
  <path d="M 135.166 -373.481 L 72.39 -373.481 C 71.692 -373.481 71.257 -374.251 71.605 -374.867 C 71.767 -375.153 72.066 -375.33 72.39 -375.33 L 135.166 -375.33 C 135.864 -375.33 136.299 -374.56 135.951 -373.943 C 135.789 -373.657 135.49 -373.481 135.166 -373.481 Z" style="fill: rgb(91, 57, 125);"/>
  <path d="M 135.104 -369.552 L 72.39 -369.552 C 71.692 -369.552 71.257 -370.324 71.605 -370.94 C 71.767 -371.226 72.066 -371.401 72.39 -371.401 L 135.104 -371.401 C 135.801 -371.401 136.237 -370.631 135.889 -370.015 C 135.727 -369.729 135.428 -369.552 135.104 -369.552 Z" style="fill: rgb(91, 57, 125);"/>
  <path d="M 234.325 -391.935 C 234.325 -391.068 234.297 -390.201 234.238 -389.34 C 234.175 -388.313 234.066 -387.292 233.919 -386.277 C 233.425 -382.866 232.483 -379.537 231.116 -376.382 C 231.045 -376.225 230.975 -376.068 230.905 -375.911 L 230.801 -375.676 C 230.767 -375.596 230.727 -375.517 230.693 -375.443 C 230.644 -375.34 230.598 -375.239 230.549 -375.139 C 230.49 -375.015 230.43 -374.89 230.367 -374.764 C 230.36 -374.751 230.353 -374.734 230.342 -374.716 C 230.29 -374.608 230.241 -374.505 230.186 -374.398 C 230.175 -374.375 230.163 -374.351 230.15 -374.329 C 230.091 -374.208 230.028 -374.084 229.964 -373.962 C 229.895 -373.834 229.829 -373.702 229.759 -373.573 C 229.591 -373.256 229.416 -372.941 229.238 -372.628 C 229.185 -372.535 229.133 -372.442 229.077 -372.349 C 229.028 -372.263 228.979 -372.177 228.927 -372.092 C 228.892 -372.035 228.857 -371.975 228.822 -371.917 C 228.765 -371.82 228.71 -371.728 228.651 -371.632 C 228.521 -371.421 228.388 -371.211 228.259 -371.001 L 228.256 -371.001 C 228.196 -370.904 228.133 -370.807 228.07 -370.714 L 228.07 -370.711 C 227.885 -370.425 227.692 -370.139 227.5 -369.858 C 227.498 -369.858 227.497 -369.856 227.497 -369.854 C 227.343 -369.626 227.182 -369.405 227.025 -369.183 L 227.025 -369.18 C 226.919 -369.04 226.818 -368.898 226.713 -368.758 C 226.63 -368.644 226.543 -368.526 226.455 -368.413 C 226.437 -368.388 226.416 -368.367 226.399 -368.341 L 226.399 -368.337 C 226.375 -368.306 226.35 -368.277 226.325 -368.245 C 225.954 -367.759 225.572 -367.285 225.179 -366.821 L 225.115 -366.747 C 225.095 -366.721 225.07 -366.695 225.05 -366.668 C 225.014 -366.629 224.983 -366.59 224.948 -366.55 C 224.916 -366.51 224.881 -366.47 224.847 -366.431 C 222.793 -364.069 220.465 -361.974 217.914 -360.189 C 217.574 -359.95 217.228 -359.719 216.881 -359.494 C 216.794 -359.436 216.707 -359.379 216.619 -359.326 C 216.595 -359.309 216.567 -359.29 216.543 -359.273 C 216.493 -359.244 216.448 -359.215 216.399 -359.184 C 216.354 -359.154 216.308 -359.126 216.259 -359.098 C 216.074 -358.98 215.886 -358.865 215.696 -358.751 C 215.651 -358.723 215.602 -358.694 215.553 -358.665 C 215.508 -358.64 215.458 -358.612 215.41 -358.584 C 215.41 -358.579 215.41 -358.579 215.407 -358.579 L 215.403 -358.579 L 215.403 -358.577 L 215.4 -358.577 C 215.165 -358.437 214.927 -358.301 214.686 -358.169 C 214.557 -358.098 214.423 -358.023 214.291 -357.955 C 213.99 -357.787 213.686 -357.627 213.382 -357.474 C 213.273 -357.42 213.161 -357.366 213.053 -357.309 C 212.962 -357.266 212.871 -357.22 212.78 -357.178 C 212.753 -357.164 212.727 -357.152 212.703 -357.138 C 212.626 -357.103 212.553 -357.066 212.476 -357.03 C 212.392 -356.991 212.308 -356.953 212.228 -356.913 C 212.134 -356.871 212.043 -356.827 211.948 -356.788 C 211.599 -356.628 211.246 -356.474 210.892 -356.328 C 209.627 -355.798 208.333 -355.34 207.019 -354.958 C 206.959 -354.938 206.896 -354.922 206.833 -354.904 C 206.27 -354.743 205.704 -354.597 205.134 -354.464 C 204.137 -354.23 203.131 -354.037 202.116 -353.887 L 202.109 -353.887 C 201.987 -353.869 201.868 -353.851 201.746 -353.832 C 201.735 -353.832 201.725 -353.829 201.71 -353.829 C 201.71 -353.825 201.71 -353.825 201.708 -353.829 C 201.574 -353.812 201.438 -353.794 201.305 -353.776 C 201.296 -353.774 201.286 -353.772 201.277 -353.772 C 201.151 -353.754 201.022 -353.74 200.896 -353.726 C 200.76 -353.711 200.623 -353.698 200.487 -353.684 C 200.382 -353.672 200.278 -353.663 200.172 -353.651 C 200.163 -353.648 200.154 -353.647 200.144 -353.648 C 200.051 -353.64 199.955 -353.63 199.861 -353.623 L 199.847 -353.623 C 199.766 -353.615 199.682 -353.608 199.602 -353.6 C 198.627 -353.522 197.648 -353.487 196.655 -353.487 C 195.582 -353.487 194.515 -353.529 193.463 -353.623 L 193.452 -353.623 C 193.225 -353.645 193.001 -353.665 192.778 -353.686 C 192.718 -353.694 192.662 -353.698 192.603 -353.705 C 192.593 -353.705 192.578 -353.708 192.567 -353.708 C 192.55 -353.711 192.533 -353.711 192.512 -353.716 C 192.502 -353.716 192.492 -353.716 192.483 -353.719 C 192.407 -353.726 192.33 -353.737 192.249 -353.744 L 191.987 -353.776 C 191.9 -353.786 191.813 -353.802 191.726 -353.812 C 191.704 -353.815 191.687 -353.815 191.666 -353.819 C 191.603 -353.825 191.54 -353.837 191.477 -353.847 C 191.445 -353.851 191.415 -353.855 191.386 -353.858 C 191.322 -353.869 191.264 -353.877 191.201 -353.887 L 191.197 -353.887 C 189.278 -354.169 187.385 -354.604 185.532 -355.189 C 185.435 -355.221 185.337 -355.25 185.239 -355.282 C 185.236 -355.282 185.232 -355.286 185.229 -355.286 C 185.201 -355.297 185.169 -355.304 185.142 -355.314 C 184.879 -355.399 184.62 -355.489 184.362 -355.582 C 184.005 -355.702 183.653 -355.834 183.299 -355.971 C 183.204 -356.01 183.11 -356.046 183.015 -356.085 C 182.823 -356.16 182.635 -356.239 182.445 -356.318 C 182.124 -356.449 181.802 -356.588 181.484 -356.73 C 181.187 -356.867 180.893 -357.003 180.6 -357.145 C 180.592 -357.148 180.582 -357.148 180.575 -357.156 C 180.509 -357.187 180.443 -357.22 180.38 -357.252 L 180.376 -357.252 C 178.765 -358.04 177.212 -358.947 175.729 -359.961 C 175.253 -360.286 174.784 -360.621 174.324 -360.968 C 173.953 -361.249 173.589 -361.535 173.226 -361.827 C 171.432 -363.285 169.77 -364.904 168.264 -366.668 L 168.264 -366.67 C 168.156 -366.792 168.055 -366.917 167.949 -367.043 C 167.932 -367.06 167.918 -367.078 167.905 -367.091 C 167.838 -367.174 167.775 -367.253 167.708 -367.332 L 167.708 -367.334 C 167.621 -367.438 167.534 -367.545 167.45 -367.651 C 167.429 -367.677 167.411 -367.699 167.393 -367.721 L 167.393 -367.724 C 167.324 -367.808 167.257 -367.894 167.187 -367.984 C 167.152 -368.026 167.121 -368.07 167.086 -368.112 L 167.086 -368.116 C 166.88 -368.38 166.681 -368.644 166.48 -368.916 C 166.429 -368.987 166.376 -369.062 166.32 -369.137 C 166.068 -369.482 165.824 -369.836 165.586 -370.19 L 165.586 -370.193 C 165.495 -370.326 165.408 -370.461 165.317 -370.593 C 165.229 -370.728 165.142 -370.865 165.054 -371.001 C 164.967 -371.143 164.876 -371.282 164.789 -371.424 L 164.779 -371.446 C 164.691 -371.582 164.604 -371.724 164.519 -371.863 C 164.453 -371.978 164.387 -372.088 164.321 -372.199 C 164.278 -372.275 164.233 -372.349 164.191 -372.428 C 164.174 -372.451 164.16 -372.476 164.146 -372.503 C 164.047 -372.676 163.95 -372.853 163.852 -373.028 C 163.736 -373.231 163.624 -373.438 163.513 -373.644 C 163.471 -373.73 163.425 -373.816 163.38 -373.902 C 163.363 -373.93 163.349 -373.959 163.334 -373.987 C 163.282 -374.086 163.229 -374.19 163.18 -374.294 C 163.128 -374.394 163.076 -374.498 163.022 -374.601 C 162.975 -374.702 162.921 -374.804 162.873 -374.908 C 162.834 -374.986 162.799 -375.065 162.761 -375.143 C 162.758 -375.15 162.755 -375.156 162.751 -375.161 C 162.733 -375.201 162.715 -375.237 162.701 -375.272 C 162.697 -375.279 162.694 -375.283 162.691 -375.289 C 162.653 -375.368 162.617 -375.45 162.58 -375.529 C 162.53 -375.633 162.484 -375.738 162.436 -375.843 C 162.404 -375.915 162.369 -375.99 162.338 -376.064 C 162.293 -376.168 162.243 -376.271 162.202 -376.378 C 162.152 -376.486 162.108 -376.592 162.062 -376.703 C 162.048 -376.73 162.037 -376.757 162.027 -376.785 C 162.002 -376.836 161.985 -376.885 161.964 -376.935 C 161.907 -377.068 161.851 -377.203 161.8 -377.335 C 161.737 -377.484 161.677 -377.639 161.621 -377.787 C 161.566 -377.926 161.512 -378.069 161.46 -378.213 L 161.439 -378.262 C 160.625 -380.452 160.007 -382.715 159.593 -385.019 L 159.593 -385.022 C 159.36 -386.339 159.193 -387.665 159.093 -388.998 C 159.089 -389.074 159.083 -389.145 159.079 -389.216 C 159.016 -390.118 158.988 -391.026 158.988 -391.935 C 158.988 -392.338 158.995 -392.738 159.006 -393.138 C 159.25 -401.499 162.17 -409.546 167.32 -416.051 C 167.432 -416.193 167.544 -416.337 167.659 -416.48 C 167.775 -416.622 167.893 -416.761 168.009 -416.9 C 184.491 -436.603 214.957 -434.369 228.511 -412.464 C 228.682 -412.186 228.853 -411.904 229.017 -411.623 C 229.185 -411.336 229.345 -411.05 229.507 -410.762 C 232.675 -405.015 234.334 -398.531 234.325 -391.935 Z" fill="#f2f2f2" style=""/>
  <path d="M 198.152 -417.085 C 191.958 -415.462 185.61 -414.528 179.22 -414.295 C 178.254 -414.243 177.284 -414.248 176.319 -414.316 C 174.198 -414.498 172.38 -415.179 170.355 -415.55 C 169.382 -415.73 168.299 -415.859 167.318 -416.052 C 167.545 -416.339 167.776 -416.622 168.01 -416.901 C 170.122 -416.719 172.268 -416.122 174.406 -415.846 C 178.04 -415.374 182.112 -415.9 184.867 -417.199 C 186.204 -417.828 187.227 -418.614 188.56 -419.248 C 188.74 -419.342 188.937 -419.405 189.139 -419.429 C 189.523 -419.44 189.902 -419.34 190.232 -419.14 C 192.468 -417.987 195.711 -417.052 198.723 -417.567 C 198.948 -417.388 198.521 -417.184 198.152 -417.085 Z" fill="#fff" style=""/>
  <path d="M 211.478 -413.033 C 211.506 -413.037 211.533 -413.042 211.561 -413.046 C 211.446 -413.12 211.337 -413.202 211.235 -413.296 L 211.478 -413.033 Z" fill="#fff" style=""/>
  <path d="M 229.506 -410.761 C 228.248 -410.658 226.984 -410.582 225.713 -410.531 C 224.747 -410.477 223.778 -410.485 222.813 -410.551 C 220.691 -410.734 218.874 -411.414 216.849 -411.786 C 214.994 -412.126 212.739 -412.291 211.562 -413.046 C 214.605 -413.583 217.76 -412.489 220.899 -412.081 C 223.438 -411.764 226.013 -411.892 228.509 -412.465 C 228.856 -411.907 229.188 -411.338 229.506 -410.761 Z" fill="#fff" style=""/>
  <ellipse cx="192.408" cy="-386.917" rx="11.314" ry="11.806" fill="#ffb6b6" style=""/>
  <path d="M 214.291 -357.955 C 213.99 -357.787 213.686 -357.627 213.382 -357.474 C 213.273 -357.42 213.161 -357.366 213.053 -357.309 C 212.962 -357.266 212.871 -357.22 212.78 -357.178 C 212.753 -357.164 212.727 -357.152 212.703 -357.138 C 212.626 -357.103 212.553 -357.066 212.476 -357.03 C 212.392 -356.991 212.308 -356.952 212.228 -356.913 C 212.134 -356.871 212.043 -356.827 211.948 -356.788 C 211.599 -356.628 211.246 -356.474 210.892 -356.328 C 209.627 -355.798 208.333 -355.34 207.019 -354.958 C 206.959 -354.938 206.896 -354.922 206.833 -354.904 C 206.27 -354.743 205.704 -354.596 205.134 -354.464 C 204.137 -354.23 203.131 -354.037 202.116 -353.887 L 202.109 -353.887 C 201.987 -353.869 201.868 -353.851 201.746 -353.832 C 201.735 -353.832 201.725 -353.829 201.71 -353.829 C 201.71 -353.825 201.71 -353.825 201.708 -353.829 C 201.574 -353.812 201.438 -353.794 201.305 -353.776 C 201.296 -353.773 201.286 -353.772 201.277 -353.772 C 201.151 -353.754 201.022 -353.74 200.896 -353.726 C 200.76 -353.711 200.623 -353.698 200.487 -353.684 C 200.382 -353.672 200.278 -353.662 200.172 -353.651 C 200.164 -353.648 200.154 -353.647 200.144 -353.648 C 200.051 -353.64 199.955 -353.63 199.861 -353.623 L 199.847 -353.623 C 199.766 -353.615 199.682 -353.608 199.602 -353.6 C 198.627 -353.522 197.648 -353.487 196.655 -353.487 C 195.582 -353.487 194.515 -353.529 193.463 -353.623 L 193.452 -353.623 C 193.225 -353.645 193.001 -353.665 192.778 -353.686 C 192.718 -353.694 192.662 -353.698 192.603 -353.705 C 192.593 -353.705 192.578 -353.708 192.567 -353.708 C 192.55 -353.711 192.533 -353.711 192.512 -353.716 C 192.502 -353.716 192.492 -353.716 192.483 -353.719 C 192.407 -353.726 192.33 -353.737 192.249 -353.744 L 191.987 -353.776 C 191.9 -353.786 191.813 -353.802 191.726 -353.812 C 191.704 -353.815 191.687 -353.815 191.666 -353.819 C 191.603 -353.825 191.54 -353.837 191.477 -353.847 C 191.445 -353.851 191.415 -353.855 191.386 -353.858 C 191.322 -353.869 191.264 -353.877 191.201 -353.887 L 191.197 -353.887 C 189.278 -354.169 187.385 -354.604 185.532 -355.189 C 185.435 -355.221 185.337 -355.25 185.239 -355.282 C 186.154 -359.638 189.001 -363.312 192.942 -365.225 C 192.461 -365.694 192.129 -366.297 191.987 -366.96 C 191.803 -367.822 191.966 -368.724 192.435 -369.465 C 192.888 -370.176 193.6 -370.674 194.414 -370.85 L 199.596 -371.957 C 201.331 -372.301 203.017 -371.156 203.371 -369.386 C 203.425 -369.126 203.448 -368.859 203.442 -368.595 C 208.431 -365.204 212.021 -361.688 214.291 -357.955 Z" style="fill: rgb(91, 57, 125);"/>
  <path d="M 222.683 -392.037 C 220.76 -394.327 219.845 -397.363 218.309 -399.963 C 216.771 -402.562 214.096 -404.889 211.269 -404.284 C 209.321 -403.868 207.816 -402.112 207.052 -400.156 C 206.29 -398.2 206.147 -396.042 206.015 -393.928 C 206.061 -398.271 203.258 -402.482 199.395 -403.869 C 195.534 -405.255 190.912 -403.709 188.485 -400.219 C 186.293 -402.293 182.928 -402.364 180.652 -400.387 C 178.482 -398.406 178.001 -394.637 179.598 -392.111 C 181.194 -389.585 184.652 -388.645 187.189 -390.046 L 188.086 -389.202 C 187.581 -387.4 188.559 -385.272 190.205 -384.594 C 191.54 -384.042 193.424 -384.135 193.924 -382.705 C 194.272 -381.706 193.62 -380.64 192.926 -379.872 C 192.232 -379.104 191.408 -378.313 191.325 -377.249 C 191.2 -375.648 192.821 -374.525 194.296 -374.187 C 197.853 -373.371 201.799 -375.053 203.849 -378.257 C 203.888 -378.318 203.931 -378.38 203.978 -378.44 C 206.301 -381.476 207.301 -385.352 206.74 -389.161 C 206.625 -389.901 206.741 -390.452 207.241 -390.627 C 209.403 -391.384 215.459 -389.793 217.292 -388.357 C 219.125 -386.918 220.593 -385.016 222.358 -383.486 C 224.124 -381.955 226.374 -380.774 228.616 -381.19 C 230.411 -381.525 231.938 -382.856 232.966 -384.461 C 233.993 -386.065 234.584 -387.936 235.114 -389.794 C 231.143 -387.455 225.71 -388.435 222.683 -392.037 Z" fill="#2f2e41" style=""/>
  <path d="M -9.569 -415.848 C -9.569 -414.981 -9.541 -414.112 -9.482 -413.254 C -9.419 -412.225 -9.31 -411.204 -9.163 -410.192 C -8.67 -406.778 -7.727 -403.449 -6.359 -400.293 C -6.29 -400.136 -6.22 -399.98 -6.15 -399.823 L -6.045 -399.587 C -6.01 -399.51 -5.971 -399.431 -5.936 -399.356 C -5.887 -399.252 -5.842 -399.152 -5.793 -399.053 C -5.733 -398.927 -5.675 -398.802 -5.612 -398.678 C -5.604 -398.663 -5.597 -398.645 -5.587 -398.626 C -5.534 -398.521 -5.485 -398.417 -5.43 -398.31 C -5.419 -398.286 -5.407 -398.263 -5.394 -398.242 C -5.335 -398.121 -5.272 -397.995 -5.209 -397.874 C -5.14 -397.746 -5.073 -397.614 -5.003 -397.486 C -4.835 -397.168 -4.661 -396.853 -4.481 -396.539 C -4.43 -396.446 -4.377 -396.354 -4.321 -396.261 C -4.272 -396.175 -4.223 -396.09 -4.171 -396.003 C -4.136 -395.947 -4.101 -395.886 -4.065 -395.83 C -4.009 -395.734 -3.954 -395.639 -3.895 -395.544 C -3.765 -395.333 -3.632 -395.122 -3.503 -394.912 L -3.5 -394.912 C -3.44 -394.816 -3.377 -394.72 -3.315 -394.627 L -3.315 -394.623 C -3.129 -394.338 -2.937 -394.052 -2.744 -393.769 C -2.742 -393.769 -2.74 -393.768 -2.74 -393.767 C -2.587 -393.538 -2.426 -393.316 -2.268 -393.095 L -2.268 -393.092 C -2.164 -392.954 -2.063 -392.81 -1.957 -392.671 C -1.873 -392.556 -1.786 -392.439 -1.699 -392.324 C -1.682 -392.299 -1.66 -392.278 -1.642 -392.254 L -1.642 -392.251 C -1.619 -392.218 -1.594 -392.189 -1.569 -392.157 C -1.199 -391.671 -0.817 -391.197 -0.423 -390.733 L -0.36 -390.658 C -0.339 -390.632 -0.314 -390.609 -0.294 -390.579 C -0.258 -390.539 -0.227 -390.501 -0.192 -390.462 C -0.16 -390.423 -0.126 -390.384 -0.09 -390.344 C 1.963 -387.984 4.291 -385.887 6.843 -384.103 C 7.182 -383.863 7.528 -383.63 7.874 -383.406 C 7.962 -383.35 8.048 -383.291 8.136 -383.238 C 8.161 -383.219 8.189 -383.203 8.213 -383.185 C 8.262 -383.155 8.308 -383.128 8.356 -383.094 C 8.402 -383.067 8.447 -383.038 8.497 -383.01 C 8.682 -382.892 8.871 -382.777 9.059 -382.664 C 9.105 -382.635 9.154 -382.607 9.203 -382.578 C 9.248 -382.553 9.297 -382.524 9.347 -382.496 C 9.347 -382.493 9.347 -382.493 9.35 -382.493 L 9.353 -382.493 L 9.353 -382.488 L 9.357 -382.488 C 9.591 -382.35 9.828 -382.214 10.07 -382.082 C 10.199 -382.011 10.332 -381.936 10.465 -381.868 C 10.766 -381.7 11.07 -381.54 11.375 -381.386 C 11.482 -381.332 11.595 -381.278 11.703 -381.222 C 11.793 -381.179 11.884 -381.132 11.975 -381.09 C 12.003 -381.075 12.028 -381.064 12.052 -381.05 C 12.129 -381.015 12.203 -380.979 12.28 -380.944 C 12.363 -380.904 12.447 -380.865 12.529 -380.825 C 12.622 -380.783 12.713 -380.739 12.807 -380.7 C 13.158 -380.54 13.51 -380.387 13.864 -380.241 C 15.129 -379.711 16.422 -379.253 17.737 -378.869 C 17.797 -378.852 17.86 -378.834 17.922 -378.816 C 18.486 -378.655 19.053 -378.509 19.622 -378.377 C 20.619 -378.141 21.625 -377.949 22.639 -377.8 L 22.647 -377.8 C 22.769 -377.781 22.888 -377.764 23.01 -377.745 C 23.02 -377.745 23.031 -377.742 23.046 -377.742 C 23.046 -377.739 23.046 -377.739 23.049 -377.742 C 23.181 -377.724 23.318 -377.705 23.451 -377.688 C 23.46 -377.685 23.469 -377.684 23.479 -377.684 C 23.605 -377.667 23.734 -377.653 23.86 -377.639 C 23.996 -377.624 24.133 -377.609 24.269 -377.595 C 24.375 -377.585 24.479 -377.574 24.583 -377.563 C 24.592 -377.561 24.602 -377.559 24.612 -377.56 C 24.706 -377.553 24.8 -377.542 24.894 -377.534 L 24.909 -377.534 C 24.989 -377.527 25.074 -377.522 25.154 -377.514 C 26.129 -377.436 27.109 -377.399 28.101 -377.399 C 29.175 -377.399 30.24 -377.443 31.293 -377.534 L 31.304 -377.534 C 31.531 -377.556 31.755 -377.578 31.979 -377.599 C 32.037 -377.606 32.094 -377.609 32.154 -377.617 C 32.163 -377.617 32.178 -377.62 32.188 -377.62 C 32.206 -377.624 32.223 -377.624 32.244 -377.627 C 32.253 -377.626 32.263 -377.628 32.272 -377.631 C 32.348 -377.639 32.426 -377.649 32.506 -377.656 L 32.769 -377.688 C 32.856 -377.699 32.944 -377.713 33.031 -377.724 C 33.051 -377.728 33.07 -377.728 33.091 -377.731 C 33.154 -377.739 33.216 -377.748 33.279 -377.76 C 33.311 -377.764 33.342 -377.766 33.37 -377.77 C 33.433 -377.781 33.492 -377.788 33.556 -377.8 L 33.559 -377.8 C 35.477 -378.081 37.371 -378.517 39.223 -379.101 C 39.321 -379.135 39.419 -379.162 39.517 -379.195 C 39.52 -379.195 39.524 -379.197 39.527 -379.197 C 39.555 -379.209 39.587 -379.215 39.614 -379.227 C 39.877 -379.313 40.136 -379.401 40.395 -379.494 C 40.751 -379.616 41.104 -379.748 41.457 -379.883 C 41.552 -379.922 41.646 -379.958 41.741 -379.997 C 41.933 -380.071 42.121 -380.15 42.31 -380.229 C 42.633 -380.362 42.954 -380.501 43.272 -380.644 C 43.568 -380.779 43.862 -380.914 44.156 -381.057 C 44.164 -381.061 44.174 -381.061 44.181 -381.067 C 44.247 -381.101 44.313 -381.132 44.377 -381.164 L 44.38 -381.164 C 45.99 -381.954 47.543 -382.857 49.027 -383.873 C 49.503 -384.198 49.971 -384.533 50.433 -384.879 C 50.803 -385.161 51.166 -385.448 51.531 -385.74 C 53.324 -387.196 54.985 -388.817 56.491 -390.579 L 56.491 -390.584 C 56.601 -390.704 56.702 -390.828 56.806 -390.954 C 56.824 -390.972 56.838 -390.989 56.852 -391.004 C 56.918 -391.085 56.981 -391.165 57.047 -391.243 L 57.047 -391.246 C 57.136 -391.35 57.223 -391.458 57.307 -391.564 C 57.328 -391.589 57.345 -391.61 57.362 -391.632 L 57.362 -391.636 C 57.432 -391.722 57.498 -391.808 57.568 -391.896 C 57.604 -391.94 57.635 -391.981 57.669 -392.025 L 57.669 -392.029 C 57.876 -392.292 58.076 -392.556 58.275 -392.828 C 58.327 -392.899 58.379 -392.974 58.435 -393.049 C 58.687 -393.395 58.932 -393.75 59.171 -394.102 L 59.171 -394.107 C 59.261 -394.238 59.348 -394.373 59.439 -394.505 C 59.526 -394.642 59.614 -394.777 59.701 -394.912 C 59.789 -395.055 59.88 -395.194 59.967 -395.337 L 59.978 -395.358 C 60.065 -395.494 60.152 -395.637 60.236 -395.775 C 60.303 -395.891 60.37 -396 60.436 -396.111 C 60.477 -396.186 60.523 -396.261 60.564 -396.34 C 60.582 -396.364 60.597 -396.389 60.61 -396.414 C 60.708 -396.59 60.806 -396.764 60.905 -396.939 C 61.019 -397.142 61.132 -397.348 61.243 -397.557 C 61.284 -397.642 61.33 -397.727 61.376 -397.813 C 61.394 -397.843 61.408 -397.87 61.421 -397.899 C 61.474 -398 61.527 -398.103 61.575 -398.206 C 61.628 -398.306 61.68 -398.409 61.733 -398.514 C 61.782 -398.613 61.835 -398.717 61.883 -398.82 C 61.922 -398.899 61.956 -398.977 61.995 -399.056 C 61.998 -399.061 62.002 -399.068 62.006 -399.073 C 62.023 -399.113 62.04 -399.147 62.054 -399.184 C 62.058 -399.19 62.062 -399.195 62.065 -399.202 C 62.104 -399.28 62.138 -399.363 62.177 -399.44 C 62.225 -399.544 62.271 -399.653 62.32 -399.755 C 62.352 -399.826 62.387 -399.901 62.418 -399.976 C 62.464 -400.08 62.512 -400.184 62.555 -400.291 C 62.603 -400.397 62.649 -400.505 62.693 -400.615 C 62.708 -400.642 62.719 -400.669 62.73 -400.698 C 62.753 -400.748 62.771 -400.798 62.793 -400.847 C 62.848 -400.98 62.904 -401.115 62.957 -401.246 C 63.02 -401.397 63.079 -401.549 63.135 -401.7 C 63.191 -401.84 63.243 -401.982 63.295 -402.125 L 63.316 -402.175 C 64.132 -404.366 64.749 -406.626 65.163 -408.932 L 65.163 -408.935 C 65.396 -410.25 65.562 -411.577 65.662 -412.91 C 65.666 -412.985 65.673 -413.056 65.677 -413.128 C 65.739 -414.031 65.768 -414.938 65.768 -415.848 C 65.768 -416.252 65.761 -416.651 65.75 -417.051 C 65.505 -425.409 62.586 -433.458 57.435 -439.963 C 57.324 -440.106 57.212 -440.248 57.097 -440.392 C 56.981 -440.534 56.862 -440.673 56.748 -440.812 C 40.265 -460.516 9.8 -458.282 -3.754 -436.377 C -3.925 -436.098 -4.098 -435.815 -4.262 -435.535 C -4.43 -435.248 -4.59 -434.964 -4.751 -434.673 C -7.918 -428.926 -9.579 -422.441 -9.569 -415.848 Z" fill="#f2f2f2" style=""/>
  <path d="M 26.604 -440.997 C 32.797 -439.376 39.145 -438.44 45.537 -438.208 C 46.503 -438.153 47.471 -438.161 48.437 -438.228 C 50.559 -438.409 52.377 -439.09 54.401 -439.462 C 55.374 -439.64 56.458 -439.772 57.437 -439.964 C 57.212 -440.251 56.981 -440.534 56.747 -440.813 C 54.634 -440.632 52.488 -440.036 50.35 -439.757 C 46.716 -439.286 42.644 -439.813 39.89 -441.11 C 38.552 -441.741 37.528 -442.527 36.196 -443.16 C 36.015 -443.256 35.819 -443.317 35.617 -443.341 C 35.232 -443.353 34.853 -443.253 34.523 -443.051 C 32.289 -441.9 29.044 -440.965 26.033 -441.478 C 25.808 -441.3 26.234 -441.096 26.604 -440.997 Z" fill="#fff" style=""/>
  <path d="M 13.277 -436.944 C 13.25 -436.95 13.222 -436.953 13.195 -436.959 C 13.31 -437.031 13.42 -437.116 13.52 -437.209 L 13.277 -436.944 Z" fill="#fff" style=""/>
  <path d="M -4.751 -434.671 C -3.493 -434.569 -2.229 -434.493 -0.958 -434.443 C 0.009 -434.39 0.977 -434.397 1.943 -434.463 C 4.066 -434.647 5.883 -435.326 7.908 -435.699 C 9.762 -436.039 12.017 -436.202 13.195 -436.959 C 10.15 -437.497 6.996 -436.4 3.857 -435.995 C 1.317 -435.675 -1.257 -435.804 -3.753 -436.377 C -4.101 -435.82 -4.433 -435.251 -4.751 -434.671 Z" fill="#fff" style=""/>
  <path d="M 10.465 -381.868 C 10.766 -381.7 11.07 -381.54 11.375 -381.386 C 11.482 -381.332 11.595 -381.278 11.703 -381.222 C 11.793 -381.179 11.884 -381.132 11.975 -381.09 C 12.003 -381.075 12.028 -381.064 12.052 -381.05 C 12.129 -381.015 12.203 -380.979 12.28 -380.944 C 12.363 -380.904 12.447 -380.865 12.529 -380.825 C 12.622 -380.783 12.713 -380.739 12.807 -380.7 C 13.158 -380.54 13.51 -380.387 13.864 -380.241 C 15.129 -379.711 16.422 -379.253 17.737 -378.869 C 17.797 -378.852 17.86 -378.834 17.922 -378.816 C 18.486 -378.655 19.053 -378.509 19.622 -378.377 C 20.619 -378.141 21.625 -377.949 22.639 -377.8 L 22.647 -377.8 C 22.769 -377.781 22.888 -377.764 23.01 -377.745 C 23.02 -377.745 23.031 -377.742 23.046 -377.742 C 23.046 -377.739 23.046 -377.739 23.049 -377.742 C 23.181 -377.724 23.318 -377.705 23.451 -377.688 C 23.46 -377.685 23.469 -377.684 23.479 -377.684 C 23.605 -377.666 23.734 -377.653 23.86 -377.639 C 23.997 -377.624 24.133 -377.609 24.269 -377.595 C 24.375 -377.585 24.479 -377.574 24.583 -377.563 C 24.592 -377.561 24.602 -377.559 24.612 -377.56 C 24.706 -377.553 24.8 -377.542 24.894 -377.534 L 24.909 -377.534 C 24.989 -377.527 25.074 -377.522 25.154 -377.514 C 26.129 -377.436 27.109 -377.399 28.101 -377.399 C 29.175 -377.399 30.24 -377.443 31.293 -377.534 L 31.304 -377.534 C 31.531 -377.556 31.755 -377.578 31.979 -377.599 C 32.037 -377.605 32.094 -377.609 32.154 -377.617 C 32.163 -377.617 32.178 -377.62 32.188 -377.62 C 32.206 -377.624 32.223 -377.624 32.244 -377.627 C 32.253 -377.626 32.263 -377.628 32.272 -377.631 C 32.348 -377.639 32.426 -377.649 32.506 -377.656 L 32.769 -377.688 C 32.856 -377.699 32.944 -377.713 33.031 -377.724 C 33.051 -377.728 33.07 -377.728 33.091 -377.731 C 33.154 -377.739 33.216 -377.748 33.279 -377.76 C 33.311 -377.764 33.342 -377.766 33.37 -377.77 C 33.433 -377.781 33.492 -377.787 33.556 -377.8 L 33.559 -377.8 C 35.477 -378.081 37.371 -378.517 39.223 -379.101 C 39.321 -379.135 39.419 -379.162 39.517 -379.195 C 38.602 -383.55 35.756 -387.225 31.814 -389.137 C 32.295 -389.604 32.627 -390.21 32.769 -390.872 C 32.952 -391.734 32.791 -392.636 32.321 -393.378 C 31.867 -394.088 31.155 -394.586 30.342 -394.763 L 25.161 -395.868 C 23.425 -396.215 21.739 -395.067 21.384 -393.299 C 21.332 -393.039 21.309 -392.773 21.315 -392.506 C 16.325 -389.116 12.734 -385.6 10.465 -381.868 Z" style="fill: rgb(91, 57, 125);"/>
  <circle cx="198.75404" cy="229.04877" r="36.07316" fill="#9e616a" transform="matrix(0.349639, 0, 0, 0.356898, -38.527737, -494.059998)" style=""/>
  <path d="M 29.172 -400.127 C 26.014 -399.257 22.533 -400.413 20.069 -402.609 C 17.605 -404.805 16.064 -407.915 15.175 -411.128 C 14.524 -413.481 14.216 -416.094 15.242 -418.303 C 16.269 -420.512 19.032 -422.003 21.163 -420.887 C 19.849 -422.45 20.505 -425.037 22.041 -426.373 C 23.576 -427.711 25.684 -428.095 27.693 -428.306 C 30.608 -428.608 33.619 -428.643 36.392 -427.68 C 39.165 -426.716 41.685 -424.608 42.554 -421.752 C 44.376 -420.886 46.543 -421.385 47.825 -422.968 C 48.155 -421.15 47.25 -419.333 45.619 -418.535 L 49.868 -419.941 C 50.598 -418.362 49.318 -416.409 47.681 -415.903 C 46.043 -415.398 44.276 -415.951 42.722 -416.68 C 41.167 -417.41 39.662 -418.335 37.974 -418.62 C 36.286 -418.903 34.303 -418.35 33.522 -416.796 C 33.113 -415.982 33.092 -415.029 32.854 -414.148 C 32.618 -413.266 32.016 -412.352 31.123 -412.279 C 30.558 -412.233 30.005 -412.539 29.442 -412.477 C 28.737 -412.336 28.18 -411.78 28.025 -411.064 C 27.885 -410.359 27.882 -409.634 28.02 -408.93 L 29.1 -400.507 L 29.172 -400.127 Z" fill="#2f2e41" style=""/>
  <path d="M 638.696 -258.936 C 646.092 -265.215 649.908 -274.62 645.932 -282.578 C 640.148 -274.57 630.625 -268.264 619.583 -265.131 C 615.283 -263.909 610.336 -262.903 607.996 -259.823 C 606.542 -257.909 606.436 -255.509 607.092 -253.339 C 607.746 -251.17 609.097 -249.172 610.434 -247.206 L 610.443 -246.648 C 620.91 -249.051 631.299 -252.659 638.696 -258.936 Z" fill="#f2f2f2" style=""/>
  <path d="M 645.709 -282.533 C 644.463 -275.606 640.382 -268.944 634.143 -263.924 C 632.787 -262.788 631.252 -261.842 629.584 -261.119 C 627.867 -260.436 625.997 -260.123 624.123 -260.211 C 622.356 -260.26 620.558 -260.47 618.807 -260.184 C 617.072 -259.912 615.537 -259.011 614.553 -257.694 C 613.392 -256.155 613.008 -254.38 612.707 -252.636 C 612.374 -250.699 612.067 -248.682 610.652 -247.015 C 610.481 -246.814 610.891 -246.619 611.063 -246.82 C 613.524 -249.716 612.701 -253.423 614.362 -256.55 C 615.137 -258.011 616.477 -259.296 618.483 -259.736 C 620.236 -260.121 622.09 -259.904 623.879 -259.839 C 625.71 -259.736 627.543 -259.985 629.259 -260.577 C 630.969 -261.225 632.548 -262.124 633.938 -263.23 C 636.985 -265.577 639.588 -268.353 641.645 -271.453 C 643.929 -274.851 645.47 -278.608 646.191 -282.526 C 646.234 -282.766 645.754 -282.77 645.709 -282.533 Z" fill="#fff" style=""/>
  <path d="M 636.279 -265.471 C 638.885 -264.014 642.226 -264.208 644.604 -265.95 C 644.822 -266.121 644.494 -266.396 644.275 -266.223 C 642.065 -264.6 638.949 -264.426 636.532 -265.794 C 636.283 -265.936 636.033 -265.615 636.279 -265.471 Z" fill="#fff" style=""/>
  <path d="M 625.015 -260.092 C 624.513 -262.542 625.198 -265.063 626.895 -267.028 C 627.066 -267.231 626.656 -267.425 626.487 -267.225 C 624.726 -265.178 624.019 -262.549 624.547 -260.003 C 624.597 -259.764 625.066 -259.854 625.015 -260.092 Z" fill="#fff" style=""/>
  <path d="M 643.32 -274.95 C 642.254 -275.295 641.459 -276.111 641.222 -277.108 C 641.175 -277.349 640.707 -277.259 640.755 -277.02 C 641.024 -275.92 641.895 -275.019 643.069 -274.63 C 643.182 -274.581 643.317 -274.606 643.399 -274.691 C 643.468 -274.783 643.43 -274.905 643.32 -274.95 Z" fill="#fff" style=""/>
  <path d="M 610.857 -291.621 C 610.881 -291.471 610.906 -291.322 610.926 -291.171 C 611.237 -289.149 611.34 -287.108 611.229 -285.07 C 611.223 -284.911 611.217 -284.752 611.203 -284.596 C 610.857 -279.639 609.357 -274.804 606.807 -270.401 C 605.769 -268.607 604.57 -266.887 603.222 -265.267 C 601.346 -263.002 599.079 -260.668 598.291 -258.125 C 598.206 -257.864 598.139 -257.594 598.094 -257.322 L 609.575 -246.683 C 609.616 -246.673 609.656 -246.653 609.697 -246.641 L 610.129 -246.199 C 610.207 -246.279 610.285 -246.366 610.363 -246.445 C 610.409 -246.493 610.451 -246.542 610.497 -246.587 C 610.527 -246.621 610.555 -246.652 610.585 -246.679 C 610.594 -246.69 610.605 -246.7 610.61 -246.709 C 610.64 -246.735 610.663 -246.765 610.688 -246.789 C 611.128 -247.263 611.564 -247.74 611.996 -248.221 C 611.999 -248.222 611.999 -248.222 612 -248.228 C 615.283 -251.895 618.204 -255.81 620.272 -259.946 C 620.335 -260.07 620.399 -260.2 620.457 -260.329 C 621.372 -262.183 622.095 -264.108 622.62 -266.083 C 622.899 -267.154 623.108 -268.241 623.248 -269.335 C 623.602 -272.158 623.388 -275.014 622.614 -277.77 C 621.069 -283.289 617.286 -288.358 611.315 -291.393 C 611.164 -291.471 611.011 -291.547 610.857 -291.621 Z" fill="#f2f2f2" style=""/>
  <path d="M 610.711 -291.486 C 615.04 -285.363 616.903 -278.122 615.778 -271.168 C 615.576 -269.637 615.072 -268.151 614.293 -266.779 C 613.427 -265.4 612.161 -264.26 610.631 -263.48 C 609.184 -262.688 607.586 -262.006 606.408 -260.953 C 605.233 -259.913 604.682 -258.427 604.924 -256.956 C 605.183 -255.18 606.238 -253.582 607.339 -252.049 C 608.563 -250.342 609.868 -248.59 610.019 -246.591 C 610.037 -246.349 610.515 -246.385 610.497 -246.626 C 610.233 -250.102 606.726 -252.674 605.65 -255.954 C 605.148 -257.485 605.231 -259.144 606.493 -260.44 C 607.597 -261.575 609.244 -262.275 610.719 -263.069 C 612.229 -263.82 613.51 -264.893 614.454 -266.193 C 615.319 -267.525 615.894 -268.991 616.15 -270.522 C 616.777 -273.9 616.72 -277.36 615.979 -280.721 C 615.142 -284.629 613.485 -288.356 611.099 -291.705 C 610.951 -291.917 610.561 -291.694 610.711 -291.486 Z" fill="#fff" style=""/>
  <path d="M 616.296 -273.413 C 619.439 -273.442 622.123 -275.286 622.572 -277.72 C 622.618 -277.959 622.142 -278.027 622.099 -277.787 C 621.676 -275.505 619.189 -273.811 616.25 -273.791 C 615.939 -273.787 615.989 -273.411 616.296 -273.413 Z" fill="#fff" style=""/>
  <path d="M 611.434 -263.803 C 609.237 -265.384 607.854 -267.706 607.607 -270.228 C 607.587 -270.473 607.109 -270.435 607.129 -270.193 C 607.392 -267.567 608.836 -265.154 611.129 -263.514 C 611.353 -263.347 611.658 -263.639 611.434 -263.803 Z" fill="#fff" style=""/>
  <path d="M 614.63 -284.303 C 613.453 -284.088 612.232 -284.356 611.297 -285.036 C 611.076 -285.205 610.771 -284.914 610.993 -284.747 C 612.027 -283.999 613.374 -283.699 614.676 -283.929 C 614.803 -283.952 614.905 -284.023 614.891 -284.134 C 614.868 -284.243 614.754 -284.317 614.63 -284.303 Z" fill="#fff" style=""/>
  <circle cx="661.93307" cy="199.63499" r="27.56693" fill="#a0616a" transform="matrix(0.35701, 0, 0, 0.321901, 357.135254, -445.351471)" style=""/>
  <path d="M 636.579 -340.092 C 635.194 -342.989 633.295 -345.657 630.956 -348.001 C 632.938 -345.153 634.069 -341.891 634.244 -338.533 C 633.526 -338.13 632.776 -337.778 631.997 -337.476 C 629.662 -336.591 627.172 -336.087 624.64 -335.986 C 623.276 -340.081 620.921 -343.857 617.746 -347.035 C 620.035 -343.746 621.186 -339.916 621.052 -336.033 C 618.229 -336.253 615.446 -336.788 612.773 -337.633 C 608.757 -338.878 604.857 -340.741 602.081 -343.632 C 599.074 -346.767 597.593 -350.898 597.114 -355.018 C 596.636 -359.135 597.085 -363.292 597.539 -367.413 C 597.754 -369.376 595.94 -371.636 596.153 -373.6 L 596.298 -373.6 C 597.249 -374.777 598.221 -375.983 598.689 -377.38 C 599.152 -378.775 599.032 -380.419 597.963 -381.518 C 597.367 -382.093 596.611 -382.513 595.775 -382.741 C 595.697 -382.831 595.611 -382.918 595.521 -383.005 C 593.906 -384.554 592.004 -385.837 589.9 -386.798 C 591.416 -385.764 592.429 -384.594 592.901 -383.389 C 591.588 -383.648 590.274 -383.911 588.961 -384.166 C 588.521 -384.588 588.059 -384.986 587.574 -385.364 C 587.013 -385.775 586.422 -386.144 585.8 -386.475 C 586.478 -385.938 587.003 -385.263 587.331 -384.506 C 585.644 -384.89 583.954 -385.463 583.077 -386.775 C 581.62 -388.941 583.351 -391.863 585.768 -393.157 C 589.373 -394.995 593.877 -394.547 596.953 -392.048 C 600.449 -394.369 605.424 -394.33 609.314 -392.594 C 611.88 -391.398 614.091 -389.661 615.761 -387.537 C 614.793 -387.649 613.817 -387.71 612.841 -387.72 C 614.215 -387.538 615.526 -387.074 616.663 -386.355 C 617.168 -385.649 617.632 -384.919 618.049 -384.168 C 618.324 -383.678 618.585 -383.178 618.828 -382.673 C 620.324 -379.604 621.299 -376.331 622.309 -373.102 C 623.486 -369.333 624.751 -365.542 626.957 -362.17 C 630.339 -357.046 635.676 -353.208 641.969 -351.371 C 642.493 -347.112 640.188 -342.947 636.579 -340.092 Z" style="fill: rgb(91, 57, 125);"/>
  <polygon points="613.739 -243.946 610.166 -242.446 602.052 -254.154 607.325 -256.369 613.739 -243.946" fill="#a0616a" style=""/>
  <path d="M 618.506 -239.155 L 615.943 -238.079 L 614.362 -240.068 L 614.316 -237.395 L 607.522 -234.545 C 606.345 -234.052 605.018 -234.89 605.132 -236.056 C 605.155 -236.28 605.231 -236.496 605.357 -236.691 L 609.039 -242.347 L 607.901 -244.552 L 613.766 -246.641 L 618.506 -239.155 Z" style="fill: rgb(91, 57, 125);"/>
  <polygon points="577.876 -240.558 573.936 -240.558 572.06 -254.262 577.876 -254.262 577.876 -240.558" fill="#a0616a" style=""/>
  <path d="M 579.957 -234.402 L 577.13 -234.402 L 576.627 -236.809 L 575.333 -234.402 L 567.84 -234.402 C 566.543 -234.402 565.731 -235.668 566.38 -236.682 C 566.504 -236.878 566.676 -237.043 566.882 -237.173 L 572.866 -240.898 L 572.866 -243.332 L 579.164 -242.993 L 579.957 -234.402 Z" style="fill: rgb(91, 57, 125);"/>
  <polygon points="596.076 -344.402 592.813 -335.417 591.733 -328.137 574.391 -332.967 575.994 -349.214 579.602 -352.431 596.076 -344.402" fill="#a0616a" style=""/>
  <ellipse cx="389.03" cy="168.858" rx="2.951" ry="3.517" transform="matrix(0.593734, -0.804662, 0.861453, 0.516767, 50.57242, -204.437659)" fill="#fd6584" style=""/>
  <ellipse cx="487.562" cy="508.174" rx="2.951" ry="3.517" transform="matrix(0.593734, -0.804662, 0.861453, 0.516767, -265.056823, -191.27386)" fill="#e6e6e6" style=""/>
  <ellipse cx="211.562" cy="217.175" rx="2.951" ry="3.517" transform="matrix(0.593734, -0.804662, 0.861453, 0.516767, 50.960486, -356.654015)" fill="#e6e6e6" style=""/>
  <path d="M 490.877 -335.133 L 371.908 -335.133 C 363.752 -335.138 357.144 -341.098 357.135 -348.45 L 357.135 -394.563 C 357.144 -401.913 363.752 -407.875 371.908 -407.882 C 409.869 -417.365 449.687 -416.476 490.877 -407.882 C 499.035 -407.875 505.642 -401.913 505.653 -394.563 L 505.653 -348.45 C 505.642 -341.098 499.035 -335.138 490.877 -335.133 Z" fill="#f2f2f2" style="isolation: isolate;"/>
  <path d="M 369.808 -346.882 C 369.611 -346.882 369.453 -347.026 369.453 -347.204 L 369.453 -395.81 C 369.453 -396.057 369.749 -396.211 369.988 -396.089 C 370.098 -396.032 370.165 -395.924 370.165 -395.81 L 370.165 -347.204 C 370.166 -347.026 370.006 -346.882 369.808 -346.882 Z" fill="#fff" style="isolation: isolate;"/>
  <path d="M 493.691 -346.882 C 493.888 -346.882 494.05 -347.026 494.05 -347.204 L 494.05 -395.81 C 494.05 -396.057 493.751 -396.211 493.514 -396.089 C 493.402 -396.032 493.335 -395.924 493.335 -395.81 L 493.335 -347.204 C 493.335 -347.026 493.494 -346.882 493.691 -346.882 Z" fill="#fff" style="isolation: isolate;"/>
  <path d="M 470.13 -385.51 L 470.127 -385.51 C 469.929 -385.511 469.771 -385.654 469.773 -385.834 L 469.95 -435.084 C 469.951 -435.261 470.11 -435.403 470.307 -435.403 C 470.505 -435.403 470.664 -435.258 470.664 -435.079 L 470.487 -385.83 C 470.485 -385.653 470.327 -385.51 470.13 -385.51 Z" fill="#3f3d56" style=""/>
  <path d="M 424.431 -315.013 L 424.43 -315.013 C 424.233 -315.013 424.074 -315.158 424.074 -315.336 L 424.253 -363.301 C 424.254 -363.475 424.414 -363.62 424.611 -363.62 C 424.808 -363.619 424.966 -363.474 424.966 -363.296 L 424.788 -315.334 C 424.788 -315.155 424.627 -315.013 424.431 -315.013 Z" fill="#3f3d56" style=""/>
  <path d="M 390.516 -376.494 L 390.514 -376.494 C 390.317 -376.498 390.157 -376.641 390.157 -376.818 L 390.337 -425.427 C 390.337 -425.604 390.498 -425.746 390.695 -425.746 C 390.893 -425.746 391.053 -425.601 391.05 -425.424 L 390.872 -376.816 C 390.872 -376.64 390.711 -376.494 390.516 -376.494 Z" fill="#3f3d56" style=""/>
  <path d="M 375.774 -363.555 C 376.461 -366.902 380.681 -368.447 384.1 -368.184 C 388.989 -367.808 393.067 -364.907 397.616 -363.543 C 399.812 -362.88 402.178 -362.516 404.481 -362.898 C 406.296 -363.236 407.981 -364.002 409.36 -365.118 C 412.002 -367.156 413.791 -369.937 416.437 -371.972 C 417.852 -373.118 419.643 -373.825 421.541 -373.981 C 423.875 -374.117 426.162 -373.406 428.208 -372.448 C 432.275 -370.547 435.603 -367.526 439.935 -366.061 C 441.923 -365.37 444.079 -365.169 446.182 -365.477 C 448.283 -365.855 450.278 -366.602 452.058 -367.677 C 455.786 -369.799 458.859 -372.746 462.781 -374.608 C 464.708 -375.526 466.851 -376.228 469.053 -376.242 C 471.181 -376.239 473.227 -375.498 474.768 -374.175 C 477.738 -371.742 480.08 -367.902 484.615 -367.833 C 485.562 -367.817 486.492 -368.049 487.296 -368.498 C 487.881 -368.824 487.344 -369.66 486.756 -369.333 C 484.907 -368.301 482.681 -368.951 480.995 -369.952 C 479.2 -371.015 477.928 -372.645 476.463 -374.03 C 475.008 -375.406 473.311 -376.566 471.217 -376.994 C 469.126 -377.368 466.962 -377.205 464.969 -376.527 C 460.684 -375.18 457.442 -372.411 453.885 -370 C 450.382 -367.624 446.29 -365.57 441.768 -366.558 C 437.268 -367.544 433.852 -370.617 429.959 -372.679 C 426.195 -374.674 421.583 -375.948 417.53 -373.848 C 414.466 -372.264 412.531 -369.462 410.18 -367.183 C 409.018 -366.056 407.723 -365.009 406.156 -364.37 C 403.977 -363.483 401.516 -363.585 399.246 -364.111 C 394.514 -365.209 390.521 -368.083 385.702 -368.944 C 382.124 -369.581 377.889 -368.778 375.706 -365.926 C 375.224 -365.29 374.896 -364.571 374.74 -363.813 C 374.616 -363.205 375.648 -362.945 375.774 -363.555 Z" fill="#3f3d56" style=""/>
  <circle cx="94" cy="247.65271" r="13" transform="matrix(0.35701, 0, 0, 0.321901, 357.135254, -445.351471)" style="fill: rgb(253, 101, 132);"/>
  <circle cx="187.5" cy="220.15271" r="13" transform="matrix(0.35701, 0, 0, 0.321901, 357.135254, -445.351471)" style="fill: rgb(253, 101, 132);"/>
  <circle cx="315.5" cy="211.15271" r="13" transform="matrix(0.35701, 0, 0, 0.321901, 357.135254, -445.351471)" style="fill: rgb(91, 57, 125);"/>
  <path d="M 429.961 -302.753 L 419.779 -302.753 C 418.621 -302.753 417.643 -303.523 417.478 -304.556 C 416.85 -308.726 416.85 -312.955 417.478 -317.124 C 417.639 -318.145 418.595 -318.906 419.735 -318.927 C 423.05 -320.532 426.504 -320.532 430.005 -318.927 C 430.681 -318.918 431.316 -318.64 431.743 -318.166 C 432.192 -317.675 432.371 -317.024 432.229 -316.399 C 431.411 -312.731 431.411 -308.952 432.229 -305.282 C 432.371 -304.658 432.192 -304.008 431.743 -303.514 C 431.307 -303.032 430.65 -302.753 429.961 -302.753 Z" style="fill: rgb(2, 226, 242);"/>
  <path d="M 476.728 -428.207 L 466.549 -428.207 C 465.39 -428.208 464.41 -428.975 464.247 -430.009 C 463.619 -434.179 463.619 -438.409 464.247 -442.579 C 464.409 -443.599 465.368 -444.362 466.511 -444.381 C 469.712 -445.675 473.162 -445.675 476.762 -444.381 C 477.442 -444.374 478.084 -444.094 478.513 -443.622 C 478.961 -443.126 479.14 -442.479 478.998 -441.853 C 478.18 -438.183 478.18 -434.405 478.998 -430.736 C 479.14 -430.11 478.961 -429.462 478.513 -428.968 C 478.077 -428.484 477.42 -428.207 476.728 -428.207 Z" style="fill: rgb(2, 226, 242);"/>
  <path d="M 395.588 -419.848 L 385.409 -419.848 C 384.716 -419.844 384.061 -420.126 383.624 -420.608 C 383.176 -421.102 382.998 -421.748 383.139 -422.377 C 383.957 -426.043 383.957 -429.825 383.139 -433.493 C 382.998 -434.118 383.176 -434.768 383.624 -435.261 C 384.051 -435.735 384.689 -436.012 385.366 -436.021 C 388.46 -437.387 391.911 -437.387 395.624 -436.021 C 396.767 -436.004 397.729 -435.243 397.889 -434.218 C 398.518 -430.049 398.518 -425.821 397.889 -421.65 C 397.726 -420.618 396.746 -419.848 395.588 -419.848 Z" fill="#ccc" style=""/>
  <path d="M 475.662 -439.588 L 467.096 -439.588 C 466.683 -439.588 466.426 -439.991 466.631 -440.313 C 466.726 -440.462 466.903 -440.557 467.096 -440.557 L 475.662 -440.557 C 476.074 -440.557 476.334 -440.151 476.126 -439.83 C 476.03 -439.681 475.853 -439.588 475.662 -439.588 Z" fill="#fff" style=""/>
  <path d="M 475.662 -435.727 L 467.096 -435.727 C 466.683 -435.727 466.426 -436.128 466.631 -436.45 C 466.726 -436.599 466.903 -436.691 467.096 -436.691 L 475.662 -436.691 C 476.074 -436.691 476.334 -436.291 476.126 -435.968 C 476.03 -435.817 475.853 -435.727 475.662 -435.727 Z" fill="#fff" style=""/>
  <path d="M 475.662 -431.863 L 467.096 -431.863 C 466.683 -431.863 466.426 -432.265 466.631 -432.589 C 466.726 -432.735 466.903 -432.827 467.096 -432.827 L 475.662 -432.827 C 476.074 -432.827 476.334 -432.428 476.126 -432.104 C 476.03 -431.953 475.853 -431.863 475.662 -431.863 Z" fill="#fff" style=""/>
  <path d="M 395.743 -431.863 L 387.175 -431.863 C 386.764 -431.863 386.505 -432.265 386.713 -432.589 C 386.808 -432.735 386.985 -432.827 387.175 -432.827 L 395.743 -432.827 C 396.156 -432.827 396.414 -432.428 396.209 -432.104 C 396.112 -431.953 395.935 -431.863 395.743 -431.863 Z" fill="#fff" style=""/>
  <path d="M 395.743 -428 L 387.175 -428 C 386.764 -428 386.505 -428.402 386.713 -428.725 C 386.808 -428.874 386.985 -428.968 387.175 -428.968 L 395.743 -428.968 C 396.156 -428.968 396.414 -428.564 396.209 -428.241 C 396.112 -428.092 395.935 -428 395.743 -428 Z" fill="#fff" style=""/>
  <path d="M 395.743 -424.137 L 387.175 -424.137 C 386.764 -424.137 386.505 -424.54 386.713 -424.86 C 386.808 -425.01 386.985 -425.104 387.175 -425.104 L 395.743 -425.104 C 396.156 -425.104 396.414 -424.7 396.209 -424.378 C 396.112 -424.23 395.935 -424.137 395.743 -424.137 Z" fill="#fff" style=""/>
  <path d="M 429.302 -315.013 L 420.736 -315.013 C 420.322 -315.013 420.064 -315.416 420.271 -315.736 C 420.366 -315.887 420.543 -315.979 420.736 -315.979 L 429.302 -315.979 C 429.716 -315.979 429.974 -315.574 429.767 -315.255 C 429.672 -315.105 429.495 -315.013 429.302 -315.013 Z" fill="#fff" style=""/>
  <path d="M 429.302 -311.151 L 420.736 -311.151 C 420.322 -311.151 420.064 -311.554 420.271 -311.876 C 420.366 -312.024 420.543 -312.116 420.736 -312.116 L 429.302 -312.116 C 429.716 -312.116 429.974 -311.714 429.767 -311.392 C 429.672 -311.241 429.495 -311.151 429.302 -311.151 Z" fill="#fff" style=""/>
  <path d="M 429.302 -307.289 L 420.736 -307.289 C 420.322 -307.289 420.064 -307.69 420.271 -308.012 C 420.366 -308.159 420.543 -308.252 420.736 -308.252 L 429.302 -308.252 C 429.716 -308.252 429.974 -307.851 429.767 -307.529 C 429.672 -307.378 429.495 -307.289 429.302 -307.289 Z" style="" fill="#fff"/>
  <path d="M 597.768 -329.592 L 573.926 -334.453 L 565.094 -315.979 L 562.595 -278.315 L 569.107 -247.735 L 582.156 -247.735 L 576.161 -278.315 L 577.588 -301.493 L 584.279 -273.659 L 602.008 -250.567 L 610.186 -256.935 L 596.153 -278.637 C 596.153 -278.637 602.03 -317.595 595.797 -324.347 L 597.768 -329.592 Z" style="fill: rgb(91, 57, 125);"/>
  <path d="M 583.542 -366.28 L 585.452 -366.927 L 587.862 -370.439 L 596.44 -369.806 L 598.524 -366.041 L 603.55 -362.579 L 601.352 -352.149 L 597.939 -339.477 L 575.091 -342.053 L 575.114 -351.591 C 575.114 -351.591 570.985 -359.13 577.655 -361.954 L 583.542 -366.28 Z" fill="#e6e6e6" style=""/>
  <path d="M 548.323 -333.19 C 550.213 -332.506 552.326 -333.528 552.741 -335.325 L 578.216 -349.225 L 573.56 -354.069 L 549.984 -338.883 C 547.478 -339.198 545.53 -336.95 546.48 -334.835 C 546.817 -334.082 547.484 -333.488 548.323 -333.19 Z" fill="#a0616a" style=""/>
  <path d="M 586.707 -355.817 C 586.707 -355.817 587.926 -354.712 584.869 -352.895 C 582.423 -351.44 571.514 -344.256 567.647 -343.12 C 567.746 -342.064 567.043 -341.087 565.936 -340.736 L 562.434 -347.674 C 563.192 -349.262 564.405 -348.894 565.043 -348.534 L 569.272 -351.402 L 579.655 -360.75 L 585.842 -356.627 L 586.707 -355.817 Z" fill="#e6e6e6" style=""/>
  <path d="M 547.663 -332.065 L 537.483 -332.065 C 536.79 -332.065 536.136 -332.344 535.698 -332.826 C 535.252 -333.321 535.072 -333.969 535.212 -334.594 C 536.031 -338.264 536.031 -342.04 535.212 -345.713 C 535.072 -346.336 535.252 -346.988 535.698 -347.48 C 536.125 -347.95 536.763 -348.23 537.441 -348.238 C 540.534 -349.607 543.987 -349.607 547.698 -348.238 C 548.842 -348.223 549.803 -347.457 549.963 -346.437 C 550.592 -342.268 550.592 -338.038 549.963 -333.867 C 549.8 -332.834 548.82 -332.066 547.663 -332.065 Z" style="fill: rgb(2, 226, 242);"/>
  <path d="M 547.818 -344.078 L 539.251 -344.078 C 538.838 -344.078 538.58 -344.484 538.787 -344.806 C 538.883 -344.956 539.059 -345.048 539.251 -345.048 L 547.818 -345.048 C 548.231 -345.048 548.488 -344.646 548.283 -344.323 C 548.186 -344.173 548.01 -344.078 547.818 -344.078 Z" fill="#fff" style=""/>
  <path d="M 547.818 -340.219 L 539.251 -340.219 C 538.838 -340.219 538.58 -340.621 538.787 -340.944 C 538.883 -341.092 539.059 -341.184 539.251 -341.184 L 547.818 -341.184 C 548.231 -341.184 548.488 -340.782 548.283 -340.46 C 548.186 -340.309 548.01 -340.219 547.818 -340.219 Z" fill="#fff" style=""/>
  <path d="M 547.818 -336.355 L 539.251 -336.355 C 538.838 -336.355 538.58 -336.758 538.787 -337.081 C 538.883 -337.229 539.059 -337.322 539.251 -337.322 L 547.818 -337.322 C 548.231 -337.322 548.488 -336.921 548.283 -336.598 C 548.186 -336.446 548.01 -336.355 547.818 -336.355 Z" fill="#fff" style=""/>
  <path d="M 596.93 -304.381 L 586.75 -304.381 C 586.058 -304.379 585.404 -304.66 584.966 -305.143 C 584.517 -305.636 584.34 -306.286 584.481 -306.909 C 585.299 -310.578 585.299 -314.357 584.481 -318.028 C 584.34 -318.652 584.517 -319.303 584.966 -319.796 C 585.394 -320.268 586.032 -320.547 586.709 -320.554 C 589.803 -321.922 593.253 -321.922 596.967 -320.554 C 598.11 -320.542 599.07 -319.777 599.23 -318.753 C 599.86 -314.582 599.86 -310.354 599.23 -306.184 C 599.068 -305.152 598.087 -304.381 596.93 -304.381 Z" fill="#ccc" style=""/>
  <path d="M 597.085 -316.397 L 588.517 -316.397 C 588.106 -316.397 587.849 -316.799 588.055 -317.121 C 588.149 -317.272 588.326 -317.364 588.517 -317.364 L 597.085 -317.364 C 597.497 -317.364 597.755 -316.96 597.55 -316.64 C 597.454 -316.489 597.278 -316.397 597.085 -316.397 Z" fill="#fff" style=""/>
  <path d="M 597.085 -312.536 L 588.517 -312.536 C 588.106 -312.536 587.849 -312.938 588.055 -313.261 C 588.149 -313.409 588.326 -313.502 588.517 -313.502 L 597.085 -313.502 C 597.497 -313.502 597.755 -313.097 597.55 -312.777 C 597.454 -312.626 597.278 -312.536 597.085 -312.536 Z" fill="#fff" style=""/>
  <path d="M 597.085 -308.672 L 588.517 -308.672 C 588.106 -308.672 587.849 -309.075 588.055 -309.398 C 588.149 -309.544 588.326 -309.638 588.517 -309.638 L 597.085 -309.638 C 597.497 -309.638 597.755 -309.237 597.55 -308.914 C 597.454 -308.765 597.278 -308.672 597.085 -308.672 Z" fill="#fff" style=""/>
  <path d="M 592.411 -318.203 C 594.308 -318.869 595.075 -320.917 594.018 -322.486 L 602.077 -348.333 L 595.007 -348.997 L 589.307 -323.384 C 587.238 -322.068 587.521 -319.231 589.819 -318.268 C 590.635 -317.93 591.573 -317.904 592.411 -318.203 Z" fill="#a0616a" style=""/>
  <path d="M 603.269 -362.52 C 603.269 -362.52 604.996 -362.465 604.143 -359.256 C 603.46 -356.687 600.951 -340.573 598.99 -337.362 C 599.861 -336.653 600.09 -335.503 599.547 -334.566 L 591.732 -337.472 C 591.084 -339.098 591.585 -340.572 592.323 -340.704 L 593.237 -345.402 L 594.583 -361.168 L 602.022 -362.579 L 603.269 -362.52 Z" fill="#e6e6e6" style=""/>
  <path d="M 596.891 -391.805 C 599.29 -388.615 599.898 -384.6 598.541 -380.945" fill="#fd6584" style=""/>
  <path d="M 638.576 -234.456 C 638.576 -234.247 638.385 -234.073 638.15 -234.075 L 538.085 -234.075 C 537.757 -234.075 537.552 -234.394 537.716 -234.649 C 537.792 -234.77 537.931 -234.841 538.085 -234.841 L 638.15 -234.841 C 638.385 -234.841 638.576 -234.67 638.576 -234.456 Z" style="fill: rgb(91, 57, 125);"/>
  <title>things_to_say</title>
  <circle cx="101" cy="406.19326" r="13" transform="matrix(0.3318679928779602, 0, 0, 0.2914479970932007, -0.0003679914357235248, 31.41195627216041)" style="fill: rgb(253, 101, 132);"/>
  <circle cx="158" cy="513.19326" r="13" transform="matrix(0.3318679928779602, 0, 0, 0.2914479970932007, -0.0003679914357235248, 31.41195627216041)" style="fill: rgb(253, 101, 132);"/>
  <circle cx="114" cy="486.19326" r="13" transform="matrix(0.3318679928779602, 0, 0, 0.2914479970932007, -0.0003679914357235248, 31.41195627216041)" style="fill: rgb(253, 101, 132);"/>
  <path d="M 210.5 240.336 L 137.066 240.336 C 137.066 240.336 135.579 221.163 144.385 220.945 C 153.193 220.726 152.2 229.441 163.24 217.458 C 174.28 205.476 187.676 206.129 189.413 213.211 C 191.15 220.291 186.064 225.956 195.367 224.213 C 204.671 222.471 218.068 227.045 210.5 240.336 Z" style="fill: rgb(2, 226, 242);" transform="matrix(1, 0, 0, 1, 8.572442311560735e-9, 3.891314945256113)"/>
  <path d="M 172.544 240.34 L 172.296 240.332 C 172.874 227.707 175.884 219.597 178.309 215.016 C 180.94 210.043 183.475 208.029 183.5 208.009 L 183.666 208.172 C 183.641 208.192 181.134 210.186 178.523 215.125 C 176.113 219.687 173.12 227.765 172.544 240.34 Z" fill="#f2f2f2" style="" transform="matrix(1, 0, 0, 1, 8.572442311560735e-9, 3.891314945256113)"/>
  <path d="M 199.122 240.365 L 198.883 240.305 C 201.751 231.66 208.504 226.202 208.572 226.149 L 208.739 226.31 C 204.26 230.225 200.955 235.055 199.122 240.365 Z" fill="#f2f2f2" style="" transform="matrix(1, 0, 0, 1, 8.572442311560735e-9, 3.891314945256113)"/>
  <path d="M 148.633 240.35 L 148.387 240.321 C 149.188 235.587 148.341 230.753 145.957 226.451 C 144.979 224.646 143.685 222.988 142.122 221.535 L 142.293 221.379 C 143.877 222.849 145.188 224.527 146.179 226.354 C 148.585 230.695 149.441 235.574 148.633 240.35 Z" fill="#f2f2f2" style="" transform="matrix(1, 0, 0, 1, 8.572442311560735e-9, 3.891314945256113)"/>
  <path d="M 220.467 240.626 L 129.146 240.626 L 129.125 240.355 C 129.073 239.679 127.907 223.738 133.789 218.05 C 134.969 216.835 136.679 216.115 138.496 216.066 C 142.331 215.971 144.741 217.231 146.683 218.245 C 150.346 220.152 152.765 221.413 161.563 211.864 C 171.094 201.519 181.377 199.294 187.288 200.531 C 191.108 201.331 193.74 203.591 194.511 206.733 C 195.24 209.707 195.008 212.501 194.821 214.747 C 194.621 217.15 194.463 219.048 195.588 219.909 C 196.525 220.626 198.397 220.692 201.479 220.114 C 207.748 218.939 216.494 219.944 220.884 224.925 C 223.247 227.606 225.107 232.477 220.558 240.466 L 220.467 240.626 Z M 129.77 240.044 L 220.056 240.044 C 223.446 234.005 223.551 228.904 220.359 225.283 C 216.332 220.712 207.883 219.51 201.618 220.684 C 198.269 221.312 196.274 221.207 195.151 220.348 C 193.777 219.296 193.945 217.27 194.158 214.705 C 194.343 212.496 194.571 209.747 193.861 206.855 C 193.148 203.942 190.695 201.844 187.134 201.098 C 181.411 199.899 171.415 202.096 162.079 212.23 C 152.921 222.17 150.162 220.735 146.345 218.745 C 144.377 217.721 142.144 216.559 138.516 216.648 C 136.879 216.695 135.341 217.347 134.281 218.442 C 128.995 223.554 129.641 237.889 129.77 240.044 Z" fill="#cfcce0" style="" transform="matrix(1, 0, 0, 1, 8.572442311560735e-9, 3.891314945256113)"/>
  <rect x="107.411" y="240.261" width="131.002" height="0.583" fill="#cfcce0" style="" transform="matrix(1, 0, 0, 1, 8.572442311560735e-9, 3.891314945256113)"/>
  <path d="M 99.068 178.368 C 99.184 179.076 99.189 179.797 99.081 180.505 C 99.06 180.666 99.031 180.824 98.999 180.981 C 98.614 182.661 97.844 184.254 96.738 185.665 C 96.666 185.757 96.625 185.803 96.625 185.803 L 96.469 185.7 C 95.24 184.838 94.175 183.811 93.312 182.656 C 93.236 182.552 93.161 182.446 93.09 182.337 C 92.448 181.418 92.016 180.398 91.816 179.334 L 91.813 179.319 C 91.794 179.206 91.778 179.092 91.766 178.979 C 91.664 177.985 91.761 176.983 92.053 176.019 C 92.088 175.899 92.124 175.781 92.163 175.663 C 92.604 174.366 93.273 173.138 94.143 172.022 C 94.215 171.931 94.257 171.882 94.257 171.882 C 94.257 171.882 94.312 171.918 94.412 171.987 C 95.606 172.824 96.646 173.818 97.497 174.932 C 97.57 175.033 97.644 175.134 97.717 175.237 C 98.214 175.941 98.598 176.7 98.857 177.496 C 98.901 177.635 98.94 177.778 98.974 177.921 C 99.011 178.067 99.042 178.216 99.068 178.368 Z" fill="#cfcce0" style="" transform="matrix(1, 0, 0, 1, 8.572442311560735e-9, 3.891314945256113)"/>
  <path d="M 139.311 193.115 C 139.834 193.664 140.267 194.274 140.6 194.928 C 140.678 195.075 140.748 195.222 140.814 195.371 L 140.815 195.371 C 141.49 196.978 141.788 198.689 141.688 200.4 C 141.681 200.511 141.675 200.57 141.675 200.57 L 141.481 200.554 C 139.92 200.387 138.398 200.003 136.974 199.418 C 136.848 199.364 136.721 199.309 136.593 199.249 C 135.498 198.762 134.521 198.093 133.717 197.28 L 133.705 197.268 C 133.621 197.18 133.539 197.092 133.461 197 C 132.781 196.201 132.265 195.303 131.937 194.347 C 131.894 194.23 131.854 194.112 131.817 193.995 C 131.418 192.687 131.254 191.334 131.327 189.982 C 131.334 189.871 131.341 189.811 131.341 189.811 C 131.341 189.811 131.41 189.816 131.535 189.829 C 133.052 189.991 134.532 190.358 135.922 190.914 C 136.045 190.965 136.168 191.018 136.291 191.073 C 137.134 191.441 137.915 191.913 138.611 192.47 C 138.732 192.569 138.85 192.671 138.964 192.777 C 139.084 192.885 139.2 192.997 139.311 193.115 Z" fill="#cfcce0" style="" transform="matrix(1, 0, 0, 1, 8.572442311560735e-9, 3.891314945256113)"/>
  <path d="M 145.313 125.28 L 143.647 149.657 C 143.647 149.657 138.096 163.309 145.313 163.309 C 152.53 163.309 148.089 148.683 148.089 148.683 L 154.752 124.792 L 145.313 125.28 Z" fill="#ffb9b9" style="" transform="matrix(1, 0, 0, 1, 8.572442311560735e-9, 3.891314945256113)"/>
  <path d="M 199.165 122.355 L 200.831 146.732 C 200.831 146.732 206.381 160.384 199.165 160.384 C 191.948 160.384 196.389 145.757 196.389 145.757 L 189.727 121.866 L 199.165 122.355 Z" fill="#ffb9b9" style="" transform="matrix(1, 0, 0, 1, 8.572442311560735e-9, 3.891314945256113)"/>
  <path d="M 165.855 225.716 L 166.965 237.905 C 166.965 237.905 162.523 247.655 169.741 248.63 C 169.813 248.64 169.884 248.65 169.955 248.658 C 173.808 249.124 177.055 246.154 176.373 242.793 L 175.293 237.417 C 175.293 237.417 175.847 227.666 172.516 225.716 C 169.186 223.765 165.855 225.716 165.855 225.716 Z" fill="#2f2e41" style="" transform="matrix(1, 0, 0, 1, 8.572442311560735e-9, 3.891314945256113)"/>
  <path d="M 176.403 214.989 C 176.403 214.989 175.293 217.915 175.847 220.841 C 176.403 223.765 176.958 232.054 176.958 232.054 C 176.958 232.054 176.958 240.831 180.844 240.831 C 182.232 240.831 183.407 239.772 184.346 238.414 C 186.306 235.5 186.823 232.009 185.774 228.752 L 183.621 221.815 L 183.621 216.453 L 176.403 214.989 Z" fill="#2f2e41" style="" transform="matrix(1, 0, 0, 1, 8.572442311560735e-9, 3.891314945256113)"/>
  <path d="M 155.862 125.767 C 155.862 125.767 143.647 139.907 150.31 160.871 C 156.971 181.837 157.527 187.687 157.527 187.687 L 161.414 227.666 C 161.414 227.666 168.076 229.617 173.627 226.691 L 171.962 188.174 L 171.962 164.772 L 175.293 190.613 L 175.293 216.453 C 175.293 216.453 183.064 223.278 188.617 216.94 L 189.727 188.174 C 189.727 188.174 193.057 148.195 190.838 144.295 C 188.617 140.394 183.621 126.743 183.621 126.743 L 155.862 125.767 Z" style="fill: rgb(91, 57, 125);" transform="matrix(1, 0, 0, 1, 8.572442311560735e-9, 3.891314945256113)"/>
  <path d="M 166.918 59.983 C 166.918 59.983 161.272 58.212 157.642 65.296 C 154.013 72.379 148.367 80.171 148.367 80.171 L 151.592 80.879 C 151.592 80.879 152.399 75.92 154.416 75.211 L 153.609 81.587 C 153.609 81.587 177.807 89.025 188.695 80.879 L 188.292 78.4 C 188.292 78.4 189.905 78.754 189.905 80.879 L 191.114 79.817 C 191.114 79.817 189.905 77.692 186.276 74.858 C 183.894 72.999 183.075 69.46 182.794 67.249 C 182.582 65.401 181.741 63.653 180.379 62.233 C 177.967 59.779 173.572 57.169 166.918 59.983 Z" style="fill: rgb(91, 57, 125);" transform="matrix(1, 0, 0, 1, 8.572442311560735e-9, 3.891314945256113)"/>
  <circle cx="511.47208" cy="159.76902" r="31.78454" fill="#ffb9b9" transform="matrix(0.3318679928779602, 0, 0, 0.2914479970932007, -0.0003679914357235248, 31.41195627216041)" style=""/>
  <path d="M 166.965 79.936 L 163.634 91.638 L 173.627 116.991 L 181.399 90.176 C 181.399 90.176 174.182 85.788 175.847 79.936 L 166.965 79.936 Z" fill="#ffb9b9" style="" transform="matrix(1, 0, 0, 1, 8.572442311560735e-9, 3.891314945256113)"/>
  <path d="M 194.168 146.732 C 194.168 146.732 178.068 152.095 174.737 143.807 C 171.406 135.519 171.962 129.18 171.962 129.18 C 171.962 129.18 166.965 146.244 158.638 146.244 C 150.31 146.244 145.868 143.807 145.868 143.807 C 145.868 143.807 151.975 126.743 157.527 123.817 C 157.527 123.817 157.554 123.759 157.605 123.652 C 157.915 122.968 159.015 120.263 158.242 117.883 C 158.087 117.394 157.844 116.929 157.527 116.504 C 155.306 113.578 153.086 112.603 153.641 105.291 L 149.199 91.638 L 164.517 88.538 L 172.516 110.653 L 179.801 89.001 L 193.057 90.663 C 193.057 90.663 194.168 108.215 188.617 114.553 C 187.744 115.553 187.081 116.68 186.663 117.883 C 185.697 120.575 185.924 123.408 186.445 125.67 L 186.452 125.67 C 186.8 127.212 187.339 128.716 188.061 130.155 L 194.168 146.732 Z" style="fill: rgb(230, 230, 230);" transform="matrix(1, 0, 0, 1, 8.572442311560735e-9, 3.891314945256113)"/>
  <path d="M 189.727 91.151 L 193.057 90.663 C 193.057 90.663 194.446 90.42 196.945 92.126 C 200.134 94.305 200.275 123.817 200.275 123.817 L 189.727 124.305 L 189.727 91.151 Z" style="fill: rgb(230, 230, 230);" transform="matrix(1, 0, 0, 1, 8.572442311560735e-9, 3.891314945256113)"/>
  <path d="M 151.975 92.615 L 149.199 91.638 C 149.199 91.638 148.089 91.151 147.534 94.077 C 146.979 97.002 144.203 127.231 144.203 127.231 L 155.862 126.743 L 155.862 104.802 L 151.975 92.615 Z" style="fill: rgb(230, 230, 230);" transform="matrix(1, 0, 0, 1, 8.572442311560735e-9, 3.891314945256113)"/>
  <path d="M 157.539 75.435 C 157.539 75.435 160.767 71.539 163.589 70.831 C 166.413 70.123 166.816 66.581 166.816 66.581 C 166.816 66.581 174.075 73.665 178.511 74.018 C 182.947 74.373 178.914 65.518 178.914 65.518 L 170.848 63.747 L 163.186 64.456 L 157.137 67.998 L 157.539 75.435 Z" style="fill: rgb(91, 57, 125);" transform="matrix(1, 0, 0, 1, 8.572442311560735e-9, 3.891314945256113)"/>
  <circle cx="520.67287" cy="319.52816" r="10.03722" fill="#2f2e41" transform="matrix(0.3318679928779602, 0, 0, 0.2914479970932007, -0.0003679914357235248, 31.41195627216041)" style=""/>
  <path d="M 230.062 79.136 C 220.806 56.239 243.246 33.128 270.455 37.536 C 297.662 41.945 309.233 70.567 291.281 89.056 C 279.129 101.571 258.071 103.794 242.889 94.164 C 238.41 100.968 227.222 100.963 222.751 94.154 C 218.882 88.259 222.537 80.753 230.062 79.136 Z" style="fill: rgb(91, 57, 125);" transform="matrix(1, 0, 0, 1, 8.572442311560735e-9, 3.891314945256113)"/>
  <circle cx="754.5642" cy="136.40833" r="12.53301" fill="#cfcce0" transform="matrix(0.3318679928779602, 0, 0, 0.2914479970932007, -0.0003679914357235248, 31.41195627216041)" style=""/>
  <circle cx="797.32388" cy="136.40833" r="12.53301" fill="#cfcce0" transform="matrix(0.3318679928779602, 0, 0, 0.2914479970932007, -0.0003679914357235248, 31.41195627216041)" style=""/>
  <circle cx="840.08355" cy="136.40833" r="12.53301" fill="#cfcce0" transform="matrix(0.3318679928779602, 0, 0, 0.2914479970932007, -0.0003679914357235248, 31.41195627216041)" style=""/>
  <path d="M 226.507 92.9 C 217.203 90.803 213.971 80.649 220.69 74.621 C 222.231 73.237 224.163 72.237 226.288 71.722 C 216.794 47.509 240.706 23.351 269.33 28.237 C 297.954 33.123 309.822 63.389 290.692 82.715 C 277.925 95.614 256.105 97.918 240.221 88.045 C 237.343 92.115 231.794 94.078 226.507 92.9 Z M 271.418 29.135 C 243.616 22.877 218.526 45.396 226.255 69.67 C 226.486 70.397 226.746 71.115 227.033 71.827 L 227.158 72.13 L 226.8 72.207 C 217.967 74.104 214.784 83.687 221.071 89.458 C 226.514 94.453 235.892 93.463 239.833 87.477 L 240.017 87.198 L 240.315 87.387 C 263.576 102.149 296.313 89.261 299.239 64.188 C 301.121 48.068 289.291 33.163 271.418 29.135 Z" style="" transform="matrix(1, 0, 0, 1, 8.572442311560735e-9, 3.891314945256113)" fill="#cfcce0"/>
  <path d="M 39.208 223.001 C 39.133 222.892 37.336 220.258 36.714 214.79 C 36.143 209.773 36.51 201.318 41.504 189.522 C 50.965 167.177 39.324 149.146 39.205 148.967 L 39.778 148.674 C 39.808 148.721 42.813 153.316 44.587 160.636 C 46.932 170.341 46.078 180.432 42.126 189.725 C 32.683 212.032 39.703 222.593 39.775 222.697 L 39.208 223.001 Z" fill="#cfcce0" style="" transform="matrix(1, 0, 0, 1, 8.572442311560735e-9, 3.891314945256113)"/>
  <path d="M 35.509 147.946 C 31.933 147.946 29.698 144.545 31.486 141.826 C 33.274 139.106 37.745 139.106 39.533 141.826 C 39.941 142.446 40.155 143.15 40.155 143.866 C 40.152 146.119 38.074 147.944 35.509 147.946 Z M 35.509 140.369 C 32.444 140.369 30.527 143.283 32.06 145.615 C 33.594 147.946 37.426 147.946 38.959 145.615 C 39.308 145.083 39.492 144.481 39.492 143.866 C 39.489 141.935 37.708 140.371 35.509 140.369 Z" fill="#cfcce0" style="" transform="matrix(1, 0, 0, 1, 8.572442311560735e-9, 3.891314945256113)"/>
  <circle cx="148" cy="447.19326" r="13" fill="#cfcce0" transform="matrix(0.3318679928779602, 0, 0, 0.2914479970932007, -0.0003679914357235248, 31.41195627216041)" style=""/>
  <path d="M 39.823 171.262 C 36.247 171.262 34.012 167.863 35.799 165.142 C 37.589 162.421 42.059 162.421 43.848 165.142 C 44.254 165.763 44.47 166.466 44.47 167.182 C 44.467 169.434 42.388 171.26 39.823 171.262 Z M 39.823 163.684 C 36.758 163.684 34.842 166.599 36.375 168.931 C 37.908 171.262 41.74 171.262 43.273 168.931 C 43.622 168.399 43.806 167.796 43.806 167.182 C 43.803 165.251 42.022 163.687 39.823 163.684 Z" fill="#cfcce0" style="" transform="matrix(1, 0, 0, 1, 8.572442311560735e-9, 3.891314945256113)"/>
  <path d="M 51.107 179.131 C 47.53 179.131 45.295 175.731 47.084 173.011 C 48.872 170.29 53.342 170.29 55.131 173.011 C 55.539 173.631 55.753 174.334 55.753 175.051 C 55.75 177.304 53.672 179.129 51.107 179.131 Z M 51.107 171.553 C 48.042 171.553 46.125 174.469 47.659 176.8 C 49.191 179.131 53.024 179.131 54.556 176.8 C 54.906 176.268 55.09 175.664 55.09 175.051 C 55.087 173.121 53.305 171.556 51.107 171.553 Z" fill="#cfcce0" style="" transform="matrix(1, 0, 0, 1, 8.572442311560735e-9, 3.891314945256113)"/>
  <circle cx="645" cy="612.19326" r="13" transform="matrix(0.3318679928779602, 0, 0, 0.2914479970932007, -0.0003679914357235248, 31.41195627216041)" style="fill: rgb(2, 226, 242);"/>
  <path d="M 212.727 207.985 C 209.151 207.985 206.916 204.585 208.703 201.864 C 210.491 199.144 214.962 199.144 216.751 201.864 C 217.158 202.485 217.372 203.188 217.372 203.904 C 217.371 206.156 215.292 207.982 212.727 207.985 Z M 212.727 200.406 C 209.661 200.406 207.745 203.322 209.278 205.653 C 210.811 207.985 214.643 207.985 216.176 205.653 C 216.526 205.121 216.709 204.518 216.709 203.904 C 216.706 201.973 214.926 200.409 212.727 200.406 Z" style="" transform="matrix(1, 0, 0, 1, 8.572442311560735e-9, 3.891314945256113)" fill="#cfcce0"/>
  <circle cx="274" cy="685.19326" r="13" transform="matrix(0.3318679928779602, 0, 0, 0.2914479970932007, -0.0003679914357235248, 31.41195627216041)" style="fill: rgb(2, 226, 242);"/>
  <path d="M 89.604 229.261 C 86.027 229.261 83.792 225.86 85.58 223.14 C 87.369 220.42 91.839 220.42 93.628 223.14 C 94.035 223.76 94.25 224.464 94.25 225.18 C 94.247 227.432 92.169 229.257 89.604 229.261 Z M 89.604 221.683 C 86.539 221.683 84.622 224.597 86.155 226.929 C 87.687 229.261 91.521 229.261 93.053 226.929 C 93.402 226.396 93.587 225.794 93.587 225.18 C 93.584 223.249 91.803 221.684 89.604 221.683 Z" style="" transform="matrix(1, 0, 0, 1, 8.572442311560735e-9, 3.891314945256113)" fill="#cfcce0"/>
  <circle cx="110" cy="548.19326" r="13" fill="#cfcce0" transform="matrix(0.3318679928779602, 0, 0, 0.2914479970932007, -0.0003679914357235248, 31.41195627216041)" style=""/>
  <path d="M 41.814 223.14 C 41.814 223.14 37.501 213.813 50.444 206.819 L 41.814 223.14 Z" fill="#cfcce0" style="" transform="matrix(1, 0, 0, 1, 8.572442311560735e-9, 3.891314945256113)"/>
  <path d="M 36.509 222.971 C 36.509 222.971 34.546 213.053 19.349 213.138 L 36.509 222.971 Z" fill="#cfcce0" style="" transform="matrix(1, 0, 0, 1, 8.572442311560735e-9, 3.891314945256113)"/>
  <rect y="222.556" width="69.693" height="0.583" fill="#cfcce0" style="" transform="matrix(1, 0, 0, 1, 8.572442311560735e-9, 3.891314945256113)"/>
</svg>